Martel.glyphspackage
{
glyphname = exclam;
layers = (
{
layerId = "E777F328-EA17-4AE7-9EBA-8002E537BA4F";
name = Light;
shapes = (
{
closed = 1;
nodes = (
(121,869,l),
(143,222,l),
(188,222,l),
(214,869,l)
);
},
{
closed = 1;
nodes = (
(147,90,o),
(117,67,o),
(117,36,cs),
(117,7,o),
(141,-11,o),
(166,-11,cs),
(195,-11,o),
(223,11,o),
(223,44,cs),
(223,69,o),
(208,90,o),
(175,90,cs)
);
}
);
width = 345;
},
{
layerId = "39185045-6A8C-415A-8312-7B8F11386A4C";
name = Regular;
shapes = (
{
closed = 1;
nodes = (
(105,869,l),
(137,239,l),
(194,239,l),
(230,869,l)
);
},
{
closed = 1;
nodes = (
(143,121,o),
(105,90,o),
(105,49,cs),
(105,12,o),
(135,-11,o),
(167,-11,cs),
(203,-11,o),
(240,17,o),
(240,60,cs),
(240,93,o),
(221,121,o),
(178,121,cs)
);
}
);
width = 345;
},
{
layerId = "B26750D4-52C5-4F85-819B-BFB2F142DAD5";
name = Bold;
shapes = (
{
closed = 1;
nodes = (
(82,869,l),
(152,277,l),
(241,277,l),
(315,869,l)
);
},
{
closed = 1;
nodes = (
(146,186,o),
(87,132,o),
(87,75,cs),
(87,21,o),
(134,-16,o),
(187,-16,cs),
(246,-16,o),
(305,26,o),
(305,91,cs),
(305,148,o),
(268,186,o),
(204,186,cs)
);
}
);
width = 397;
}
);
unicode = 33;
}
{
glyphname = quotedbl;
layers = (
{
layerId = "E777F328-EA17-4AE7-9EBA-8002E537BA4F";
name = Light;
shapes = (
{
closed = 1;
nodes = (
(392,472,l),
(438,472,l),
(457,870,l),
(374,870,l)
);
},
{
closed = 1;
nodes = (
(177,472,l),
(224,472,l),
(242,870,l),
(159,870,l)
);
}
);
width = 615;
},
{
layerId = "39185045-6A8C-415A-8312-7B8F11386A4C";
name = Regular;
shapes = (
{
closed = 1;
nodes = (
(384,472,l),
(446,472,l),
(470,870,l),
(360,870,l)
);
},
{
closed = 1;
nodes = (
(169,472,l),
(231,472,l),
(255,870,l),
(145,870,l)
);
}
);
width = 615;
},
{
layerId = "B26750D4-52C5-4F85-819B-BFB2F142DAD5";
name = Bold;
shapes = (
{
closed = 1;
nodes = (
(394,467,l),
(489,467,l),
(531,870,l),
(353,870,l)
);
},
{
closed = 1;
nodes = (
(126,467,l),
(222,467,l),
(263,870,l),
(85,870,l)
);
}
);
width = 616;
}
);
unicode = 34;
}
{
glyphname = numbersign;
layers = (
{
layerId = "E777F328-EA17-4AE7-9EBA-8002E537BA4F";
name = Light;
shapes = (
{
closed = 1;
nodes = (
(167,0,l),
(228,0,l),
(246,178,l),
(431,178,l),
(417,0,l),
(477,0,l),
(493,178,l),
(609,178,l),
(608,226,l),
(495,226,l),
(515,453,l),
(625,453,l),
(625,500,l),
(518,500,l),
(532,662,l),
(470,662,l),
(456,500,l),
(271,500,l),
(284,662,l),
(222,662,l),
(208,500,l),
(84,500,l),
(84,453,l),
(205,453,l),
(185,226,l),
(73,226,l),
(73,178,l),
(183,178,l)
);
},
{
closed = 1;
nodes = (
(248,226,l),
(268,453,l),
(452,453,l),
(433,226,l)
);
}
);
width = 699;
},
{
layerId = "39185045-6A8C-415A-8312-7B8F11386A4C";
name = Regular;
shapes = (
{
closed = 1;
nodes = (
(167,0,l),
(247,0,l),
(262,178,l),
(416,178,l),
(404,0,l),
(482,0,l),
(497,178,l),
(609,178,l),
(608,241,l),
(500,241,l),
(516,438,l),
(625,438,l),
(625,500,l),
(520,500,l),
(532,662,l),
(451,662,l),
(438,500,l),
(285,500,l),
(297,662,l),
(216,662,l),
(203,500,l),
(84,500,l),
(84,438,l),
(200,438,l),
(184,241,l),
(73,241,l),
(73,178,l),
(181,178,l)
);
},
{
closed = 1;
nodes = (
(265,241,l),
(281,438,l),
(435,438,l),
(418,241,l)
);
}
);
width = 699;
},
{
layerId = "B26750D4-52C5-4F85-819B-BFB2F142DAD5";
name = Bold;
shapes = (
{
closed = 1;
nodes = (
(146,0,l),
(271,0,l),
(288,168,l),
(402,168,l),
(389,0,l),
(514,0,l),
(529,168,l),
(654,168,l),
(653,275,l),
(539,275,l),
(550,405,l),
(672,405,l),
(672,510,l),
(562,510,l),
(575,662,l),
(447,662,l),
(434,510,l),
(315,510,l),
(328,662,l),
(208,662,l),
(189,510,l),
(68,510,l),
(68,405,l),
(183,405,l),
(170,275,l),
(55,275,l),
(55,168,l),
(161,168,l)
);
},
{
closed = 1;
nodes = (
(297,275,l),
(309,405,l),
(423,405,l),
(412,275,l)
);
}
);
width = 727;
}
);
unicode = 35;
}
{
glyphname = dollar;
layers = (
{
layerId = "E777F328-EA17-4AE7-9EBA-8002E537BA4F";
name = Light;
shapes = (
{
closed = 1;
nodes = (
(85,31,l),
(110,15,o),
(188,-5,o),
(272,-10,c),
(270,-113,l),
(328,-113,l),
(332,-10,l),
(458,-4,o),
(560,58,o),
(560,192,cs),
(560,307,o),
(444,364,o),
(336,415,cs),
(244,459,o),
(157,503,o),
(157,586,cs),
(157,689,o),
(250,727,o),
(321,727,cs),
(373,727,o),
(424,718,o),
(453,693,c),
(481,596,l),
(515,596,l),
(515,726,l),
(489,742,o),
(439,760,o),
(355,764,c),
(358,845,l),
(300,845,l),
(297,763,l),
(201,753,o),
(90,698,o),
(90,575,cs),
(90,464,o),
(197,408,o),
(300,358,cs),
(397,311,o),
(492,263,o),
(492,173,cs),
(492,66,o),
(400,28,o),
(317,28,cs),
(259,28,o),
(184,38,o),
(144,77,c),
(121,177,l),
(85,177,l)
);
}
);
width = 620;
},
{
layerId = "39185045-6A8C-415A-8312-7B8F11386A4C";
name = Regular;
shapes = (
{
closed = 1;
nodes = (
(85,30,l),
(108,16,o),
(178,-3,o),
(256,-9,c),
(252,-113,l),
(329,-113,l),
(333,-10,l),
(456,-4,o),
(560,57,o),
(560,194,cs),
(560,308,o),
(445,369,o),
(342,425,cs),
(256,470,o),
(178,519,o),
(178,593,cs),
(178,688,o),
(265,717,o),
(317,717,cs),
(365,717,o),
(411,707,o),
(434,686,c),
(472,592,l),
(514,592,l),
(514,728,l),
(489,743,o),
(438,760,o),
(362,764,c),
(365,845,l),
(288,845,l),
(285,762,l),
(194,750,o),
(90,695,o),
(90,577,cs),
(90,467,o),
(192,406,o),
(291,352,cs),
(382,300,o),
(470,250,o),
(470,167,cs),
(470,76,o),
(393,38,o),
(321,38,cs),
(263,38,o),
(198,49,o),
(159,90,c),
(128,187,l),
(85,187,l)
);
}
);
width = 620;
},
{
layerId = "B26750D4-52C5-4F85-819B-BFB2F142DAD5";
name = Bold;
shapes = (
{
closed = 1;
nodes = (
(62,31,l),
(99,10,o),
(179,-3,o),
(241,-10,c),
(237,-118,l),
(346,-118,l),
(351,-12,l),
(494,-3,o),
(608,76,o),
(608,206,cs),
(608,324,o),
(518,370,o),
(367,454,cs),
(290,497,o),
(224,540,o),
(224,614,cs),
(226,671,o),
(278,694,o),
(338,694,cs),
(355,694,o),
(418,685,o),
(432,671,c),
(478,568,l),
(558,568,l),
(558,730,l),
(527,746,o),
(444,757,o),
(395,762,c),
(397,865,l),
(293,865,l),
(291,764,l),
(162,751,o),
(59,677,o),
(59,557,cs),
(59,430,o),
(168,372,o),
(322,290,cs),
(381,259,o),
(434,218.085,o),
(434,170,cs),
(434,99,o),
(389,62,o),
(318,62,cs),
(262,62,o),
(213,67,o),
(181,111,c),
(135,229,l),
(62,229,l)
);
}
);
width = 667;
}
);
unicode = 36;
}
{
glyphname = percent;
layers = (
{
layerId = "E777F328-EA17-4AE7-9EBA-8002E537BA4F";
name = Light;
shapes = (
{
closed = 1;
nodes = (
(541,782,l),
(261,0,l),
(320,0,l),
(600,782,l)
);
},
{
closed = 1;
nodes = (
(121,694,o),
(44,631,o),
(44,514,cs),
(44,419,o),
(101,335,o),
(192,338,cs),
(277,340,o),
(354,402,o),
(354,519,cs),
(354,617,o),
(309,701,o),
(206,697,cs)
);
},
{
closed = 1;
nodes = (
(263,658,o),
(295,601,o),
(295,515,cs),
(295,428,o),
(258,377,o),
(197,377,cs),
(136,377,o),
(104,437,o),
(104,518,cs),
(104,604,o),
(141,658,o),
(202,658,cs)
);
},
{
closed = 1;
nodes = (
(587,437,o),
(510,373,o),
(510,256,cs),
(510,161,o),
(566,78,o),
(658,80,cs),
(743,83,o),
(819,145,o),
(819,261,cs),
(819,359,o),
(775,443,o),
(672,439,cs)
);
},
{
closed = 1;
nodes = (
(728,400,o),
(761,343,o),
(761,257,cs),
(761,170,o),
(722,120,o),
(662,120,cs),
(602,120,o),
(569,179,o),
(569,260,cs),
(569,346,o),
(606,400,o),
(667,400,cs)
);
}
);
width = 864;
},
{
layerId = "39185045-6A8C-415A-8312-7B8F11386A4C";
name = Regular;
shapes = (
{
closed = 1;
nodes = (
(524,782,l),
(258,0,l),
(335,0,l),
(602,782,l)
);
},
{
closed = 1;
nodes = (
(122,694,o),
(45,631,o),
(45,514,cs),
(45,419,o),
(102,335,o),
(193,338,cs),
(278,340,o),
(354,402,o),
(354,519,cs),
(354,617,o),
(310,701,o),
(207,697,cs)
);
},
{
closed = 1;
nodes = (
(250,647,o),
(277,594,o),
(277,515,cs),
(277,436,o),
(250,388,o),
(199,388,cs),
(151,388,o),
(124,444,o),
(124,518,cs),
(124,597,o),
(151,647,o),
(201,647,cs)
);
},
{
closed = 1;
nodes = (
(586,437,o),
(509,373,o),
(509,256,cs),
(509,161,o),
(565,78,o),
(657,80,cs),
(742,83,o),
(818,145,o),
(818,261,cs),
(818,359,o),
(774,443,o),
(671,439,cs)
);
},
{
closed = 1;
nodes = (
(713,389,o),
(741,336,o),
(741,257,cs),
(741,178,o),
(714,130,o),
(663,130,cs),
(615,130,o),
(587,187,o),
(587,260,cs),
(587,339,o),
(615,389,o),
(665,389,cs)
);
}
);
width = 864;
},
{
layerId = "B26750D4-52C5-4F85-819B-BFB2F142DAD5";
name = Bold;
shapes = (
{
closed = 1;
nodes = (
(627,864,l),
(274,-86,l),
(391,-86,l),
(744,864,l)
);
},
{
closed = 1;
nodes = (
(144,697,o),
(53,626,o),
(53,514,cs),
(53,415,o),
(128,338,o),
(236,338,cs),
(345,338,o),
(435,406,o),
(435,519,cs),
(435,628,o),
(370,697,o),
(252,697,cs)
);
},
{
closed = 1;
nodes = (
(285,627,o),
(312,570,o),
(312,515,cs),
(312,449,o),
(288,408,o),
(250,408,cs),
(208,408,o),
(176,471,o),
(176,518,cs),
(176,568,o),
(196,627,o),
(245,627,cs)
);
},
{
closed = 1;
nodes = (
(688,439,o),
(597,369,o),
(597,256,cs),
(597,158,o),
(672,80,o),
(780,80,cs),
(889,80,o),
(979,148,o),
(979,261,cs),
(979,370,o),
(914,439,o),
(796,439,cs)
);
},
{
closed = 1;
nodes = (
(831,369,o),
(858,313,o),
(858,257,cs),
(858,191,o),
(835,150,o),
(796,150,cs),
(759,150,o),
(723,209,o),
(723,260,cs),
(723,315,o),
(745,369,o),
(792,369,cs)
);
}
);
width = 1043;
}
);
unicode = 37;
}
{
glyphname = ampersand;
layers = (
{
background = {
shapes = (
{
closed = 1;
nodes = (
(239,761,o),
(157,693,o),
(159,575,cs),
(161,496,o),
(212,428,o),
(256,370,c),
(176,330,o),
(92,279,o),
(92,174,cs),
(92,19,o),
(259,-16,o),
(359,-16,cs),
(423,-16,o),
(508,5,o),
(559,49,c),
(595,24,o),
(630,6,o),
(662,3,cs),
(688,0,o),
(708,0,o),
(727,7,c),
(727,40,l),
(684,42,o),
(651,56,o),
(604,92,c),
(639,139,o),
(653,200,o),
(653,254,cs),
(653,305,o),
(642,339,o),
(634,360,c),
(566,360,l),
(572,350,o),
(589,308,o),
(589,240,cs),
(589,201,o),
(583,161,o),
(564,125,c),
(542,146,ls),
(492,192,o),
(388,313,o),
(341,369,c),
(428,418,o),
(506,503,o),
(504,605,cs),
(502,690,o),
(452,761,o),
(340,761,cs)
);
},
{
closed = 1;
nodes = (
(331,271,o),
(446,143,o),
(513,86,c),
(516,83,o),
(520,80,o),
(524,76,c),
(486,41,o),
(422,30,o),
(363,30,cs),
(255,30,o),
(159,83,o),
(159,181,cs),
(159,256,o),
(196,296,o),
(279,340,c)
);
},
{
closed = 1;
nodes = (
(419,723,o),
(442,648,o),
(443,594,cs),
(445,507,o),
(397,439,o),
(316,399,c),
(282,439,o),
(224,504,o),
(222,599,cs),
(221,688,o),
(281,723,o),
(332,723,cs)
);
}
);
};
layerId = "E777F328-EA17-4AE7-9EBA-8002E537BA4F";
name = Light;
shapes = (
{
closed = 1;
nodes = (
(239,761,o),
(157,693,o),
(159,575,cs),
(161,496,o),
(212,428,o),
(256,370,c),
(176,330,o),
(92,279,o),
(92,174,cs),
(92,19,o),
(259,-16,o),
(359,-16,cs),
(423,-16,o),
(508,5,o),
(559,49,c),
(595,24,o),
(630,6,o),
(662,3,cs),
(688,0,o),
(708,0,o),
(727,7,c),
(727,40,l),
(684,42,o),
(651,56,o),
(604,92,c),
(639,139,o),
(653,200,o),
(653,254,cs),
(653,305,o),
(642,339,o),
(634,360,c),
(566,360,l),
(572,350,o),
(589,308,o),
(589,240,cs),
(589,201,o),
(583,161,o),
(564,125,c),
(492,191,o),
(388,313,o),
(341,369,c),
(428,418,o),
(506,503,o),
(504,605,cs),
(502,690,o),
(452,761,o),
(340,761,cs)
);
},
{
closed = 1;
nodes = (
(362,232,o),
(440,152,o),
(524,76,c),
(486,41,o),
(422,30,o),
(363,30,cs),
(255,30,o),
(159,83,o),
(159,181,cs),
(159,256,o),
(196,296,o),
(279,340,c)
);
},
{
closed = 1;
nodes = (
(419,723,o),
(442,648,o),
(443,594,cs),
(445,507,o),
(397,439,o),
(316,399,c),
(282,439,o),
(224,504,o),
(222,599,cs),
(221,688,o),
(281,723,o),
(332,723,cs)
);
}
);
width = 766;
},
{
layerId = "39185045-6A8C-415A-8312-7B8F11386A4C";
name = Regular;
shapes = (
{
closed = 1;
nodes = (
(243,764,o),
(161,696,o),
(161,576,cs),
(161,500,o),
(206,437,o),
(247,379,c),
(155,331,o),
(91,272,o),
(91,180,cs),
(91,18,o),
(262,-16,o),
(364,-16,cs),
(426,-16,o),
(505,4,o),
(553,45,c),
(588,22,o),
(621,10,o),
(652,5,cs),
(678,0,o),
(701,1,o),
(722,8,c),
(722,49,l),
(687,55,o),
(651,73,o),
(612,103,c),
(646,152,o),
(657,216,o),
(657,265,cs),
(657,305,o),
(650,335,o),
(643,360,c),
(552,360,l),
(558,353,o),
(571,311,o),
(571,244,cs),
(571,218,o),
(572,181,o),
(559,148,c),
(506,196,o),
(400,321,o),
(355,380,c),
(428,427,o),
(514,502,o),
(514,601,cs),
(514,686,o),
(464,764,o),
(348,764,cs)
);
},
{
closed = 1;
nodes = (
(325,267,o),
(439,139,o),
(508,80,c),
(475,50,o),
(425,42,o),
(369,42,cs),
(266,42,o),
(180,97,o),
(180,192,cs),
(180,264,o),
(211,296,o),
(274,338,c)
);
},
{
closed = 1;
nodes = (
(416,715,o),
(434,637,o),
(434,586,cs),
(434,506,o),
(388,452,o),
(324,418,c),
(292,456,o),
(243,517,o),
(243,608,cs),
(243,689,o),
(298,715,o),
(337,715,cs)
);
}
);
width = 766;
},
{
background = {
shapes = (
{
closed = 1;
nodes = (
(297,758,o),
(240,742,o),
(195,710,cs),
(151,678,o),
(120,629,o),
(118,564,cs),
(117,527,o),
(128,493,o),
(145,461,cs),
(161,430,o),
(183,400,o),
(205,372,c),
(161,354,o),
(120,333,o),
(90,305,cs),
(60,276,o),
(40,239,o),
(40,188,cs),
(40,124,o),
(68,74,o),
(122,39,cs),
(176,4,o),
(256,-14,o),
(359,-14,cs),
(433,-14,o),
(485,0,o),
(528,21,c),
(548,10,o),
(566,4,o),
(584,0,cs),
(601,-4,o),
(618,-6,o),
(635,-8,cs),
(677,-11,o),
(718,-7,o),
(742,6,c),
(742,75,l),
(714,75,o),
(684,84,o),
(652,104,c),
(696,153,o),
(720,218,o),
(720,274,cs),
(720,291,o),
(720,304,o),
(718,314,cs),
(715,335,o),
(711,349,o),
(707,354,c),
(705,357,o),
(703,359,o),
(702,360,c),
(549,360,l),
(552,353,o),
(557,340,o),
(561,322,cs),
(565,304,o),
(567,279,o),
(567,248,cs),
(567,226,o),
(568,202,o),
(564,179,c),
(559,185,l),
(537,207,o),
(508,239,o),
(479,273,cs),
(450,308,o),
(420,343,o),
(396,374,c),
(449,397,o),
(493,430,o),
(523,467,cs),
(553,504,o),
(570,547,o),
(570,592,cs),
(570,643,o),
(546,684,o),
(506,713,cs),
(467,742,o),
(411,758,o),
(350,758,cs)
);
},
{
closed = 1;
nodes = (
(285,261,o),
(319,218,o),
(354,177,cs),
(388,136,o),
(422,99,o),
(452,72,c),
(429,67,o),
(402,66,o),
(371,66,cs),
(330,66,o),
(290,75,o),
(259,97,cs),
(229,120,o),
(208,157,o),
(208,214,cs),
(208,248,o),
(231,279,o),
(257,300,c)
);
},
{
closed = 1;
nodes = (
(374,691,o),
(392,679,o),
(403,661,cs),
(415,644,o),
(419,621,o),
(419,600,cs),
(419,563,o),
(417,531,o),
(407,503,cs),
(397,476,o),
(379,453,o),
(352,434,c),
(336,452,o),
(313,478,o),
(296,509,cs),
(279,540,o),
(268,576,o),
(274,617,cs),
(279,646,o),
(290,665,o),
(303,676,cs),
(316,687,o),
(332,691,o),
(347,691,cs)
);
}
);
};
layerId = "B26750D4-52C5-4F85-819B-BFB2F142DAD5";
name = Bold;
shapes = (
{
closed = 1;
nodes = (
(231,758,o),
(122,686,o),
(118,564,cs),
(116,498,o),
(154,437,o),
(205,372,c),
(109,333,o),
(40,284,o),
(40,188,cs),
(40,42,o),
(182,-14,o),
(359,-14,cs),
(433,-14,o),
(485,0,o),
(528,21,c),
(561,1,o),
(617,-9,o),
(659,-9,cs),
(692,-9,o),
(723,-5,o),
(742,6,c),
(742,75,l),
(714,75,o),
(684,84,o),
(652,104,c),
(696,153,o),
(720,218,o),
(720,274,cs),
(720,300,o),
(718,344,o),
(702,360,c),
(549,360,l),
(563,327,o),
(567,288,o),
(567,248,cs),
(567,226,o),
(568,202,o),
(564,179,c),
(529,214,o),
(433,326,o),
(396,374,c),
(489,414,o),
(570,493,o),
(570,592,cs),
(570,696,o),
(470,758,o),
(350,758,cs)
);
},
{
closed = 1;
nodes = (
(305,234,o),
(398,120,o),
(452,72,c),
(429,67,o),
(402,66,o),
(371,66,cs),
(273,66,o),
(208,113,o),
(208,214,cs),
(208,248,o),
(231,279,o),
(257,300,c)
);
},
{
closed = 1;
nodes = (
(395,691,o),
(419,650,o),
(419,600,cs),
(419,526,o),
(411,475,o),
(352,434,c),
(302,491,o),
(264,546,o),
(274,617,cs),
(281,658,o),
(302,691,o),
(347,691,cs)
);
}
);
width = 777;
}
);
unicode = 38;
}
{
glyphname = quotesingle;
layers = (
{
layerId = "E777F328-EA17-4AE7-9EBA-8002E537BA4F";
name = Light;
shapes = (
{
closed = 1;
nodes = (
(177,472,l),
(224,472,l),
(242,870,l),
(159,870,l)
);
}
);
width = 400;
},
{
layerId = "39185045-6A8C-415A-8312-7B8F11386A4C";
name = Regular;
shapes = (
{
closed = 1;
nodes = (
(169,472,l),
(231,472,l),
(255,870,l),
(145,870,l)
);
}
);
width = 400;
},
{
layerId = "B26750D4-52C5-4F85-819B-BFB2F142DAD5";
name = Bold;
shapes = (
{
closed = 1;
nodes = (
(126,467,l),
(222,467,l),
(263,870,l),
(85,870,l)
);
}
);
width = 348;
}
);
unicode = 39;
}
{
glyphname = parenleft;
layers = (
{
layerId = "E777F328-EA17-4AE7-9EBA-8002E537BA4F";
name = Light;
shapes = (
{
closed = 1;
nodes = (
(325,-120,l),
(277,-88,o),
(116,77,o),
(124,383,cs),
(132,645,o),
(281,800,o),
(323,827,c),
(290,847,l),
(244,822,o),
(56,643,o),
(56,359,cs),
(56,34,o),
(241,-116,o),
(287,-144,c)
);
}
);
width = 397;
},
{
layerId = "39185045-6A8C-415A-8312-7B8F11386A4C";
name = Regular;
shapes = (
{
closed = 1;
nodes = (
(341,-126,l),
(293,-91,o),
(136,87,o),
(146,378,cs),
(154,641,o),
(294,796,o),
(334,823,c),
(292,849,l),
(246,823,o),
(56,638,o),
(56,354,cs),
(56,28,o),
(246,-128,o),
(292,-156,c)
);
}
);
width = 397;
},
{
background = {
shapes = (
{
closed = 1;
nodes = (
(78,455,o),
(102,545,o),
(135,620,cs),
(168,694,o),
(211,751,o),
(250,792,cs),
(289,833,o),
(323,857,o),
(339,866,c),
(409,811,l),
(395,802,o),
(373,784,o),
(350,752,cs),
(326,721,o),
(300,676,o),
(280,615,cs),
(259,553,o),
(244,475,o),
(241,375,cs),
(239,281,o),
(252,199,o),
(273,130,cs),
(294,61,o),
(324,5,o),
(352,-36,cs),
(379,-77,o),
(406,-104,o),
(423,-116,c),
(349,-172,l),
(333,-163,o),
(298,-143,o),
(257,-107,cs),
(217,-71,o),
(172,-19,o),
(138,55,cs),
(103,129,o),
(78,225,o),
(78,348,cs)
);
}
);
};
layerId = "B26750D4-52C5-4F85-819B-BFB2F142DAD5";
name = Bold;
shapes = (
{
closed = 1;
nodes = (
(423,-116,l),
(305,-18,o),
(235,186,o),
(241,375,cs),
(246,548,o),
(295,727,o),
(409,811,c),
(339,866,l),
(183,769,o),
(78,559,o),
(78,348,cs),
(78,122,o),
(163,-69,o),
(349,-172,c)
);
}
);
width = 494;
}
);
unicode = 40;
}
{
glyphname = parenright;
layers = (
{
layerId = "E777F328-EA17-4AE7-9EBA-8002E537BA4F";
name = Light;
shapes = (
{
closed = 1;
nodes = (
(108,-145,l),
(153,-119,o),
(341,60,o),
(341,344,cs),
(341,668,o),
(156,818,o),
(111,846,c),
(72,822,l),
(119,789,o),
(283,626,o),
(273,320,cs),
(265,58,o),
(117,-98,o),
(74,-125,c)
);
}
);
width = 397;
},
{
layerId = "39185045-6A8C-415A-8312-7B8F11386A4C";
name = Regular;
shapes = (
{
closed = 1;
nodes = (
(105,-151,l),
(151,-125,o),
(341,60,o),
(341,344,cs),
(341,669,o),
(151,826,o),
(105,854,c),
(56,824,l),
(104,789,o),
(261,610,o),
(251,320,cs),
(243,57,o),
(103,-98,o),
(63,-125,c)
);
}
);
width = 397;
},
{
layerId = "B26750D4-52C5-4F85-819B-BFB2F142DAD5";
name = Bold;
shapes = (
{
closed = 1;
nodes = (
(154,-177,l),
(310,-80,o),
(415,130,o),
(415,341,cs),
(415,567,o),
(330,758,o),
(144,861,c),
(70,805,l),
(188,707,o),
(258,503,o),
(252,314,cs),
(247,141,o),
(198,-38,o),
(84,-122,c)
);
}
);
width = 494;
}
);
unicode = 41;
}
{
glyphname = asterisk;
layers = (
{
layerId = "E777F328-EA17-4AE7-9EBA-8002E537BA4F";
name = Light;
shapes = (
{
closed = 1;
nodes = (
(280,375,l),
(347,375,l),
(334,553,l),
(325,605,l),
(364,572,l),
(510,462,l),
(552,513,l),
(384,604,l),
(334,624,l),
(385,646,l),
(552,733,l),
(511,785,l),
(370,681,l),
(324,643,l),
(335,700,l),
(347,872,l),
(280,872,l),
(292,700,l),
(301,643,l),
(264,676,l),
(116,786,l),
(80,733,l),
(246,643,l),
(290,624,l),
(247,606,l),
(80,514,l),
(117,461,l),
(267,574,l),
(301,605,l),
(292,553,l)
);
}
);
width = 632;
},
{
layerId = "39185045-6A8C-415A-8312-7B8F11386A4C";
name = Regular;
shapes = (
{
closed = 1;
nodes = (
(269,375,l),
(358,375,l),
(341,550,l),
(328,601,l),
(362,567,l),
(503,454,l),
(559,521,l),
(388,608,l),
(339,624,l),
(388,642,l),
(559,723,l),
(504,793,l),
(369,688,l),
(327,648,l),
(343,704,l),
(358,872,l),
(269,872,l),
(285,704,l),
(298,648,l),
(265,682,l),
(121,794,l),
(73,724,l),
(242,639,l),
(286,624,l),
(241,609,l),
(74,521,l),
(123,453,l),
(267,566,l),
(298,601,l),
(285,550,l)
);
}
);
width = 632;
},
{
layerId = "B26750D4-52C5-4F85-819B-BFB2F142DAD5";
name = Bold;
shapes = (
{
closed = 1;
nodes = (
(230,369,l),
(366,369,l),
(352,521,l),
(323,583,l),
(368,528,l),
(484,432,l),
(569,528,l),
(404,610,l),
(341,622,l),
(404,631,l),
(571,699,l),
(486,809,l),
(368,719,l),
(321,663,l),
(356,728,l),
(366,878,l),
(230,878,l),
(241,728,l),
(270,663,l),
(226,713,l),
(107,811,l),
(34,700,l),
(188,630,l),
(250,622,l),
(187,611,l),
(36,529,l),
(109,430,l),
(226,528,l),
(270,583,l),
(241,521,l)
);
}
);
width = 605;
}
);
unicode = 42;
}
{
glyphname = plus;
layers = (
{
layerId = "E777F328-EA17-4AE7-9EBA-8002E537BA4F";
name = Light;
shapes = (
{
closed = 1;
nodes = (
(277,157,l),
(336,157,l),
(336,283,l),
(332,364,l),
(402,360,l),
(530,360,l),
(530,418,l),
(402,418,l),
(332,413,l),
(336,494,l),
(336,615,l),
(277,615,l),
(277,494,l),
(281,413,l),
(202,418,l),
(84,418,l),
(84,360,l),
(202,360,l),
(281,363,l),
(277,283,l)
);
}
);
width = 614;
},
{
layerId = "39185045-6A8C-415A-8312-7B8F11386A4C";
name = Regular;
shapes = (
{
closed = 1;
nodes = (
(272,157,l),
(348,157,l),
(348,274,l),
(343,355,l),
(410,352,l),
(533,352,l),
(533,427,l),
(410,427,l),
(343,421,l),
(348,504,l),
(348,615,l),
(272,615,l),
(272,504,l),
(275,421,l),
(194,427,l),
(87,427,l),
(87,352,l),
(194,352,l),
(275,355,l),
(272,274,l)
);
}
);
width = 620;
},
{
layerId = "B26750D4-52C5-4F85-819B-BFB2F142DAD5";
name = Bold;
shapes = (
{
closed = 1;
nodes = (
(258,167,l),
(386,167,l),
(386,261,l),
(381,353,l),
(457,348,l),
(560,348,l),
(560,473,l),
(457,473,l),
(381,468,l),
(386,560,l),
(386,663,l),
(258,663,l),
(258,560,l),
(263,468,l),
(188,473,l),
(84,473,l),
(84,348,l),
(188,348,l),
(263,353,l),
(258,261,l)
);
}
);
width = 645;
}
);
unicode = 43;
}
{
glyphname = comma;
layers = (
{
layerId = "E777F328-EA17-4AE7-9EBA-8002E537BA4F";
name = Light;
shapes = (
{
closed = 1;
nodes = (
(113,67,l),
(150,62,o),
(185,17,o),
(185,-43,cs),
(185,-117,o),
(131,-183,o),
(86,-199,c),
(86,-210,l),
(103,-232,l),
(174,-203,o),
(255,-125,o),
(253,-14,c),
(253,42,o),
(223,119,o),
(152,136,c),
(113,85,l)
);
}
);
width = 342;
},
{
layerId = "39185045-6A8C-415A-8312-7B8F11386A4C";
name = Regular;
shapes = (
{
closed = 1;
nodes = (
(96,43,l),
(133,40,o),
(166,-10,o),
(166,-59,cs),
(166,-121,o),
(125,-186,o),
(78,-201,c),
(78,-214,l),
(101,-243,l),
(177,-212,o),
(256,-132,o),
(256,-21,cs),
(256,32,o),
(228,117,o),
(150,136,c),
(96,65,l)
);
}
);
width = 334;
},
{
layerId = "B26750D4-52C5-4F85-819B-BFB2F142DAD5";
name = Bold;
shapes = (
{
closed = 1;
nodes = (
(88,-7,l),
(133,-11,o),
(172,-55,o),
(172,-99,cs),
(172,-160,o),
(139,-209,o),
(88,-230,c),
(88,-257,l),
(125,-291,l),
(234,-255,o),
(313,-161,o),
(316,-38,cs),
(316,53,o),
(271,128,o),
(188,158,c),
(88,32,l)
);
}
);
width = 389;
}
);
unicode = 44;
}
{
glyphname = period;
layers = (
{
background = {
shapes = (
{
closed = 1;
nodes = (
(149,87,o),
(121,70,o),
(117,42,cs),
(112,17,o),
(128,-1,o),
(150,-5,c),
(174,-7,o),
(202,7,o),
(206,37,c),
(210,60,o),
(201,81,o),
(172,84,cs)
);
}
);
};
layerId = "E777F328-EA17-4AE7-9EBA-8002E537BA4F";
name = Light;
shapes = (
{
closed = 1;
nodes = (
(143,84,o),
(116,64,o),
(116,33,cs),
(116,11,o),
(135,-5,o),
(155,-5,cs),
(182,-5,o),
(207,13,o),
(207,47,cs),
(207,67,o),
(196,84,o),
(167,84,cs)
);
}
);
width = 345;
},
{
layerId = "39185045-6A8C-415A-8312-7B8F11386A4C";
name = Regular;
shapes = (
{
closed = 1;
nodes = (
(143,121,o),
(105,90,o),
(105,49,cs),
(105,12,o),
(135,-11,o),
(167,-11,cs),
(203,-11,o),
(240,17,o),
(240,60,cs),
(240,93,o),
(221,121,o),
(178,121,cs)
);
}
);
width = 345;
},
{
layerId = "B26750D4-52C5-4F85-819B-BFB2F142DAD5";
name = Bold;
shapes = (
{
closed = 1;
nodes = (
(150,188,o),
(87,137,o),
(87,77,cs),
(87,23,o),
(134,-14,o),
(187,-14,cs),
(247,-14,o),
(305,29,o),
(305,93,cs),
(305,150,o),
(268,188,o),
(204,188,cs)
);
}
);
width = 392;
}
);
unicode = 46;
}
{
glyphname = slash;
layers = (
{
layerId = "E777F328-EA17-4AE7-9EBA-8002E537BA4F";
name = Light;
shapes = (
{
closed = 1;
nodes = (
(15,-177,l),
(82,-177,l),
(351,781,l),
(284,781,l)
);
}
);
width = 398;
},
{
layerId = "39185045-6A8C-415A-8312-7B8F11386A4C";
name = Regular;
shapes = (
{
closed = 1;
nodes = (
(15,-177,l),
(104,-177,l),
(384,781,l),
(294,781,l)
);
}
);
width = 398;
},
{
layerId = "B26750D4-52C5-4F85-819B-BFB2F142DAD5";
name = Bold;
shapes = (
{
closed = 1;
nodes = (
(15,-177,l),
(138,-177,l),
(389,781,l),
(266,781,l)
);
}
);
width = 404;
}
);
unicode = 47;
}
{
glyphname = zero;
layers = (
{
layerId = "E777F328-EA17-4AE7-9EBA-8002E537BA4F";
name = Light;
shapes = (
{
closed = 1;
nodes = (
(192,610,o),
(67,498,o),
(64,309,cs),
(63,141,o),
(135,-14,o),
(321,-14,cs),
(467,-14,o),
(583,117,o),
(584,304,cs),
(586,477,o),
(523,613,o),
(333,611,cs)
);
},
{
closed = 1;
nodes = (
(458,568,o),
(510,453,o),
(510,300,cs),
(510,134,o),
(453,25,o),
(321,27,cs),
(195,30,o),
(140,165,o),
(140,312,cs),
(140,472,o),
(201,572,o),
(332,570,cs)
);
}
);
width = 648;
},
{
layerId = "39185045-6A8C-415A-8312-7B8F11386A4C";
name = Regular;
shapes = (
{
closed = 1;
nodes = (
(192,610,o),
(67,498,o),
(64,309,cs),
(63,141,o),
(135,-14,o),
(321,-14,cs),
(467,-14,o),
(583,117,o),
(584,304,cs),
(586,477,o),
(523,613,o),
(333,611,cs)
);
},
{
closed = 1;
nodes = (
(438,557,o),
(484,446,o),
(484,300,cs),
(484,134,o),
(442,35,o),
(325,38,cs),
(214,40,o),
(165,174,o),
(165,313,cs),
(165,468,o),
(209,561,o),
(327,560,cs)
);
}
);
width = 648;
},
{
background = {
shapes = (
{
closed = 1;
nodes = (
(304,611,o),
(254,598,o),
(209,575,cs),
(165,551,o),
(126,516,o),
(98,471,cs),
(70,426,o),
(53,372,o),
(52,309,cs),
(50,225,o),
(74,145,o),
(121,85,cs),
(168,26,o),
(241,-12,o),
(340,-12,cs),
(392,-12,o),
(442,3,o),
(485,29,cs),
(529,54,o),
(566,92,o),
(593,139,cs),
(620,186,o),
(635,242,o),
(636,304,cs),
(636,390,o),
(617,468,o),
(571,523,cs),
(525,578,o),
(454,612,o),
(353,611,cs)
);
},
{
closed = 1;
nodes = (
(370,536,o),
(397,512,o),
(417,471,cs),
(436,429,o),
(446,370,o),
(446,298,cs),
(446,218,o),
(441,158,o),
(427,119,cs),
(413,80,o),
(388,61,o),
(351,63,cs),
(327,63,o),
(308,79,o),
(292,104,cs),
(275,129,o),
(263,164,o),
(254,201,cs),
(246,238,o),
(241,279,o),
(241,318,cs),
(241,387,o),
(246,442,o),
(260,480,cs),
(273,518,o),
(297,538,o),
(335,537,cs)
);
}
);
};
layerId = "B26750D4-52C5-4F85-819B-BFB2F142DAD5";
name = Bold;
shapes = (
{
closed = 1;
nodes = (
(188,611,o),
(55,483,o),
(52,309,cs),
(48,127,o),
(154,-12,o),
(340,-12,cs),
(505,-12,o),
(633,127,o),
(636,304,cs),
(636,497,o),
(540,613,o),
(353,611,cs)
);
},
{
closed = 1;
nodes = (
(417,535,o),
(446,414,o),
(446,298,cs),
(446,172,o),
(438,58,o),
(351,63,cs),
(279,63,o),
(241,215,o),
(241,318,cs),
(241,437,o),
(253,539,o),
(335,537,cs)
);
}
);
width = 686;
}
);
unicode = 48;
}
{
glyphname = one;
layers = (
{
layerId = "E777F328-EA17-4AE7-9EBA-8002E537BA4F";
name = Light;
shapes = (
{
closed = 1;
nodes = (
(60,0,l),
(419,0,l),
(419,33,l),
(279,43,l),
(280,610,l),
(254,617,l),
(231,598,o),
(124,545,o),
(65,526,c),
(72,489,l),
(122,502,o),
(158,512,o),
(208,530,c),
(208,43,l),
(60,33,l)
);
}
);
width = 456;
},
{
layerId = "39185045-6A8C-415A-8312-7B8F11386A4C";
name = Regular;
shapes = (
{
closed = 1;
nodes = (
(57,0,l),
(424,0,l),
(424,42,l),
(293,54,l),
(294,610,l),
(269,617,l),
(246,598,o),
(115,540,o),
(56,522,c),
(66,474,l),
(110,483,o),
(155,491,o),
(199,500,c),
(199,55,l),
(57,42,l)
);
}
);
width = 456;
},
{
background = {
shapes = (
{
closed = 1;
nodes = (
(55,0,l),
(465,0,l),
(465,71,l),
(349,91,l),
(352,610,l),
(281,619,l),
(273,613,o),
(250,600,o),
(219,586,cs),
(189,572,o),
(152,555,o),
(118,541,cs),
(83,527,o),
(51,515,o),
(30,509,c),
(47,430,l),
(183,445,l),
(183,91,l),
(55,71,l)
);
}
);
};
layerId = "B26750D4-52C5-4F85-819B-BFB2F142DAD5";
name = Bold;
shapes = (
{
closed = 1;
nodes = (
(55,0,l),
(465,0,l),
(465,71,l),
(349,91,l),
(352,610,l),
(281,619,l),
(249,595,o),
(84,524,o),
(30,509,c),
(47,430,l),
(92,435,o),
(138,440,o),
(183,445,c),
(183,91,l),
(55,71,l)
);
}
);
width = 486;
}
);
unicode = 49;
}
{
glyphname = two;
layers = (
{
layerId = "E777F328-EA17-4AE7-9EBA-8002E537BA4F";
name = Light;
shapes = (
{
closed = 1;
nodes = (
(80,0,l),
(518,0,l),
(549,135,l),
(517,146,l),
(473,61,l),
(161,44,l),
(339,152,o),
(483,310,o),
(483,452,cs),
(483,536,o),
(423,619,o),
(290,619,cs),
(193,619,o),
(104,566,o),
(68,520,c),
(86,490,l),
(125,529,o),
(202,569,o),
(267,569,cs),
(362,569,o),
(408,505,o),
(410,429,cs),
(410,296,o),
(247,139,o),
(69,30,c)
);
}
);
width = 596;
},
{
layerId = "39185045-6A8C-415A-8312-7B8F11386A4C";
name = Regular;
shapes = (
{
closed = 1;
nodes = (
(78,0,l),
(519,0,l),
(551,134,l),
(509,148,l),
(462,79,l),
(183,58,l),
(355,161,o),
(486,313,o),
(486,448,cs),
(486,533,o),
(426,617,o),
(292,617,cs),
(194,617,o),
(103,563,o),
(66,518,c),
(89,480,l),
(122,509,o),
(192,552,o),
(259,552,cs),
(354,552,o),
(388,479,o),
(388,416,cs),
(388,291,o),
(234,146,o),
(64,39,c)
);
}
);
width = 596;
},
{
background = {
shapes = (
{
closed = 1;
nodes = (
(68,0,l),
(555,0,l),
(589,159,l),
(518,180,l),
(473,123,l),
(216,88,l),
(287,135,o),
(346,175,o),
(394,213,cs),
(440,250,o),
(475,286,o),
(499,323,cs),
(522,360,o),
(534,399,o),
(534,444,cs),
(534,489,o),
(513,532,o),
(474,564,cs),
(434,596,o),
(376,617,o),
(304,617,cs),
(233,617,o),
(173,597,o),
(127,574,cs),
(81,550,o),
(50,522,o),
(39,505,c),
(81,442,l),
(100,457,o),
(122,475,o),
(150,488,cs),
(177,502,o),
(210,512,o),
(250,512,cs),
(285,512,o),
(312,499,o),
(329,478,cs),
(346,458,o),
(354,430,o),
(354,405,cs),
(354,368,o),
(336,329,o),
(307,288,cs),
(278,247,o),
(237,207,o),
(191,168,cs),
(145,129,o),
(94,93,o),
(43,63,c)
);
}
);
};
layerId = "B26750D4-52C5-4F85-819B-BFB2F142DAD5";
name = Bold;
shapes = (
{
closed = 1;
nodes = (
(68,0,l),
(555,0,l),
(589,159,l),
(518,180,l),
(473,123,l),
(216,88,l),
(385,199,o),
(534,293,o),
(534,444,cs),
(534,550,o),
(428,617,o),
(304,617,cs),
(213,617,o),
(81,571,o),
(39,505,c),
(81,442,l),
(135,485,o),
(182,512,o),
(250,512,cs),
(314,512,o),
(354,466,o),
(354,405,cs),
(354,294,o),
(186,147,o),
(43,63,c)
);
}
);
width = 616;
}
);
unicode = 50;
}
{
glyphname = three;
layers = (
{
layerId = "E777F328-EA17-4AE7-9EBA-8002E537BA4F";
name = Light;
shapes = (
{
closed = 1;
nodes = (
(137,621,o),
(64,574,o),
(33,542,c),
(54,508,l),
(86,533,o),
(134,570,o),
(217,570,cs),
(293,570,o),
(351,532,o),
(351,443,cs),
(351,368,o),
(267,292,o),
(128,271,c),
(128,220,l),
(202,236,l),
(212,237,o),
(221,237,o),
(230,237,cs),
(345,237,o),
(392,178,o),
(392,92,cs),
(392,-14,o),
(287,-120,o),
(127,-120,cs),
(106,-120,o),
(85,-118,o),
(62,-114,c),
(62,-155,l),
(90,-160,o),
(117,-162,o),
(143,-162,cs),
(339,-162,o),
(467,-27,o),
(467,104,cs),
(467,198,o),
(400,273,o),
(261,267,c),
(345,292,o),
(425,383,o),
(425,461,cs),
(425,575,o),
(334,621,o),
(243,621,cs)
);
}
);
width = 522;
},
{
background = {
shapes = (
{
closed = 1;
nodes = (
(138,620,o),
(62,573,o),
(32,542,c),
(58,499,l),
(94,527,o),
(139,554,o),
(212,554,cs),
(275,554,o),
(331,521,o),
(329,431,cs),
(328,357,o),
(235,302,o),
(127,281,c),
(127,216,l),
(202,232,l),
(329,232,o),
(370,178,o),
(370,85,cs),
(370,-36,o),
(227,-131,o),
(61,-102,c),
(61,-120,o),
(61,-137,o),
(61,-155,c),
(304,-196,o),
(471,-45,o),
(471,104,cs),
(471,197,o),
(404,273,o),
(265,268,c),
(347,292,o),
(429,382,o),
(429,460,cs),
(429,575,o),
(335,620,o),
(244,620,cs)
);
}
);
};
layerId = "39185045-6A8C-415A-8312-7B8F11386A4C";
name = Regular;
shapes = (
{
closed = 1;
nodes = (
(138,620,o),
(62,573,o),
(32,542,c),
(58,499,l),
(94,527,o),
(139,554,o),
(212,554,cs),
(275,554,o),
(331,521,o),
(329,431,cs),
(328,357,o),
(235,302,o),
(127,281,c),
(127,216,l),
(169,225,l),
(180,227,o),
(191,230,o),
(202,232,c),
(329,232,o),
(370,178,o),
(370,85,cs),
(370,-21,o),
(260,-107,o),
(121,-107,cs),
(101,-107,o),
(81,-106,o),
(61,-102,c),
(61,-155,l),
(89,-160,o),
(115,-162,o),
(141,-162,cs),
(340,-162,o),
(471,-28,o),
(471,104,cs),
(471,197,o),
(404,273,o),
(265,268,c),
(347,292,o),
(429,382,o),
(429,460,cs),
(429,575,o),
(335,620,o),
(244,620,cs)
);
}
);
width = 524;
},
{
layerId = "B26750D4-52C5-4F85-819B-BFB2F142DAD5";
name = Bold;
shapes = (
{
closed = 1;
nodes = (
(170,620,o),
(82,591,o),
(21,536,c),
(63,474,l),
(120,506,o),
(148,523,o),
(214,523,cs),
(256,523,o),
(295,496,o),
(295,447,cs),
(295,363,o),
(201,299,o),
(115,294,c),
(115,204,l),
(180,218,l),
(193,221,o),
(207,223,o),
(220,226,c),
(296,217,o),
(338,176,o),
(338,93,cs),
(338,-13,o),
(247,-75,o),
(136,-75,cs),
(110,-75,o),
(83,-72,o),
(55,-65,c),
(56,-152,l),
(94,-159,o),
(130,-162,o),
(163,-162,cs),
(340,-162,o),
(506,-64,o),
(506,98,cs),
(506,203,o),
(424,273,o),
(308,275,c),
(383,299,o),
(458,380,o),
(458,455,cs),
(458,565,o),
(368,620,o),
(254,620,cs)
);
}
);
width = 544;
}
);
unicode = 51;
}
{
glyphname = four;
layers = (
{
layerId = "E777F328-EA17-4AE7-9EBA-8002E537BA4F";
name = Light;
shapes = (
{
closed = 1;
nodes = (
(50,0,l),
(386,0,l),
(385,-184,l),
(452,-184,l),
(452,0,l),
(567,0,l),
(567,63,l),
(452,58,l),
(452,322,l),
(388,304,l),
(386,55,l),
(103,43,l),
(125,79,l),
(159,141,o),
(379,521,o),
(413,590,c),
(371,622,l),
(346,622,l),
(244,396,o),
(139,222,o),
(38,37,c)
);
}
);
width = 612;
},
{
layerId = "39185045-6A8C-415A-8312-7B8F11386A4C";
name = Regular;
shapes = (
{
closed = 1;
nodes = (
(52,0,l),
(375,0,l),
(374,-184,l),
(462,-184,l),
(462,0,l),
(565,0,l),
(565,83,l),
(462,77,l),
(462,324,l),
(376,300,l),
(375,71,l),
(120,56,l),
(155,107,l),
(247,264,o),
(339,422,o),
(431,579,c),
(374,622,l),
(343,622,l),
(241,399,o),
(138,230,o),
(37,46,c)
);
}
);
width = 612;
},
{
background = {
shapes = (
{
closed = 1;
nodes = (
(61,0,l),
(388,0,l),
(380,-184,l),
(534,-184,l),
(534,0,l),
(622,0,l),
(622,127,l),
(534,118,l),
(534,304,l),
(399,288,l),
(392,103,l),
(173,80,l),
(208,122,l),
(307,264,o),
(407,405,o),
(506,547,c),
(394,622,l),
(346,622,l),
(333,593,o),
(318,563,o),
(302,531,cs),
(270,466,o),
(234,399,o),
(196,333,cs),
(158,266,o),
(120,202,o),
(85,144,cs),
(67,115,o),
(51,88,o),
(37,63,c)
);
}
);
};
layerId = "B26750D4-52C5-4F85-819B-BFB2F142DAD5";
name = Bold;
shapes = (
{
closed = 1;
nodes = (
(61,0,l),
(388,0,l),
(380,-184,l),
(534,-184,l),
(534,0,l),
(622,0,l),
(622,127,l),
(534,118,l),
(534,304,l),
(399,288,l),
(392,103,l),
(173,80,l),
(208,122,l),
(307,264,o),
(407,405,o),
(506,547,c),
(394,622,l),
(346,622,l),
(260,434,o),
(148,248,o),
(37,63,c)
);
}
);
width = 639;
}
);
unicode = 52;
}
{
glyphname = five;
layers = (
{
layerId = "E777F328-EA17-4AE7-9EBA-8002E537BA4F";
name = Light;
shapes = (
{
closed = 1;
nodes = (
(66,-165,l),
(85,-170,o),
(103,-171,o),
(119,-171,cs),
(316,-171,o),
(468,-12,o),
(468,127,cs),
(468,319,o),
(283,378,o),
(120,304,c),
(155,543,l),
(414,543,l),
(432,613,l),
(390,613,l),
(376,604,l),
(101,604,l),
(63,276,l),
(80,262,l),
(238,321,o),
(394,296,o),
(394,119,cs),
(394,-34,o),
(219,-152,o),
(67,-128,c)
);
}
);
width = 527;
},
{
layerId = "39185045-6A8C-415A-8312-7B8F11386A4C";
name = Regular;
shapes = (
{
closed = 1;
nodes = (
(66,-165,l),
(83,-170,o),
(101,-171,o),
(117,-171,cs),
(318,-171,o),
(468,-11,o),
(468,126,cs),
(468,326,o),
(280,384,o),
(136,315,c),
(172,523,l),
(405,523,l),
(429,613,l),
(374,613,l),
(360,604,l),
(101,604,l),
(63,276,l),
(80,262,l),
(231,313,o),
(368,289,o),
(368,115,cs),
(368,-30,o),
(208,-135,o),
(67,-120,c)
);
}
);
width = 527;
},
{
layerId = "B26750D4-52C5-4F85-819B-BFB2F142DAD5";
name = Bold;
shapes = (
{
closed = 1;
nodes = (
(53,-165,l),
(70,-170,o),
(96,-171,o),
(113,-171,cs),
(318,-171,o),
(514,-62,o),
(514,131,cs),
(514,300,o),
(351,382,o),
(174,329,c),
(206,475,l),
(454,475,l),
(495,622,l),
(432,622,l),
(418,604,l),
(93,604,l),
(63,264,l),
(127,245,l),
(254,275,o),
(336,235,o),
(336,111,cs),
(336,-38,o),
(209,-102,o),
(53,-89,c)
);
}
);
width = 556;
}
);
unicode = 53;
}
{
glyphname = six;
layers = (
{
layerId = "E777F328-EA17-4AE7-9EBA-8002E537BA4F";
name = Light;
shapes = (
{
closed = 1;
nodes = (
(285,712,o),
(62,526,o),
(62,275,cs),
(62,122,o),
(153,-10,o),
(309,-10,cs),
(467,-10,o),
(558,133,o),
(558,259,cs),
(558,362,o),
(497,473,o),
(372,473,cs),
(309,473,o),
(246,443,o),
(227,418,c),
(244,388,l),
(263,403,o),
(293,423,o),
(355,423,cs),
(426,423,o),
(490,359,o),
(490,230,cs),
(490,146,o),
(439,29,o),
(320,29,cs),
(187,29,o),
(134,165,o),
(138,310,cs),
(142,467,o),
(263,649,o),
(498,717,c),
(482,749,l)
);
}
);
width = 611;
},
{
layerId = "39185045-6A8C-415A-8312-7B8F11386A4C";
name = Regular;
shapes = (
{
closed = 1;
nodes = (
(285,712,o),
(62,526,o),
(62,275,cs),
(62,121,o),
(154,-10,o),
(309,-10,cs),
(468,-10,o),
(558,133,o),
(558,259,cs),
(558,362,o),
(497,473,o),
(372,473,cs),
(310,473,o),
(243,442,o),
(227,418,c),
(249,380,l),
(270,396,o),
(292,409,o),
(347,409,cs),
(415,409,o),
(467,343,o),
(467,219,cs),
(467,137,o),
(424,41,o),
(325,41,cs),
(188,41,o),
(157,181,o),
(163,326,cs),
(168,474,o),
(290,639,o),
(502,708,c),
(482,749,l)
);
}
);
width = 611;
},
{
layerId = "B26750D4-52C5-4F85-819B-BFB2F142DAD5";
name = Bold;
shapes = (
{
closed = 1;
nodes = (
(266,717,o),
(56,511,o),
(56,269,cs),
(56,108,o),
(165,-12,o),
(323,-12,cs),
(491,-12,o),
(609,95,o),
(609,259,cs),
(609,385,o),
(538,473,o),
(408,473,cs),
(350,473,o),
(277,444,o),
(253,401,c),
(276,355,l),
(293,364,o),
(313,369,o),
(337,369,cs),
(402,369,o),
(445,299,o),
(445,231,cs),
(445,141,o),
(415,60,o),
(341,60,cs),
(245,60,o),
(226,173,o),
(226,304,cs),
(226,474,o),
(376,645,o),
(541,685,c),
(502,757,l)
);
}
);
width = 658;
}
);
unicode = 54;
}
{
glyphname = seven;
layers = (
{
layerId = "E777F328-EA17-4AE7-9EBA-8002E537BA4F";
name = Light;
shapes = (
{
closed = 1;
nodes = (
(267,-154,l),
(544,594,l),
(529,612,l),
(93,612,l),
(69,453,l),
(107,449,l),
(147,553,l),
(484,562,l),
(386,320,o),
(295,90,o),
(193,-128,c)
);
}
);
width = 604;
},
{
layerId = "39185045-6A8C-415A-8312-7B8F11386A4C";
name = Regular;
shapes = (
{
closed = 1;
nodes = (
(276,-154,l),
(547,593,l),
(530,612,l),
(94,612,l),
(70,453,l),
(119,448,l),
(165,535,l),
(467,546,l),
(372,313,o),
(282,91,o),
(178,-120,c)
);
}
);
width = 604;
},
{
background = {
shapes = (
{
closed = 1;
nodes = (
(296,-164,l),
(575,581,l),
(546,612,l),
(76,612,l),
(58,407,l),
(160,405,l),
(197,517,l),
(439,530,l),
(386,410,o),
(334,299,o),
(283,194,cs),
(232,89,o),
(181,-9,o),
(128,-105,c)
);
}
);
};
layerId = "B26750D4-52C5-4F85-819B-BFB2F142DAD5";
name = Bold;
shapes = (
{
closed = 1;
nodes = (
(296,-164,l),
(575,581,l),
(546,612,l),
(76,612,l),
(58,407,l),
(160,405,l),
(197,517,l),
(439,530,l),
(347,322,o),
(232,83,o),
(128,-105,c)
);
}
);
width = 602;
}
);
unicode = 55;
}
{
glyphname = eight;
layers = (
{
background = {
shapes = (
{
closed = 1;
nodes = (
(215,758,o),
(101,699,o),
(101,573,cs),
(101,483,o),
(156,430,o),
(225,387,c),
(125,341,o),
(63,261,o),
(63,182,cs),
(63,46,o),
(195,-14,o),
(309,-14,cs),
(426,-14,o),
(554,45,o),
(552,194,cs),
(551,280,o),
(468,331,o),
(377,379,c),
(471,427,o),
(520,518,o),
(520,590,cs),
(520,690,o),
(433,758,o),
(320,758,cs)
);
},
{
closed = 1;
nodes = (
(370,308,o),
(489,267,o),
(489,167,cs),
(489,87,o),
(417,25,o),
(321,25,cs),
(203,25,o),
(131,103,o),
(131,199,cs),
(131,272,o),
(196,337,o),
(264,365,c)
);
},
{
closed = 1;
nodes = (
(403,721,o),
(461,657,o),
(459,566,cs),
(458,495,o),
(391,417,o),
(333,403,c),
(341,398,l),
(248,448,o),
(159,500,o),
(159,585,cs),
(159,663,o),
(228,721,o),
(314,721,cs)
);
}
);
};
layerId = "E777F328-EA17-4AE7-9EBA-8002E537BA4F";
name = Light;
shapes = (
{
closed = 1;
nodes = (
(215,758,o),
(101,699,o),
(101,573,cs),
(101,483,o),
(156,430,o),
(225,387,c),
(125,341,o),
(63,261,o),
(63,182,cs),
(63,46,o),
(195,-14,o),
(309,-14,cs),
(426,-14,o),
(554,45,o),
(552,194,cs),
(551,280,o),
(468,331,o),
(377,379,c),
(471,427,o),
(520,518,o),
(520,590,cs),
(520,690,o),
(433,758,o),
(320,758,cs)
);
},
{
closed = 1;
nodes = (
(370,308,o),
(489,267,o),
(489,167,cs),
(489,87,o),
(417,25,o),
(321,25,cs),
(203,25,o),
(131,103,o),
(131,199,cs),
(131,272,o),
(196,337,o),
(264,365,c)
);
},
{
closed = 1;
nodes = (
(403,721,o),
(461,657,o),
(459,566,cs),
(457,495,o),
(391,417,o),
(333,403,c),
(245,449,o),
(159,496,o),
(159,585,cs),
(159,663,o),
(228,721,o),
(314,721,cs)
);
}
);
width = 606;
},
{
layerId = "39185045-6A8C-415A-8312-7B8F11386A4C";
name = Regular;
shapes = (
{
closed = 1;
nodes = (
(212,758,o),
(101,698,o),
(101,569,cs),
(101,483,o),
(151,427,o),
(216,383,c),
(114,332,o),
(63,255,o),
(63,182,cs),
(63,46,o),
(195,-14,o),
(309,-14,cs),
(427,-14,o),
(554,50,o),
(552,197,cs),
(551,276,o),
(471,332,o),
(385,384,c),
(467,425,o),
(520,516,o),
(520,589,cs),
(520,690,o),
(432,758,o),
(320,758,cs)
);
},
{
closed = 1;
nodes = (
(361,294,o),
(467,250,o),
(467,163,cs),
(467,86,o),
(393,36,o),
(324,36,cs),
(217,36,o),
(153,113,o),
(153,205,cs),
(153,271,o),
(204,326,o),
(262,353,c)
);
},
{
closed = 1;
nodes = (
(387,711,o),
(444,649,o),
(440,558,cs),
(438,499,o),
(389,431,o),
(333,415,c),
(251,464,o),
(178,516,o),
(178,585,cs),
(178,662,o),
(247,711,o),
(315,711,cs)
);
}
);
width = 606;
},
{
layerId = "B26750D4-52C5-4F85-819B-BFB2F142DAD5";
name = Bold;
shapes = (
{
closed = 1;
nodes = (
(196,765,o),
(82,697,o),
(82,573,cs),
(82,495,o),
(134,436,o),
(208,382,c),
(116,351,o),
(48,271,o),
(48,182,cs),
(48,48,o),
(176,-12,o),
(325,-12,cs),
(467,-12,o),
(590,59,o),
(590,203,cs),
(590,289,o),
(518,351,o),
(426,413,c),
(487,436,o),
(555,518,o),
(555,587,cs),
(555,705,o),
(450,765,o),
(322,765,cs)
);
},
{
closed = 1;
nodes = (
(354,285,o),
(433,235,o),
(433,166,cs),
(433,102,o),
(395,60,o),
(333,60,cs),
(254,60,o),
(200,132,o),
(200,223,cs),
(200,268,o),
(230,309,o),
(270,339,c)
);
},
{
closed = 1;
nodes = (
(372,696,o),
(417,644,o),
(417,577,c),
(418,525,o),
(400,482,o),
(363,455,c),
(292,503,o),
(226,552,o),
(226,612,cs),
(226,662,o),
(267,696,o),
(314,696,cs)
);
}
);
width = 633;
}
);
unicode = 56;
}
{
glyphname = nine;
layers = (
{
layerId = "E777F328-EA17-4AE7-9EBA-8002E537BA4F";
name = Light;
shapes = (
{
closed = 1;
nodes = (
(134,-198,l),
(335,-161,o),
(547,65,o),
(547,327,cs),
(547,478,o),
(466,612,o),
(309,612,cs),
(150,612,o),
(60,469,o),
(60,343,cs),
(60,240,o),
(122,129,o),
(246,129,cs),
(308,129,o),
(366,155,o),
(391,184,c),
(374,214,l),
(357,200,o),
(316,179,o),
(262,179,cs),
(190,179,o),
(127,248,o),
(127,373,cs),
(127,455,o),
(178,573,o),
(297,573,cs),
(434,573,o),
(474,441,o),
(473,293,cs),
(471,130,o),
(349,-98,o),
(120,-165,c)
);
}
);
width = 615;
},
{
layerId = "39185045-6A8C-415A-8312-7B8F11386A4C";
name = Regular;
shapes = (
{
closed = 1;
nodes = (
(134,-198,l),
(332,-161,o),
(547,61,o),
(547,327,cs),
(547,479,o),
(464,612,o),
(309,612,cs),
(150,612,o),
(60,469,o),
(60,343,cs),
(60,240,o),
(121,129,o),
(246,129,cs),
(308,129,o),
(366,155,o),
(391,184,c),
(369,222,l),
(353,208,o),
(313,193,o),
(271,193,cs),
(203,193,o),
(150,259,o),
(150,383,cs),
(150,465,o),
(193,562,o),
(292,562,cs),
(429,562,o),
(453,421,o),
(447,276,cs),
(441,119,o),
(328,-87,o),
(116,-156,c)
);
}
);
width = 615;
},
{
layerId = "B26750D4-52C5-4F85-819B-BFB2F142DAD5";
name = Bold;
shapes = (
{
closed = 1;
nodes = (
(175,-200,l),
(403,-160,o),
(598,88,o),
(598,332,cs),
(598,490,o),
(493,612,o),
(330,612,cs),
(161,612,o),
(44,506,o),
(44,341,cs),
(44,217,o),
(116,128,o),
(245,128,cs),
(309,128,o),
(373,149,o),
(400,199,c),
(377,246,l),
(360,236,o),
(340,232,o),
(316,232,cs),
(252,232,o),
(208,302,o),
(208,369,cs),
(208,459,o),
(239,541,o),
(313,541,cs),
(408,541,o),
(427,427,o),
(427,297,cs),
(427,124,o),
(293,-89,o),
(137,-127,c)
);
}
);
width = 650;
}
);
unicode = 57;
}
{
glyphname = colon;
layers = (
{
layerId = "E777F328-EA17-4AE7-9EBA-8002E537BA4F";
name = Light;
shapes = (
{
closed = 1;
nodes = (
(149,482,o),
(121,466,o),
(117,438,cs),
(112,413,o),
(128,394,o),
(150,391,cs),
(174,388,o),
(202,403,o),
(206,433,cs),
(210,455,o),
(201,476,o),
(172,480,cs)
);
},
{
closed = 1;
nodes = (
(149,87,o),
(121,70,o),
(117,42,cs),
(112,17,o),
(128,-1,o),
(150,-5,c),
(174,-7,o),
(202,7,o),
(206,37,c),
(210,60,o),
(201,81,o),
(172,84,cs)
);
}
);
width = 345;
},
{
layerId = "39185045-6A8C-415A-8312-7B8F11386A4C";
name = Regular;
shapes = (
{
closed = 1;
nodes = (
(143,516,o),
(105,486,o),
(105,445,cs),
(105,407,o),
(135,385,o),
(167,385,cs),
(203,385,o),
(240,413,o),
(240,456,cs),
(240,489,o),
(221,516,o),
(178,516,cs)
);
},
{
closed = 1;
nodes = (
(143,121,o),
(105,90,o),
(105,49,cs),
(105,12,o),
(135,-11,o),
(167,-11,cs),
(203,-11,o),
(240,17,o),
(240,60,cs),
(240,93,o),
(221,121,o),
(178,121,cs)
);
}
);
width = 345;
},
{
layerId = "B26750D4-52C5-4F85-819B-BFB2F142DAD5";
name = Bold;
shapes = (
{
closed = 1;
nodes = (
(146,544,o),
(87,492,o),
(87,434,cs),
(87,380,o),
(134,343,o),
(187,343,cs),
(247,343,o),
(305,386,o),
(305,450,cs),
(305,507,o),
(268,544,o),
(204,544,cs)
);
},
{
closed = 1;
nodes = (
(146,184,o),
(87,130,o),
(87,73,cs),
(87,19,o),
(134,-18,o),
(187,-18,cs),
(246,-18,o),
(305,24,o),
(305,89,cs),
(305,146,o),
(268,184,o),
(204,184,cs)
);
}
);
width = 392;
}
);
unicode = 58;
}
{
glyphname = semicolon;
layers = (
{
layerId = "E777F328-EA17-4AE7-9EBA-8002E537BA4F";
name = Light;
shapes = (
{
closed = 1;
nodes = (
(113,85,l),
(113,67,l),
(150,62,o),
(186,17,o),
(186,-43,cs),
(186,-117,o),
(132,-183,o),
(86,-199,c),
(86,-210,l),
(103,-232,l),
(173,-203,o),
(255,-125,o),
(254,-14,c),
(254,42,o),
(223,119,o),
(153,136,c)
);
},
{
closed = 1;
nodes = (
(139,480,o),
(112,460,o),
(112,429,cs),
(112,407,o),
(131,391,o),
(151,391,cs),
(178,391,o),
(203,409,o),
(203,443,cs),
(203,463,o),
(192,480,o),
(163,480,cs)
);
}
);
width = 345;
},
{
layerId = "39185045-6A8C-415A-8312-7B8F11386A4C";
name = Regular;
shapes = (
{
closed = 1;
nodes = (
(115,65,l),
(115,43,l),
(152,40,o),
(185,-10,o),
(185,-59,cs),
(185,-121,o),
(144,-186,o),
(97,-201,c),
(97,-214,l),
(120,-243,l),
(196,-212,o),
(275,-132,o),
(275,-21,cs),
(275,32,o),
(247,117,o),
(169,136,c)
);
},
{
closed = 1;
nodes = (
(143,516,o),
(105,486,o),
(105,445,cs),
(105,407,o),
(135,385,o),
(167,385,cs),
(203,385,o),
(240,413,o),
(240,456,cs),
(240,489,o),
(221,516,o),
(178,516,cs)
);
}
);
width = 345;
},
{
layerId = "B26750D4-52C5-4F85-819B-BFB2F142DAD5";
name = Bold;
shapes = (
{
closed = 1;
nodes = (
(104,32,l),
(104,-7,l),
(148,-11,o),
(187,-55,o),
(187,-99,cs),
(187,-158,o),
(156,-208,o),
(103,-230,c),
(103,-257,l),
(141,-291,l),
(249,-256,o),
(329,-159,o),
(331,-38,cs),
(333,50,o),
(285,129,o),
(203,158,c)
);
},
{
closed = 1;
nodes = (
(149,544,o),
(88,495,o),
(88,434,cs),
(88,380,o),
(134,343,o),
(187,343,cs),
(247,343,o),
(305,385,o),
(305,450,cs),
(305,508,o),
(269,544,o),
(204,544,cs)
);
}
);
width = 404;
}
);
unicode = 59;
}
{
glyphname = less;
layers = (
{
layerId = "E777F328-EA17-4AE7-9EBA-8002E537BA4F";
name = Light;
shapes = (
{
closed = 1;
nodes = (
(67,342,l),
(541,91,l),
(541,159,l),
(131,367,l),
(541,576,l),
(541,643,l),
(67,392,l)
);
}
);
width = 641;
},
{
layerId = "39185045-6A8C-415A-8312-7B8F11386A4C";
name = Regular;
shapes = (
{
closed = 1;
nodes = (
(63,334,l),
(536,93,l),
(536,183,l),
(146,367,l),
(536,552,l),
(536,641,l),
(63,399,l)
);
}
);
width = 647;
},
{
layerId = "B26750D4-52C5-4F85-819B-BFB2F142DAD5";
name = Bold;
shapes = (
{
closed = 1;
nodes = (
(89,343,l),
(563,106,l),
(563,254,l),
(272,375,l),
(563,511,l),
(563,654,l),
(89,409,l)
);
}
);
width = 652;
}
);
unicode = 60;
}
{
glyphname = equal;
layers = (
{
layerId = "E777F328-EA17-4AE7-9EBA-8002E537BA4F";
name = Light;
shapes = (
{
closed = 1;
nodes = (
(84,460,l),
(516,460,l),
(516,514,l),
(84,514,l)
);
},
{
closed = 1;
nodes = (
(84,261,l),
(516,261,l),
(516,315,l),
(84,315,l)
);
}
);
width = 600;
},
{
layerId = "39185045-6A8C-415A-8312-7B8F11386A4C";
name = Regular;
shapes = (
{
closed = 1;
nodes = (
(87,446,l),
(519,446,l),
(519,518,l),
(87,518,l)
);
},
{
closed = 1;
nodes = (
(87,256,l),
(519,256,l),
(519,328,l),
(87,328,l)
);
}
);
width = 606;
},
{
layerId = "B26750D4-52C5-4F85-819B-BFB2F142DAD5";
name = Bold;
shapes = (
{
closed = 1;
nodes = (
(89,478,l),
(555,478,l),
(555,591,l),
(89,591,ls)
);
},
{
closed = 1;
nodes = (
(89,210,l),
(555,210,l),
(555,323,l),
(89,323,l)
);
}
);
width = 645;
}
);
unicode = 61;
}
{
glyphname = question;
layers = (
{
background = {
shapes = (
{
closed = 1;
nodes = (
(117,896,o),
(72,885,o),
(63,874,c),
(63,817,l),
(83,826,o),
(119,831,o),
(146,831,cs),
(283,831,o),
(397,722,o),
(397,590,cs),
(397.107,587.948,o),
(397,585,o),
(397,583,c),
(387,519,o),
(145,485,o),
(145,406,c),
(143,354,o),
(197,262,o),
(224,239,c),
(265,239,l),
(242,293,o),
(208,352,o),
(215,408,c),
(227,450,o),
(340,480,o),
(405,523,cs),
(447,550,o),
(453,567,o),
(453,615,cs),
(451,745,o),
(364,896,o),
(155,896,cs)
);
},
{
closed = 1;
nodes = (
(256,87,o),
(228,70,o),
(224,42,cs),
(220,17,o),
(236,-1,o),
(257,-5,c),
(282,-7,o),
(310,7,o),
(313,37,c),
(317,60,o),
(308,81,o),
(280,84,cs)
);
}
);
};
layerId = "E777F328-EA17-4AE7-9EBA-8002E537BA4F";
name = Light;
shapes = (
{
closed = 1;
nodes = (
(117,896,o),
(72,885,o),
(63,874,c),
(63,817,l),
(83,826,o),
(119,831,o),
(146,831,cs),
(283,831,o),
(397,722,o),
(397,590,cs),
(398,578,o),
(392,566,o),
(376,554,cs),
(315,507,o),
(145,472,o),
(145,406,c),
(145,351,o),
(197,262,o),
(224,239,c),
(265,239,l),
(242,289,o),
(214,344,o),
(214,396,c),
(214,450,o),
(336,476,o),
(405,523,c),
(446.978,549.986,o),
(453,567,o),
(453,615,cs),
(451,745,o),
(364,896,o),
(155,896,cs)
);
},
{
closed = 1;
nodes = (
(250,84,o),
(223,64,o),
(223,33,cs),
(223,11,o),
(242,-5,o),
(262,-5,cs),
(289,-5,o),
(314,13,o),
(314,47,cs),
(314,67,o),
(303,84,o),
(274,84,cs)
);
}
);
width = 494;
},
{
background = {
shapes = (
{
closed = 1;
nodes = (
(117,896,o),
(74,887,o),
(63,874,c),
(63,799,l),
(82,807,o),
(119,810,o),
(144,810,cs),
(271,810,o),
(387,699,o),
(379,571,c),
(364,523,o),
(137,487,o),
(141,405,cs),
(145,351,o),
(199,263,o),
(230,239,c),
(282,239,l),
(259,299,o),
(227,356,o),
(235,410,c),
(254,471,o),
(451,506,o),
(451,578,c),
(469,705,o),
(400,896,o),
(156,896,cs)
);
},
{
closed = 1;
nodes = (
(236,121,o),
(198,90,o),
(198,49,cs),
(198,12,o),
(228,-11,o),
(260,-11,cs),
(296,-11,o),
(333,17,o),
(333,60,cs),
(333,93,o),
(314,121,o),
(271,121,cs)
);
}
);
};
layerId = "39185045-6A8C-415A-8312-7B8F11386A4C";
name = Regular;
shapes = (
{
closed = 1;
nodes = (
(117,896,o),
(74,887,o),
(63,874,c),
(63,799,l),
(82,807,o),
(119,810,o),
(144,810,cs),
(269,810,o),
(383,703,o),
(379,578,cs),
(379,561,o),
(368,554,o),
(343,541,cs),
(277,506,o),
(143,470,o),
(141,409,cs),
(141,364,o),
(194,267,o),
(230,239,c),
(282,239,l),
(260,294,o),
(234,346,o),
(234,396,cs),
(234,446,o),
(323,472,o),
(394,513,cs),
(451,546,o),
(454,564,o),
(454,617,cs),
(454,738,o),
(377,896,o),
(156,896,cs)
);
},
{
closed = 1;
nodes = (
(236,121,o),
(198,90,o),
(198,49,cs),
(198,12,o),
(228,-11,o),
(260,-11,cs),
(296,-11,o),
(333,17,o),
(333,60,cs),
(333,93,o),
(314,121,o),
(271,121,cs)
);
}
);
width = 494;
},
{
background = {
shapes = (
{
closed = 1;
nodes = (
(131,909,o),
(103,907,o),
(80,902,cs),
(56,897,o),
(38,890,o),
(33,884,c),
(41,751,l),
(58,765,o),
(91,770,o),
(152,767,cs),
(171,767,o),
(201,761,o),
(232,750,cs),
(263,738,o),
(295,720,o),
(321,691,cs),
(346,663,o),
(364,625,o),
(367,575,c),
(365,569,o),
(360,563,o),
(351,559,c),
(333,549,o),
(307,541,o),
(275,531,cs),
(259,527,o),
(243,522,o),
(226,517,cs),
(193,506,o),
(161,494,o),
(136,478,cs),
(112,462,o),
(96,442,o),
(96,417,cs),
(96,398,o),
(102,375,o),
(115,348,cs),
(128,322,o),
(148,293,o),
(177,265,c),
(299,265,l),
(297,269,o),
(293,275,o),
(290,284,cs),
(281,300,o),
(272,321,o),
(264,344,cs),
(256,367,o),
(251,389,o),
(251,406,cs),
(251,414,o),
(253,420,o),
(257,425,c),
(263,433,o),
(272,440,o),
(284,447,cs),
(307,461,o),
(333,474,o),
(361,486,cs),
(375,492,o),
(388,498,o),
(400,503,cs),
(424,514,o),
(442,523,o),
(448,533,c),
(458,555,o),
(465,589,o),
(465,627,cs),
(464,666,o),
(456,708,o),
(437,749,cs),
(417,790,o),
(387,828,o),
(341,857,cs),
(295,886,o),
(235,905,o),
(155,909,cs)
);
},
{
closed = 1;
nodes = (
(253,186,o),
(225,174,o),
(202,154,cs),
(180,134,o),
(164,106,o),
(164,75,cs),
(164,46,o),
(176,23,o),
(195,8,cs),
(213,-7,o),
(238,-16,o),
(263,-16,cs),
(292,-16,o),
(321,-5,o),
(344,13,cs),
(366,32,o),
(381,58,o),
(381,91,cs),
(381,117,o),
(373,141,o),
(356,158,cs),
(340,175,o),
(314,186,o),
(280,186,cs)
);
}
);
};
layerId = "B26750D4-52C5-4F85-819B-BFB2F142DAD5";
name = Bold;
shapes = (
{
closed = 1;
nodes = (
(118,909,o),
(47,901,o),
(33,884,c),
(41,751,l),
(55,762,o),
(79,768,o),
(121,768,cs),
(294,767,o),
(367,660,o),
(367,576,cs),
(367,566,o),
(352,558,o),
(330,549,cs),
(255,522,o),
(96,496,o),
(96,417,cs),
(96,367,o),
(135,305,o),
(177,265,c),
(299,265,l),
(277,309,o),
(251,365,o),
(251,406,cs),
(251,441,o),
(308,460,o),
(400,503,cs),
(450,526,o),
(465,553,o),
(465,627,cs),
(465,795,o),
(339,900,o),
(155,909,cs)
);
},
{
closed = 1;
nodes = (
(225,186,o),
(164,136,o),
(164,75,cs),
(164,20,o),
(210,-16,o),
(263,-16,cs),
(322,-16,o),
(381,27,o),
(381,91,cs),
(381,148,o),
(344,186,o),
(280,186,cs)
);
}
);
width = 519;
}
);
unicode = 63;
}
{
glyphname = at;
layers = (
{
layerId = "E777F328-EA17-4AE7-9EBA-8002E537BA4F";
name = Light;
shapes = (
{
closed = 1;
nodes = (
(339,702,o),
(115,507,o),
(115,202,cs),
(115,-34,o),
(277,-185,o),
(500,-185,cs),
(584,-185,o),
(680,-161,o),
(724,-127,c),
(710,-95,l),
(675,-113,o),
(601,-134,o),
(527,-134,cs),
(343,-134,o),
(170,-35,o),
(170,225,cs),
(170,498,o),
(357,654,o),
(564,654,cs),
(728,654,o),
(875,572,o),
(875,369,cs),
(875,188,o),
(765,64,o),
(694,64,cs),
(679,64,o),
(675,121,o),
(683,190,cs),
(693,283,o),
(711,423,o),
(729,493,c),
(715,498,o),
(700,502,o),
(686,507,c),
(675,509,o),
(670,499,o),
(665,483,c),
(631,501,o),
(569,515,o),
(524,515,cs),
(382,515,o),
(301,335,o),
(301,210,cs),
(301,86,o),
(365,12,o),
(425,12,cs),
(511,12,o),
(595,147,o),
(640,280,c),
(629,213,o),
(621,157,o),
(619,120,c),
(619,53,o),
(636,19,o),
(664,19,cs),
(772,19,o),
(928,128,o),
(928,396,cs),
(928,588,o),
(780,702,o),
(593,702,cs)
);
},
{
closed = 1;
nodes = (
(563,460,o),
(628,443,o),
(650,424,c),
(626,289,o),
(515,74,o),
(439,74,cs),
(383,74,o),
(360,167,o),
(360,237,cs),
(360,346,o),
(412,460,o),
(523,460,cs)
);
}
);
width = 1042;
},
{
layerId = "39185045-6A8C-415A-8312-7B8F11386A4C";
name = Regular;
shapes = (
{
closed = 1;
nodes = (
(340,702,o),
(115,508,o),
(115,203,cs),
(115,-35,o),
(278,-185,o),
(500,-185,cs),
(584,-185,o),
(682,-162,o),
(725,-128,c),
(707,-86,l),
(674,-102,o),
(595,-118,o),
(538,-118,cs),
(349,-118,o),
(187,-26,o),
(187,235,cs),
(187,498,o),
(361,638,o),
(555,638,cs),
(708,638,o),
(860,568,o),
(860,359,cs),
(860,201,o),
(759,76,o),
(702,76,cs),
(687,76,o),
(679,125,o),
(687,194,cs),
(697,287,o),
(712,422,o),
(728,493,c),
(707,500,o),
(688,506,o),
(670,512,c),
(658,515,o),
(652,501,o),
(648,490,c),
(615,508,o),
(556,515,o),
(523,515,cs),
(383,515,o),
(301,335,o),
(301,210,cs),
(301,86,o),
(365,12,o),
(425,12,cs),
(501,12,o),
(574,122,o),
(616,227,c),
(604,159,o),
(602,121,o),
(605,95,cs),
(610,39,o),
(634,19,o),
(664,19,cs),
(772,19,o),
(928,128,o),
(928,396,cs),
(928,587,o),
(781,702,o),
(594,702,cs)
);
},
{
closed = 1;
nodes = (
(556,443,o),
(609,432,o),
(629,411,c),
(616,299,o),
(510,94,o),
(446,94,cs),
(386,94,o),
(378,198,o),
(378,247,cs),
(378,351,o),
(417,443,o),
(525,443,cs)
);
}
);
width = 1042;
},
{
background = {
shapes = (
{
closed = 1;
nodes = (
(548,714,o),
(457,691,o),
(374,650,cs),
(290,608,o),
(213,547,o),
(158,469,cs),
(103,391,o),
(68,295,o),
(68,186,cs),
(68,69,o),
(115,-23,o),
(198,-86,cs),
(280,-150,o),
(398,-185,o),
(542,-185,cs),
(656,-185,o),
(744,-163,o),
(792,-128,c),
(760,-65,l),
(747,-74,o),
(713,-83,o),
(676,-91,cs),
(639,-99,o),
(596,-105,o),
(561,-105,cs),
(501,-105,o),
(443,-97,o),
(391,-75,cs),
(339,-54,o),
(294,-20,o),
(263,32,cs),
(231,83,o),
(212,150,o),
(212,240,cs),
(212,320,o),
(236,392,o),
(273,450,cs),
(311,509,o),
(363,556,o),
(418,587,cs),
(474,619,o),
(534,636,o),
(587,636,cs),
(647,636,o),
(705,629,o),
(755,612,cs),
(806,595,o),
(849,567,o),
(879,526,cs),
(909,485,o),
(927,429,o),
(927,356,cs),
(927,318,o),
(918,277,o),
(905,240,cs),
(892,203,o),
(874,170,o),
(854,145,cs),
(835,120,o),
(815,105,o),
(799,105,cs),
(798,105,o),
(796,107,o),
(794,112,c),
(792,116,o),
(791,124,o),
(790,135,cs),
(788,145,o),
(788,159,o),
(788,176,cs),
(788,193,o),
(789,215,o),
(791,240,cs),
(795,287,o),
(801,330,o),
(809,369,cs),
(816,408,o),
(822,446,o),
(828,482,c),
(808,488,o),
(788,495,o),
(770,501,cs),
(752,507,o),
(732,513,o),
(712,519,cs),
(698,522,o),
(689,510,o),
(682,493,c),
(660,501,o),
(642,508,o),
(621,513,cs),
(599,517,o),
(576,519,o),
(546,517,cs),
(511,514,o),
(473,498,o),
(438,471,cs),
(403,444,o),
(372,406,o),
(349,358,cs),
(325,310,o),
(311,253,o),
(311,188,cs),
(311,134,o),
(333,89,o),
(365,59,cs),
(397,27,o),
(438,10,o),
(477,12,cs),
(518,14,o),
(556,38,o),
(588,73,cs),
(620,107,o),
(646,151,o),
(666,194,c),
(662,162,o),
(659,131,o),
(659,120,cs),
(659,89,o),
(663,63,o),
(675,45,cs),
(688,26,o),
(709,16,o),
(746,18,cs),
(799,21,o),
(851,42,o),
(896,74,cs),
(942,106,o),
(981,151,o),
(1009,207,cs),
(1036,262,o),
(1053,327,o),
(1053,399,cs),
(1053,450,o),
(1041,502,o),
(1014,549,cs),
(986,595,o),
(943,637,o),
(881,667,cs),
(818,696,o),
(737,714,o),
(632,714,cs)
);
},
{
closed = 1;
nodes = (
(577,421,o),
(594,418,o),
(610,415,c),
(626,411,o),
(642,406,o),
(649,402,c),
(646,380,o),
(641,357,o),
(633,335,cs),
(619,290,o),
(600,248,o),
(579,211,cs),
(557,175,o),
(537,148,o),
(521,132,cs),
(512,125,o),
(505,121,o),
(500,121,cs),
(483,121,o),
(471,136,o),
(464,160,cs),
(456,183,o),
(453,214,o),
(453,245,cs),
(453,308,o),
(466,352,o),
(488,380,cs),
(509,408,o),
(538,421,o),
(567,421,cs)
);
}
);
};
layerId = "B26750D4-52C5-4F85-819B-BFB2F142DAD5";
name = Bold;
shapes = (
{
closed = 1;
nodes = (
(340,714,o),
(68,481,o),
(68,186,cs),
(68,-58,o),
(272,-185,o),
(542,-185,cs),
(656,-185,o),
(744,-163,o),
(792,-128,c),
(760,-65,l),
(733,-84,o),
(614,-105,o),
(561,-105,cs),
(338,-105,o),
(212,11,o),
(212,240,cs),
(212,445,o),
(389,636,o),
(587,636,cs),
(791,636,o),
(927,558,o),
(927,356,cs),
(927,235,o),
(847,105,o),
(799,105,cs),
(790,105,o),
(788,155,o),
(788,176,cs),
(788,258,o),
(804,336,o),
(828,482,c),
(786,496,o),
(762,504,o),
(712,519,cs),
(698,523,o),
(689,510,o),
(682,493,c),
(641,509,o),
(614,518,o),
(569,518,cs),
(428,518,o),
(311,368,o),
(311,188,cs),
(311,93,o),
(389,7,o),
(477,12,cs),
(558,16,o),
(625,105,o),
(666,194,c),
(662,162,o),
(659,131,o),
(659,120,cs),
(659,50,o),
(680,14,o),
(746,18,cs),
(921,28,o),
(1053,206,o),
(1053,399,cs),
(1053,614,o),
(868,714,o),
(632,714,cs)
);
},
{
closed = 1;
nodes = (
(582,421,o),
(632,412,o),
(649,402,c),
(637,293,o),
(537,121,o),
(500,121,cs),
(463,121,o),
(453,192,o),
(453,245,cs),
(453,339,o),
(488,421,o),
(567,421,cs)
);
}
);
width = 1114;
}
);
unicode = 64;
}
{
color = 4;
glyphname = A;
layers = (
{
anchors = (
{
name = bottom;
pos = (365,0);
},
{
name = ogonek;
pos = (656,10);
},
{
name = top;
pos = (365,758);
}
);
layerId = "E777F328-EA17-4AE7-9EBA-8002E537BA4F";
name = Light;
shapes = (
{
closed = 1;
nodes = (
(1,0,l),
(221,0,l),
(221,33,l),
(136,44,l),
(197,222,l),
(512,222,l),
(574,44,l),
(492,33,l),
(492,0,l),
(730,0,l),
(730,33,l),
(649,44,l),
(394,762,l),
(335,762,l),
(72,44,l),
(1,33,l)
);
},
{
closed = 1;
nodes = (
(212,267,l),
(356,680,l),
(392,566,l),
(497,267,l)
);
}
);
width = 729;
},
{
anchors = (
{
name = bottom;
pos = (365,0);
},
{
name = ogonek;
pos = (656,10);
},
{
name = top;
pos = (365,758);
}
);
layerId = "39185045-6A8C-415A-8312-7B8F11386A4C";
name = Regular;
shapes = (
{
closed = 1;
nodes = (
(1,0,l),
(234,0,l),
(234,42,l),
(153,56,l),
(206,213,l),
(499,213,l),
(551,56,l),
(470,42,l),
(470,0,l),
(728,0,l),
(728,42,l),
(650,56,l),
(407,758,l),
(325,758,l),
(71,56,l),
(1,42,l)
);
},
{
closed = 1;
nodes = (
(225,271,l),
(354,656,l),
(400,509,l),
(479,271,l)
);
}
);
width = 729;
},
{
anchors = (
{
name = bottom;
pos = (391,0);
},
{
name = ogonek;
pos = (703,10);
},
{
name = top;
pos = (391,758);
}
);
layerId = "B26750D4-52C5-4F85-819B-BFB2F142DAD5";
name = Bold;
shapes = (
{
closed = 1;
nodes = (
(2,0,l),
(276,0,l),
(276,68,l),
(203,91,l),
(225,164,l),
(489,164,l),
(510,89,l),
(445,67,l),
(445,0,l),
(779,0,l),
(779,67,l),
(705,87,l),
(471,758,l),
(308,758,l),
(67,88,l),
(2,68,l)
);
},
{
closed = 1;
nodes = (
(253,254,l),
(362,612,l),
(398,478,l),
(463,254,l)
);
}
);
width = 781;
}
);
unicode = 65;
}
{
color = 4;
glyphname = B;
layers = (
{
anchors = (
{
name = bottom;
pos = (347,0);
},
{
name = center;
pos = (173,190);
},
{
name = top;
pos = (347,758);
}
);
layerId = "E777F328-EA17-4AE7-9EBA-8002E537BA4F";
name = Light;
shapes = (
{
closed = 1;
nodes = (
(52,0,l),
(172,0,l),
(210,-1,o),
(276,-7,o),
(332,-7,cs),
(546,-7,o),
(647,89,o),
(647,224,cs),
(647,337,o),
(556,404,o),
(449,404,c),
(552,425,o),
(598,505,o),
(598,594,cs),
(598,699,o),
(515,765,o),
(360,765,cs),
(282,765,o),
(230,760,o),
(171,758,cs),
(54,758,l),
(54,721,l),
(139,714,l),
(139,45,l),
(52,33,l)
);
},
{
closed = 1;
nodes = (
(211,717,l),
(239,723,o),
(306,724,o),
(345,724,cs),
(444,724,o),
(529,684,o),
(529,581,cs),
(529,467,o),
(452,418,o),
(356,418,cs),
(324,418,o),
(246,416,o),
(210,421,c)
);
},
{
closed = 1;
nodes = (
(211,371,l),
(248,374,o),
(326,373,o),
(372,373,cs),
(488,373,o),
(572,331,o),
(572,209,cs),
(572,73,o),
(459,35,o),
(349,35,cs),
(308,35,o),
(234,42,o),
(211,50,c)
);
}
);
width = 693;
},
{
anchors = (
{
name = bottom;
pos = (347,0);
},
{
name = center;
pos = (173,190);
},
{
name = top;
pos = (347,758);
}
);
layerId = "39185045-6A8C-415A-8312-7B8F11386A4C";
name = Regular;
shapes = (
{
closed = 1;
nodes = (
(52,0,l),
(176,0,l),
(210,-2,o),
(275,-7,o),
(331,-7,cs),
(545,-7,o),
(647,91,o),
(647,223,cs),
(647,333,o),
(562,406,o),
(455,408,c),
(553,430,o),
(598,504,o),
(598,594,cs),
(598,699,o),
(514,764,o),
(357,765,cs),
(278,766,o),
(220,760,o),
(177,758,cs),
(54,758,l),
(54,710,l),
(134,702,l),
(134,56,l),
(52,42,l)
);
},
{
closed = 1;
nodes = (
(230,706,l),
(252,715,o),
(313,713,o),
(337,713,cs),
(435,713,o),
(508,667,o),
(508,576,cs),
(508,477,o),
(446,426,o),
(347,426,cs),
(314,426,o),
(262,423,o),
(229,429,c)
);
},
{
closed = 1;
nodes = (
(229,364,l),
(265,368,o),
(316,366,o),
(362,366,cs),
(484,366,o),
(546,317,o),
(546,204,cs),
(546,88,o),
(460,47,o),
(353,47,cs),
(312,47,o),
(247,55,o),
(229,66,c)
);
}
);
width = 693;
},
{
anchors = (
{
name = bottom;
pos = (356,0);
},
{
name = center;
pos = (178,190);
},
{
name = top;
pos = (356,758);
}
);
background = {
shapes = (
{
closed = 1;
nodes = (
(323,333,l),
(343,339,o),
(357,340,o),
(374,340,cs),
(460,340,o),
(505,305,o),
(505,222,cs),
(505,130,o),
(480,77,o),
(385,77,cs),
(364,77,o),
(342,77,o),
(322,81,c)
);
}
);
};
layerId = "B26750D4-52C5-4F85-819B-BFB2F142DAD5";
name = Bold;
shapes = (
{
closed = 1;
nodes = (
(39,0,l),
(149,0,ls),
(232,0,o),
(278,-5,o),
(342,-5,cs),
(550,-5,o),
(689,45,o),
(689,227,cs),
(689,322,o),
(610,409,o),
(509,409,c),
(588,430,o),
(637,495,o),
(637,584,cs),
(637,718,o),
(522,765,o),
(364,765,cs),
(324,765,o),
(241,758,o),
(193,758,c),
(41,758,l),
(41,678,l),
(115,667,l),
(115,89,l),
(39,68,l)
);
},
{
closed = 1;
nodes = (
(289,683,l),
(309,689,o),
(323,690,o),
(340,690,cs),
(426,690,o),
(471,655,o),
(471,572,cs),
(471,480,o),
(446,427,o),
(351,427,cs),
(330,427,o),
(308,427,o),
(288,431,c)
);
},
{
closed = 1;
nodes = (
(287,348,l),
(318,354,o),
(351,354,o),
(380,354,cs),
(451,354,o),
(507,301,o),
(507,219,cs),
(507,137,o),
(470,67,o),
(387,67,cs),
(342,67,o),
(303,72,o),
(287,80,c)
);
}
);
width = 711;
}
);
unicode = 66;
}
{
color = 4;
glyphname = C;
layers = (
{
anchors = (
{
name = bottom;
pos = (344,0);
},
{
name = top;
pos = (436,758);
}
);
layerId = "E777F328-EA17-4AE7-9EBA-8002E537BA4F";
name = Light;
shapes = (
{
closed = 1;
nodes = (
(227,765,o),
(42,605,o),
(42,357,cs),
(42,140,o),
(190,-14,o),
(392,-14,cs),
(531,-14,o),
(593,28,o),
(640,31,c),
(640,164,l),
(606,164,l),
(585,81,l),
(556,50,o),
(494,27,o),
(414,27,cs),
(221,25,o),
(117,189,o),
(117,380,cs),
(117,599,o),
(262,722,o),
(415,722,cs),
(483,722,o),
(533,709,o),
(574,684,c),
(592,596,l),
(632,596,l),
(639,730,l),
(596,740,o),
(530,765,o),
(436,765,cs)
);
}
);
width = 688;
},
{
anchors = (
{
name = bottom;
pos = (344,0);
},
{
name = top;
pos = (434,758);
}
);
layerId = "39185045-6A8C-415A-8312-7B8F11386A4C";
name = Regular;
shapes = (
{
closed = 1;
nodes = (
(227,765,o),
(42,605,o),
(42,354,cs),
(42,137,o),
(189,-14,o),
(391,-14,cs),
(530,-14,o),
(593,28,o),
(640,31,c),
(640,171,l),
(598,171,l),
(570,96,l),
(541,59,o),
(492,38,o),
(414,38,cs),
(235,38,o),
(142,199,o),
(142,384,cs),
(142,591,o),
(266,708,o),
(405,708,cs),
(473,708,o),
(512,698,o),
(554,670,c),
(580,589,l),
(631,589,l),
(639,730,l),
(597,740,o),
(529,765,o),
(436,765,cs)
);
}
);
width = 688;
},
{
anchors = (
{
name = bottom;
pos = (360,0);
},
{
name = top;
pos = (459,758);
}
);
background = {
shapes = (
{
closed = 1;
nodes = (
(512,765,o),
(553,759,o),
(587,753,cs),
(604,750,o),
(619,746,o),
(633,743,cs),
(646,739,o),
(659,736,o),
(670,734,c),
(660,544,l),
(558,544,l),
(522,644,l),
(516,654,o),
(507,661,o),
(491,667,cs),
(476,672,o),
(452,675,o),
(417,675,cs),
(362,675,o),
(315,650,o),
(281,603,cs),
(247,556,o),
(226,487,o),
(226,398,cs),
(226,342,o),
(234,287,o),
(250,238,cs),
(265,189,o),
(287,147,o),
(317,118,cs),
(347,88,o),
(384,70,o),
(428,70,cs),
(469,70,o),
(496,74,o),
(514,82,cs),
(532,89,o),
(541,99,o),
(545,109,cs),
(585,207,l),
(670,207,l),
(670,33,l),
(658,32,o),
(645,29,o),
(631,24,cs),
(603,15,o),
(564,3,o),
(511,-6,cs),
(484,-11,o),
(453,-14,o),
(416,-14,cs),
(291,-14,o),
(195,27,o),
(131,93,cs),
(66,160,o),
(33,251,o),
(33,354,cs),
(33,438,o),
(57,512,o),
(96,573,cs),
(135,633,o),
(190,682,o),
(253,715,cs),
(317,748,o),
(389,765,o),
(463,765,cs)
);
}
);
};
layerId = "B26750D4-52C5-4F85-819B-BFB2F142DAD5";
name = Bold;
shapes = (
{
closed = 1;
nodes = (
(221,765,o),
(33,587,o),
(33,354,cs),
(33,129,o),
(186,-14,o),
(416,-14,cs),
(549,-14,o),
(641,33,o),
(670,33,c),
(670,207,l),
(585,207,l),
(545,109,ls),
(531,76,o),
(478,70,o),
(428,70,cs),
(295,70,o),
(226,235,o),
(226,398,cs),
(226,549,o),
(291,675,o),
(417,675,cs),
(501,675,o),
(516,654,o),
(522,644,c),
(558,544,l),
(660,544,l),
(670,734,l),
(648,738,o),
(564,765,o),
(463,765,cs)
);
}
);
width = 720;
}
);
unicode = 67;
}
{
color = 4;
glyphname = D;
layers = (
{
anchors = (
{
name = bottom;
pos = (389,0);
},
{
name = center;
pos = (195,379);
},
{
name = top;
pos = (389,758);
}
);
layerId = "E777F328-EA17-4AE7-9EBA-8002E537BA4F";
name = Light;
shapes = (
{
closed = 1;
nodes = (
(52,0,l),
(82,0,o),
(146,0,o),
(176,0,cs),
(229,0,o),
(291,-5,o),
(338,-5,cs),
(569,-9,o),
(732,144,o),
(732,399,cs),
(732,629,o),
(610,766,o),
(363,765,cs),
(302,765,o),
(251,758,o),
(175,758,cs),
(54,758,l),
(54,721,l),
(140,713,l),
(140,45,l),
(52,33,l)
);
},
{
closed = 1;
nodes = (
(212,713,l),
(244,718,o),
(288,721,o),
(341,722,cs),
(541,728,o),
(657,611,o),
(657,379,cs),
(657,144,o),
(514,40,o),
(348,37,cs),
(298,36,o),
(257,41,o),
(212,49,c)
);
}
);
width = 778;
},
{
anchors = (
{
name = bottom;
pos = (389,0);
},
{
name = center;
pos = (195,379);
},
{
name = top;
pos = (389,758);
}
);
layerId = "39185045-6A8C-415A-8312-7B8F11386A4C";
name = Regular;
shapes = (
{
closed = 1;
nodes = (
(52,0,l),
(96,0,o),
(139,0,o),
(184,0,cs),
(249,0,o),
(300,-3,o),
(348,-5,cs),
(565,-10,o),
(734,143,o),
(734,399,cs),
(734,626,o),
(618,767,o),
(366,765,cs),
(304,765,o),
(269,758,o),
(182,758,cs),
(54,758,l),
(54,710,l),
(134,702,l),
(134,56,l),
(52,42,l)
);
},
{
closed = 1;
nodes = (
(229,701,l),
(259,706,o),
(283,709,o),
(336,710,cs),
(519,716,o),
(634,604,o),
(634,375,cs),
(634,154,o),
(508,53,o),
(365,49,cs),
(314,48,o),
(271,53,o),
(229,64,c)
);
}
);
width = 778;
},
{
anchors = (
{
name = bottom;
pos = (395,0);
},
{
name = center;
pos = (197,379);
},
{
name = top;
pos = (395,758);
}
);
background = {
shapes = (
{
closed = 1;
nodes = (
(480,-5,o),
(579,33,o),
(648,103,cs),
(717,172,o),
(757,273,o),
(757,401,cs),
(757,508,o),
(729,599,o),
(668,664,cs),
(606,728,o),
(511,765,o),
(377,765,cs),
(346,765,o),
(313,764,o),
(284,762,cs),
(254,760,o),
(228,758,o),
(206,758,cs),
(46,758,l),
(46,678,l),
(115,668,l),
(115,88,l),
(44,68,l),
(44,0,l),
(72,0,o),
(99,0,o),
(126,0,cs),
(154,0,o),
(181,0,o),
(209,0,cs),
(228,0,o),
(254,0,o),
(282,-2,cs),
(310,-4,o),
(339,-5,o),
(364,-5,cs)
);
},
{
closed = 1;
nodes = (
(353,67,o),
(313,72,o),
(290,87,c),
(290,673,l),
(297,677,o),
(309,681,o),
(322,684,cs),
(336,686,o),
(352,687,o),
(366,687,cs),
(505,685,o),
(574,580,o),
(574,365,cs),
(574,282,o),
(557,211,o),
(526,160,cs),
(496,108,o),
(454,77,o),
(405,73,cs)
);
}
);
};
layerId = "B26750D4-52C5-4F85-819B-BFB2F142DAD5";
name = Bold;
shapes = (
{
closed = 1;
nodes = (
(44,0,l),
(69,0,o),
(181,0,o),
(209,0,cs),
(263,0,o),
(312,-5,o),
(364,-5,cs),
(603,-5,o),
(757,153,o),
(757,401,cs),
(757,639,o),
(624,765,o),
(377,765,cs),
(316,765,o),
(254,758,o),
(206,758,cs),
(46,758,l),
(46,678,l),
(115,668,l),
(115,88,l),
(44,68,l)
);
},
{
closed = 1;
nodes = (
(290,673,l),
(310,684,o),
(338,687,o),
(366,687,cs),
(505,687,o),
(574,580,o),
(574,365,cs),
(574,227,o),
(518,82,o),
(405,73,cs),
(353,67,o),
(313,72,o),
(290,87,c)
);
}
);
width = 789;
}
);
unicode = 68;
}
{
color = 4;
glyphname = E;
layers = (
{
anchors = (
{
name = bottom;
pos = (322,0);
},
{
name = ogonek;
pos = (580,10);
},
{
name = top;
pos = (322,758);
},
{
name = topleft;
pos = (20,758);
}
);
layerId = "E777F328-EA17-4AE7-9EBA-8002E537BA4F";
name = Light;
shapes = (
{
closed = 1;
nodes = (
(50,0,l),
(589,0,l),
(611,154,l),
(575,163,l),
(531,49,l),
(209,41,l),
(209,382,l),
(409,379,l),
(421,297,l),
(460,297,l),
(460,504,l),
(421,504,l),
(409,426,l),
(209,422,l),
(209,719,l),
(508,713,l),
(531,619,l),
(572,619,l),
(558,758,l),
(52,758,l),
(52,721,l),
(138,713,l),
(138,44,l),
(50,33,l)
);
}
);
width = 644;
},
{
anchors = (
{
name = bottom;
pos = (322,0);
},
{
name = ogonek;
pos = (580,10);
},
{
name = top;
pos = (322,758);
},
{
name = topleft;
pos = (20,758);
}
);
layerId = "39185045-6A8C-415A-8312-7B8F11386A4C";
name = Regular;
shapes = (
{
closed = 1;
nodes = (
(50,0,l),
(591,0,l),
(613,151,l),
(566,163,l),
(517,62,l),
(227,53,l),
(227,370,l),
(409,367,l),
(423,292,l),
(473,292,l),
(473,502,l),
(423,502,l),
(409,426,l),
(227,422,l),
(227,707,l),
(497,701,l),
(519,619,l),
(573,619,l),
(559,758,l),
(52,758,l),
(52,710,l),
(132,702,l),
(132,56,l),
(50,42,l)
);
}
);
width = 644;
},
{
anchors = (
{
name = bottom;
pos = (348,0);
},
{
name = ogonek;
pos = (626,10);
},
{
name = top;
pos = (348,758);
},
{
name = topleft;
pos = (20,758);
}
);
layerId = "B26750D4-52C5-4F85-819B-BFB2F142DAD5";
name = Bold;
shapes = (
{
closed = 1;
nodes = (
(49,0,l),
(646,0,l),
(672,170,l),
(571,188,l),
(509,92,l),
(294,78,l),
(294,346,l),
(419,343,l),
(446,266,l),
(534,266,l),
(534,504,l),
(446,504,l),
(419,431,l),
(294,426,l),
(294,680,l),
(475,669,l),
(521,591,l),
(621,591,l),
(606,758,l),
(52,758,l),
(52,678,l),
(121,667,l),
(121,87,l),
(49,68,l)
);
}
);
width = 696;
}
);
unicode = 69;
}
{
color = 4;
glyphname = F;
layers = (
{
anchors = (
{
name = bottom;
pos = (302,0);
},
{
name = top;
pos = (302,758);
}
);
layerId = "E777F328-EA17-4AE7-9EBA-8002E537BA4F";
name = Light;
shapes = (
{
closed = 1;
nodes = (
(51,0,l),
(367,0,l),
(367,36,l),
(216,44,l),
(216,367,l),
(442,363,l),
(454,282,l),
(496,282,l),
(496,487,l),
(458,487,l),
(442,411,l),
(216,407,l),
(216,717,l),
(525,711,l),
(548,618,l),
(586,619,l),
(575,758,l),
(58,758,l),
(58,721,l),
(144,713,l),
(144,45,l),
(51,33,l)
);
}
);
width = 604;
},
{
anchors = (
{
name = bottom;
pos = (302,0);
},
{
name = top;
pos = (302,758);
}
);
layerId = "39185045-6A8C-415A-8312-7B8F11386A4C";
name = Regular;
shapes = (
{
closed = 1;
nodes = (
(51,0,l),
(370,0,l),
(370,46,l),
(229,56,l),
(229,361,l),
(444,357,l),
(457,284,l),
(511,284,l),
(511,489,l),
(463,489,l),
(444,418,l),
(229,414,l),
(229,705,l),
(516,698,l),
(539,618,l),
(587,619,l),
(578,758,l),
(54,758,l),
(54,710,l),
(134,702,l),
(134,56,l),
(51,42,l)
);
}
);
width = 604;
},
{
anchors = (
{
name = bottom;
pos = (323,0);
},
{
name = top;
pos = (323,758);
}
);
layerId = "B26750D4-52C5-4F85-819B-BFB2F142DAD5";
name = Bold;
shapes = (
{
closed = 1;
nodes = (
(42,0,l),
(445,0,l),
(445,78,l),
(289,91,l),
(289,331,l),
(431,329,l),
(453,249,l),
(534,249,l),
(534,498,l),
(461,498,l),
(429,423,l),
(288,417,l),
(288,673,l),
(493,662,l),
(528,587,l),
(614,588,l),
(599,758,l),
(39,758,l),
(39,678,l),
(115,668,l),
(115,84,l),
(42,68,l)
);
}
);
width = 646;
}
);
unicode = 70;
}
{
color = 4;
glyphname = G;
layers = (
{
anchors = (
{
name = bottom;
pos = (375,0);
},
{
name = top;
pos = (425,758);
}
);
layerId = "E777F328-EA17-4AE7-9EBA-8002E537BA4F";
name = Light;
shapes = (
{
closed = 1;
nodes = (
(221,765,o),
(42,606,o),
(42,357,cs),
(42,143,o),
(180,-14,o),
(382,-14,cs),
(500,-14,o),
(611,33,o),
(654,37,c),
(654,301,l),
(721,309,l),
(721,346,l),
(447,346,l),
(447,309,l),
(582,302,l),
(582,75,l),
(544,42,o),
(464,27,o),
(401,27,cs),
(204,27,o),
(117,202,o),
(117,379,cs),
(117,597,o),
(260,720,o),
(412,722,cs),
(504,723,o),
(567,701,o),
(586,685,c),
(606,599,l),
(646,599,l),
(653,732,l),
(615,740,o),
(552,765,o),
(434,765,cs)
);
}
);
width = 750;
},
{
anchors = (
{
name = bottom;
pos = (375,0);
},
{
name = top;
pos = (425,758);
}
);
layerId = "39185045-6A8C-415A-8312-7B8F11386A4C";
name = Regular;
shapes = (
{
closed = 1;
nodes = (
(221,765,o),
(42,605,o),
(42,354,cs),
(42,142,o),
(180,-14,o),
(381,-14,cs),
(500,-14,o),
(618,37,o),
(661,40,c),
(661,289,l),
(721,298,l),
(721,346,l),
(447,346,l),
(447,298,l),
(565,290,l),
(565,89,l),
(527,47,o),
(460,38,o),
(404,38,cs),
(226,38,o),
(142,207,o),
(142,384,cs),
(142,587,o),
(264,706,o),
(403,708,cs),
(507,710,o),
(563,687,o),
(573,674,c),
(598,592,l),
(650,592,l),
(658,734,l),
(624,742,o),
(556,765,o),
(434,765,cs)
);
}
);
width = 750;
},
{
anchors = (
{
name = bottom;
pos = (387,0);
},
{
name = top;
pos = (417,758);
}
);
layerId = "B26750D4-52C5-4F85-819B-BFB2F142DAD5";
name = Bold;
shapes = (
{
closed = 1;
nodes = (
(195,765,o),
(32,612,o),
(32,365,cs),
(32,149,o),
(170,-14,o),
(381,-14,cs),
(490,-14,o),
(618,38,o),
(691,26,c),
(691,253,l),
(737,265,l),
(737,346,l),
(435,346,l),
(435,265,l),
(538,251,l),
(538,126,l),
(533,90,o),
(465,64,o),
(412,64,cs),
(268,64,o),
(220,232,o),
(220,404,cs),
(220,552,o),
(286,688,o),
(426,688,cs),
(495,688,o),
(532,669,o),
(541,659,c),
(586,571,l),
(674,571,l),
(685,738,l),
(629,755,o),
(513,765,o),
(436,765,cs)
);
}
);
width = 774;
}
);
unicode = 71;
}
{
color = 4;
glyphname = I;
layers = (
{
anchors = (
{
name = bottom;
pos = (187,0);
},
{
name = ogonek;
pos = (336,10);
},
{
name = top;
pos = (187,758);
},
{
name = topleft;
pos = (20,758);
}
);
layerId = "E777F328-EA17-4AE7-9EBA-8002E537BA4F";
name = Light;
shapes = (
{
closed = 1;
nodes = (
(66,0,l),
(307,0,l),
(307,33,l),
(221,44,l),
(221,714,l),
(303,721,l),
(303,758,l),
(68,758,l),
(68,721,l),
(149,714,l),
(149,44,l),
(66,33,l)
);
}
);
width = 373;
},
{
anchors = (
{
name = bottom;
pos = (187,0);
},
{
name = ogonek;
pos = (336,10);
},
{
name = top;
pos = (187,758);
},
{
name = topleft;
pos = (20,758);
}
);
layerId = "39185045-6A8C-415A-8312-7B8F11386A4C";
name = Regular;
shapes = (
{
closed = 1;
nodes = (
(51,0,l),
(323,0,l),
(323,42,l),
(234,56,l),
(234,702,l),
(318,710,l),
(318,758,l),
(53,758,l),
(53,710,l),
(139,702,l),
(139,56,l),
(51,42,l)
);
}
);
width = 373;
},
{
anchors = (
{
name = bottom;
pos = (207,0);
},
{
name = ogonek;
pos = (373,10);
},
{
name = top;
pos = (207,758);
},
{
name = topleft;
pos = (20,758);
}
);
layerId = "B26750D4-52C5-4F85-819B-BFB2F142DAD5";
name = Bold;
shapes = (
{
closed = 1;
nodes = (
(27,0,l),
(387,0,l),
(387,68,l),
(295,89,l),
(295,666,l),
(382,678,l),
(382,758,l),
(27,758,l),
(27,678,l),
(119,667,l),
(119,88,l),
(27,68,l)
);
}
);
width = 414;
}
);
unicode = 73;
}
{
color = 4;
glyphname = J;
layers = (
{
anchors = (
{
name = bottom;
pos = (176,0);
},
{
name = top;
pos = (176,758);
}
);
layerId = "E777F328-EA17-4AE7-9EBA-8002E537BA4F";
name = Light;
shapes = (
{
closed = 1;
nodes = (
(57,758,l),
(57,721,l),
(143,714,l),
(143,196,ls),
(143,96,o),
(142,28,o),
(122,-29,c),
(97,-92,o),
(38,-139,o),
(-42,-160,c),
(-21,-189,l),
(79,-175,o),
(183,-100,o),
(207,17,cs),
(218,78,o),
(215,151,o),
(215,232,cs),
(215,714,l),
(303,721,l),
(303,758,l)
);
}
);
width = 352;
},
{
anchors = (
{
name = bottom;
pos = (176,0);
},
{
name = top;
pos = (176,758);
}
);
layerId = "39185045-6A8C-415A-8312-7B8F11386A4C";
name = Regular;
shapes = (
{
closed = 1;
nodes = (
(58,758,l),
(58,710,l),
(139,702,l),
(139,196,ls),
(139,96,o),
(136,28,o),
(116,-29,cs),
(91,-91,o),
(31,-132,o),
(-42,-156,c),
(-17,-190,l),
(86,-175,o),
(199,-104,o),
(225,24,cs),
(237,91,o),
(234,176,o),
(234,269,cs),
(234,702,l),
(313,710,l),
(313,758,l)
);
}
);
width = 352;
},
{
anchors = (
{
name = bottom;
pos = (192,0);
},
{
name = top;
pos = (192,758);
}
);
background = {
shapes = (
{
closed = 1;
nodes = (
(99,6,o),
(105,36,o),
(109,72,cs),
(112,107,o),
(113,148,o),
(113,198,cs),
(113,667,l),
(41,678,l),
(41,758,l),
(359,758,l),
(359,678,l),
(290,667,l),
(290,261,ls),
(290,203,o),
(288,145,o),
(283,95,cs),
(278,45,o),
(270,3,o),
(260,-20,cs),
(243,-59,o),
(216,-91,o),
(185,-116,cs),
(153,-142,o),
(116,-160,o),
(80,-173,cs),
(44,-186,o),
(9,-193,o),
(-21,-193,c),
(-55,-144,l),
(-23,-132,o),
(7,-117,o),
(31,-98,cs),
(56,-78,o),
(75,-54,o),
(89,-23,c)
);
}
);
};
layerId = "B26750D4-52C5-4F85-819B-BFB2F142DAD5";
name = Bold;
shapes = (
{
closed = 1;
nodes = (
(41,758,l),
(41,678,l),
(113,667,l),
(113,198,ls),
(113,114,o),
(112,43,o),
(89,-23,c),
(62,-84,o),
(13,-119,o),
(-55,-144,c),
(-21,-193,l),
(74,-193,o),
(216,-128,o),
(260,-20,cs),
(282,35,o),
(290,150,o),
(290,261,cs),
(290,667,l),
(359,678,l),
(359,758,l)
);
}
);
width = 384;
}
);
unicode = 74;
}
{
color = 4;
glyphname = K;
layers = (
{
anchors = (
{
name = bottom;
pos = (347,0);
},
{
name = top;
pos = (347,758);
}
);
layerId = "E777F328-EA17-4AE7-9EBA-8002E537BA4F";
name = Light;
shapes = (
{
closed = 1;
nodes = (
(52,0,l),
(290,0,l),
(290,33,l),
(204,44,l),
(204,283,l),
(297,389,l),
(366,323,o),
(534,0,o),
(568,0,cs),
(696,0,l),
(696,33,l),
(622,47,l),
(588,47,o),
(400,373,o),
(339,437,c),
(584,713,l),
(662,721,l),
(662,758,l),
(437,758,l),
(437,721,l),
(516,713,l),
(204,350,l),
(204,714,l),
(282,721,l),
(282,758,l),
(53,758,l),
(53,721,l),
(131,714,l),
(131,44,l),
(52,33,l)
);
}
);
width = 693;
},
{
anchors = (
{
name = bottom;
pos = (347,0);
},
{
name = top;
pos = (347,758);
}
);
layerId = "39185045-6A8C-415A-8312-7B8F11386A4C";
name = Regular;
shapes = (
{
closed = 1;
nodes = (
(52,0,l),
(319,0,l),
(319,42,l),
(229,55,l),
(229,280,l),
(311,374,l),
(381,303,o),
(520,0,o),
(554,0,cs),
(705,0,l),
(705,42,l),
(626,60,l),
(593,60,o),
(431,365,o),
(366,438,c),
(595,702,l),
(675,710,l),
(675,758,l),
(431,758,l),
(432,710,l),
(507,702,l),
(229,365,l),
(229,702,l),
(309,710,l),
(309,758,l),
(54,758,l),
(54,710,l),
(134,702,l),
(134,56,l),
(52,42,l)
);
}
);
width = 693;
},
{
anchors = (
{
name = bottom;
pos = (375,0);
},
{
name = top;
pos = (375,758);
}
);
background = {
shapes = (
{
closed = 1;
nodes = (
(22,68,l),
(115,89,l),
(115,666,l),
(21,678,l),
(21,758,l),
(375,758,l),
(375,678,l),
(288,666,l),
(288,389,l),
(512,667,l),
(435,678,l),
(433,758,l),
(735,758,l),
(735,678,l),
(644,666,l),
(434,434,l),
(455,415,o),
(479,386,o),
(502,352,cs),
(526,318,o),
(550,280,o),
(574,243,cs),
(597,206,o),
(619,171,o),
(639,143,cs),
(659,115,o),
(677,94,o),
(691,86,c),
(754,68,l),
(754,0,l),
(548,0,ls),
(534,0,o),
(518,17,o),
(502,44,cs),
(486,71,o),
(469,107,o),
(452,145,cs),
(435,183,o),
(417,223,o),
(398,257,cs),
(380,291,o),
(361,319,o),
(343,334,c),
(288,272,l),
(288,89,l),
(386,68,l),
(386,0,l),
(22,0,l)
);
}
);
};
layerId = "B26750D4-52C5-4F85-819B-BFB2F142DAD5";
name = Bold;
shapes = (
{
closed = 1;
nodes = (
(22,0,l),
(386,0,l),
(386,68,l),
(288,89,l),
(288,272,l),
(343,334,l),
(428,256,o),
(490,2,o),
(548,0,c),
(754,0,l),
(754,68,l),
(691,86,l),
(640,109,o),
(523,354,o),
(434,434,c),
(644,666,l),
(735,678,l),
(735,758,l),
(433,758,l),
(435,678,l),
(512,667,l),
(288,389,l),
(288,666,l),
(375,678,l),
(375,758,l),
(21,758,l),
(21,678,l),
(115,666,l),
(115,89,l),
(22,68,l)
);
}
);
width = 750;
}
);
unicode = 75;
}
{
color = 4;
glyphname = L;
layers = (
{
anchors = (
{
name = bottom;
pos = (304,0);
},
{
name = center;
pos = (304,379);
},
{
name = top;
pos = (304,758);
},
{
name = topright;
pos = (587,758);
}
);
layerId = "E777F328-EA17-4AE7-9EBA-8002E537BA4F";
name = Light;
shapes = (
{
closed = 1;
nodes = (
(52,0,l),
(561,0,l),
(593,155,l),
(560,171,l),
(507,51,l),
(211,42,l),
(212,710,l),
(307,717,l),
(307,758,l),
(54,758,l),
(54,717,l),
(140,710,l),
(140,45,l),
(52,33,l)
);
}
);
width = 607;
},
{
anchors = (
{
name = bottom;
pos = (304,0);
},
{
name = center;
pos = (304,379);
},
{
name = top;
pos = (304,758);
},
{
name = topright;
pos = (587,758);
}
);
layerId = "39185045-6A8C-415A-8312-7B8F11386A4C";
name = Regular;
shapes = (
{
closed = 1;
nodes = (
(52,0,l),
(561,0,l),
(593,162,l),
(550,183,l),
(490,66,l),
(229,55,l),
(230,697,l),
(316,705,l),
(316,758,l),
(54,758,l),
(54,705,l),
(134,697,l),
(134,56,l),
(52,42,l)
);
}
);
width = 607;
},
{
anchors = (
{
name = bottom;
pos = (316,0);
},
{
name = center;
pos = (316,379);
},
{
name = top;
pos = (316,758);
},
{
name = topright;
pos = (611,758);
}
);
layerId = "B26750D4-52C5-4F85-819B-BFB2F142DAD5";
name = Bold;
shapes = (
{
closed = 1;
nodes = (
(45,0,l),
(588,0,l),
(622,187,l),
(547,214,l),
(466,99,l),
(290,80,l),
(290,657,l),
(379,668,l),
(379,758,l),
(48,758,l),
(48,668,l),
(115,658,l),
(115,87,l),
(45,68,l)
);
}
);
width = 631;
}
);
unicode = 76;
}
{
color = 4;
glyphname = M;
layers = (
{
anchors = (
{
name = bottom;
pos = (483,0);
},
{
name = top;
pos = (483,758);
}
);
layerId = "E777F328-EA17-4AE7-9EBA-8002E537BA4F";
name = Light;
shapes = (
{
closed = 1;
nodes = (
(38,0,l),
(291,0,l),
(291,33,l),
(187,45,l),
(214,520,l),
(222,712,l),
(237,668,o),
(258,605,o),
(272,566,cs),
(475,-7,l),
(500,-7,l),
(710,619,l),
(736,712,l),
(743,546,l),
(786,44,l),
(692,33,l),
(692,0,l),
(949,0,l),
(949,33,l),
(854,44,l),
(796,710,l),
(893,718,l),
(893,758,l),
(704,758,l),
(519,184,l),
(497,115,l),
(477,183,l),
(281,758,l),
(80,758,l),
(80,718,l),
(178,710,l),
(128,44,l),
(38,33,l)
);
}
);
width = 965;
},
{
anchors = (
{
name = bottom;
pos = (483,0);
},
{
name = top;
pos = (483,758);
}
);
layerId = "39185045-6A8C-415A-8312-7B8F11386A4C";
name = Regular;
shapes = (
{
closed = 1;
nodes = (
(38,0,l),
(291,0,l),
(291,42,l),
(198,56,l),
(222,520,l),
(226,687,l),
(244,633,o),
(261,580,o),
(280,527,cs),
(467,-7,l),
(500,-7,l),
(706,602,l),
(726,682,l),
(730,513,l),
(771,56,l),
(690,42,l),
(690,0,l),
(944,0,l),
(944,42,l),
(860,56,l),
(805,697,l),
(896,705,l),
(896,758,l),
(689,758,l),
(521,228,l),
(499,154,l),
(476,226,l),
(300,758,l),
(75,758,l),
(75,705,l),
(170,697,l),
(122,56,l),
(38,42,l)
);
}
);
width = 965;
},
{
anchors = (
{
name = bottom;
pos = (503,0);
},
{
name = top;
pos = (503,758);
}
);
layerId = "B26750D4-52C5-4F85-819B-BFB2F142DAD5";
name = Bold;
shapes = (
{
closed = 1;
nodes = (
(30,0,l),
(324,0,l),
(324,68,l),
(234,90,l),
(249,522,l),
(250,658,l),
(270,597,o),
(289,536,o),
(309,475,c),
(470,-9,l),
(534,-9,l),
(707,594,l),
(724,662,l),
(726,463,l),
(753,89,l),
(672,67,l),
(672,0,l),
(996,0,l),
(996,67,l),
(919,88,l),
(869,656,l),
(960,667,l),
(960,758,l),
(654,758,l),
(544,370,l),
(523,271,l),
(507,370,l),
(390,758,l),
(58,758,l),
(58,667,l),
(148,656,l),
(114,89,l),
(30,68,l)
);
}
);
width = 1006;
}
);
unicode = 77;
}
{
color = 4;
glyphname = N;
layers = (
{
anchors = (
{
name = bottom;
pos = (406,0);
},
{
name = top;
pos = (406,758);
}
);
layerId = "E777F328-EA17-4AE7-9EBA-8002E537BA4F";
name = Light;
shapes = (
{
closed = 1;
nodes = (
(551,758,l),
(551,718,l),
(636,710,l),
(636,63,l),
(564,195,l),
(213,758,l),
(54,758,l),
(54,717,l),
(137,710,l),
(137,44,l),
(51,33,l),
(51,0,l),
(291,0,l),
(291,33,l),
(190,44,l),
(190,191,o),
(191,529,o),
(191,680,c),
(263,543,l),
(610,0,l),
(689,0,l),
(689,710,l),
(774,718,l),
(774,758,l)
);
}
);
width = 812;
},
{
anchors = (
{
name = bottom;
pos = (406,0);
},
{
name = top;
pos = (406,758);
}
);
layerId = "39185045-6A8C-415A-8312-7B8F11386A4C";
name = Regular;
shapes = (
{
closed = 1;
nodes = (
(543,758,l),
(543,706,l),
(623,697,l),
(623,90,l),
(554,224,l),
(227,758,l),
(54,758,l),
(54,705,l),
(134,697,l),
(134,56,l),
(51,42,l),
(51,0,l),
(299,0,l),
(299,42,l),
(204,56,l),
(204,252,o),
(204,448,o),
(204,644,c),
(271,508,l),
(593,0,l),
(693,0,l),
(693,697,l),
(774,706,l),
(774,758,l)
);
}
);
width = 812;
},
{
anchors = (
{
name = bottom;
pos = (417,0);
},
{
name = top;
pos = (417,758);
}
);
layerId = "B26750D4-52C5-4F85-819B-BFB2F142DAD5";
name = Bold;
shapes = (
{
closed = 1;
nodes = (
(539,758,l),
(539,669,l),
(627,655,l),
(627,131,l),
(584,247,l),
(290,758,l),
(42,758,l),
(42,668,l),
(115,657,l),
(115,90,l),
(38,68,l),
(38,0,l),
(327,0,l),
(327,68,l),
(228,92,l),
(228,173,o),
(227,502,o),
(227,580,c),
(280,448,l),
(546,0,l),
(738,0,l),
(738,658,l),
(805,669,l),
(805,758,l)
);
}
);
width = 833;
}
);
unicode = 78;
}
{
color = 4;
glyphname = P;
layers = (
{
anchors = (
{
name = bottom;
pos = (317,0);
},
{
name = top;
pos = (317,758);
}
);
layerId = "E777F328-EA17-4AE7-9EBA-8002E537BA4F";
name = Light;
shapes = (
{
closed = 1;
nodes = (
(42,0,l),
(347,0,l),
(347,33,l),
(212,45,l),
(212,289,l),
(233,291,o),
(267,290,o),
(321,290,cs),
(464,289,o),
(604,378,o),
(604,537,cs),
(604,712,o),
(499,765,o),
(349,765,cs),
(284,765,o),
(214,758,o),
(175,758,cs),
(53,758,l),
(53,717,l),
(140,710,l),
(140,45,l),
(42,33,l)
);
},
{
closed = 1;
nodes = (
(212,713,l),
(241,721,o),
(288,721,o),
(319,723,cs),
(462,727,o),
(531,664,o),
(531,536,cs),
(531,383,o),
(437,331,o),
(319,329,cs),
(289,329,o),
(249,329,o),
(212,334,c)
);
}
);
width = 633;
},
{
anchors = (
{
name = bottom;
pos = (317,0);
},
{
name = top;
pos = (317,758);
}
);
layerId = "39185045-6A8C-415A-8312-7B8F11386A4C";
name = Regular;
shapes = (
{
closed = 1;
nodes = (
(42,0,l),
(360,0,l),
(360,42,l),
(229,56,l),
(229,288,l),
(250,292,o),
(279,292,o),
(328,291,cs),
(471,287,o),
(611,380,o),
(611,539,cs),
(611,714,o),
(506,765,o),
(356,765,cs),
(292,765,o),
(213,758,o),
(182,758,cs),
(54,758,l),
(54,705,l),
(134,697,l),
(134,56,l),
(42,42,l)
);
},
{
closed = 1;
nodes = (
(229,701,l),
(259,708,o),
(287,709,o),
(319,711,cs),
(444,715,o),
(514,657,o),
(514,537,cs),
(514,372,o),
(421,340,o),
(327,340,cs),
(297,340,o),
(267,340,o),
(229,346,c)
);
}
);
width = 633;
},
{
anchors = (
{
name = bottom;
pos = (334,0);
},
{
name = top;
pos = (334,758);
}
);
background = {
shapes = (
{
closed = 1;
nodes = (
(406,0,l),
(406,68,l),
(287,89,l),
(287,295,l),
(297,294,o),
(309,294,o),
(323,294,cs),
(337,294,o),
(354,294,o),
(373,294,cs),
(455,294,o),
(529,316,o),
(582,358,cs),
(634,400,o),
(667,462,o),
(667,543,cs),
(667,634,o),
(633,689,o),
(579,722,cs),
(525,755,o),
(452,765,o),
(373,765,cs),
(338,765,o),
(309,764,o),
(282,762,cs),
(254,760,o),
(229,758,o),
(206,758,cs),
(31,758,l),
(31,674,l),
(115,657,l),
(115,89,l),
(29,68,l),
(29,0,l)
);
},
{
closed = 1;
nodes = (
(357,377,o),
(342,377,o),
(327,378,cs),
(312,378,o),
(296,380,o),
(287,382,c),
(287,679,l),
(291,681,o),
(303,683,o),
(316,684,cs),
(330,685,o),
(344,686,o),
(352,686,cs),
(393,685,o),
(428,674,o),
(454,653,cs),
(480,631,o),
(496,598,o),
(496,552,cs),
(496,486,o),
(481,442,o),
(458,415,cs),
(435,388,o),
(403,377,o),
(369,377,cs)
);
}
);
};
layerId = "B26750D4-52C5-4F85-819B-BFB2F142DAD5";
name = Bold;
shapes = (
{
closed = 1;
nodes = (
(29,0,l),
(406,0,l),
(406,68,l),
(287,89,l),
(287,295,l),
(315,294,o),
(336,294,o),
(373,294,cs),
(541,294,o),
(667,384,o),
(667,543,cs),
(667,709,o),
(554,765,o),
(373,765,cs),
(306,765,o),
(257,758,o),
(206,758,cs),
(31,758,l),
(31,674,l),
(115,657,l),
(115,89,l),
(29,68,l)
);
},
{
closed = 1;
nodes = (
(287,679,l),
(294,682,o),
(324,686,o),
(352,686,cs),
(435,686,o),
(496,640,o),
(496,552,cs),
(496,452,o),
(460,377,o),
(369,377,cs),
(348,377,o),
(305,378,o),
(287,382,c)
);
}
);
width = 668;
}
);
unicode = 80;
}
{
glyphname = Q;
layers = (
{
background = {
shapes = (
{
closed = 1;
nodes = (
(40,142,o),
(175,-18,o),
(377,-14,c),
(395,-13,l),
(424,-130,o),
(504,-173,o),
(596,-173,cs),
(651,-173,o),
(697,-157,o),
(708,-139,c),
(701,-91,l),
(684,-104,o),
(653,-111,o),
(620,-111,cs),
(545,-111,o),
(462,-82,o),
(438,-7,c),
(591,24,o),
(710,161,o),
(714,386,cs),
(718,609,o),
(591,769,o),
(391,765,cs),
(205,761,o),
(50,624,o),
(44,369,cs)
);
},
{
closed = 1;
nodes = (
(223,27,o),
(123,176,o),
(123,369,cs),
(123,595,o),
(233,724,o),
(384,724,cs),
(545,724,o),
(636,573,o),
(636,386,cs),
(636,165,o),
(534,27,o),
(385,27,cs)
);
}
);
};
layerId = "E777F328-EA17-4AE7-9EBA-8002E537BA4F";
name = Light;
shapes = (
{
closed = 1;
nodes = (
(320,765,o),
(246,741,o),
(187,695,cs),
(101,629,o),
(44,516,o),
(44,359,cs),
(44,137,o),
(178,-18,o),
(377,-14,c),
(395,-14,l),
(424,-131,o),
(504,-173,o),
(596,-173,cs),
(651,-173,o),
(697,-157,o),
(708,-139,c),
(701,-91,l),
(684,-104,o),
(653,-111,o),
(620,-111,cs),
(545,-111,o),
(462,-82,o),
(438,-7,c),
(594,25,o),
(714,166,o),
(714,396,cs),
(714,611,o),
(591,765,o),
(398,765,cs)
);
},
{
closed = 1;
nodes = (
(545,724,o),
(636,573,o),
(636,386,cs),
(636,165,o),
(534,27,o),
(385,27,cs),
(223,27,o),
(123,176,o),
(123,369,cs),
(123,595,o),
(233,724,o),
(384,724,cs)
);
}
);
width = 759;
},
{
background = {
shapes = (
{
closed = 1;
nodes = (
(233,723,cs),
(124,664,o),
(44,536,o),
(44,357,cs),
(44,144,o),
(172,-14,o),
(371,-14,cs),
(560,-14,o),
(712,133,o),
(718,385,cs),
(722,602,o),
(600,765,o),
(404,765,cs),
(354,765,o),
(294,756,o)
);
},
{
closed = 1;
nodes = (
(386,38,cs),
(236,38,o),
(149,198,o),
(149,368,cs),
(149,585,o),
(241,713,o),
(384,713,cs),
(533,713,o),
(612,554,o),
(612,384,cs),
(612,167,o),
(529,38,o)
);
}
);
};
layerId = "39185045-6A8C-415A-8312-7B8F11386A4C";
name = Regular;
shapes = (
{
closed = 1;
nodes = (
(354,765,o),
(294,756,o),
(233,723,cs),
(124,664,o),
(44,536,o),
(44,357,c),
(40,149,o),
(172,-14,o),
(378,-14,c),
(389,-14,l),
(422,-143,o),
(510,-174,o),
(604,-174,cs),
(659,-174,o),
(700,-156,o),
(713,-137,c),
(704,-77,l),
(687,-88,o),
(660,-93,o),
(636,-93,cs),
(570,-93,o),
(475,-83,o),
(443,-6,c),
(597,27,o),
(714,166,o),
(718,385,cs),
(722,602,o),
(600,765,o),
(404,765,c)
);
},
{
closed = 1;
nodes = (
(533,713,o),
(612,554,o),
(612,384,cs),
(612,167,o),
(529,38,o),
(386,38,cs),
(236,38,o),
(149,198,o),
(149,368,c),
(149,585,o),
(241,713,o),
(384,713,c)
);
}
);
width = 759;
},
{
background = {
shapes = (
{
closed = 1;
nodes = (
(36,450,o),
(57,521,o),
(90,581,cs),
(124,639,o),
(171,686,o),
(225,717,cs),
(278,749,o),
(339,765,o),
(401,765,cs),
(507,765,o),
(596,725,o),
(657,657,cs),
(718,589,o),
(752,495,o),
(750,386,cs),
(748,282,o),
(720,195,o),
(673,129,cs),
(625,63,o),
(560,18,o),
(482,-2,c),
(495,-30,o),
(515,-45,o),
(537,-54,cs),
(559,-63,o),
(583,-65,o),
(604,-64,cs),
(614,-63,o),
(623,-63,o),
(631,-62,c),
(640,-61,o),
(646,-60,o),
(650,-60,cs),
(667,-57,o),
(684,-53,o),
(697,-49,cs),
(704,-47,o),
(709,-45,o),
(714,-44,cs),
(719,-42,o),
(723,-41,o),
(726,-40,c),
(726,-147,l),
(714,-159,o),
(697,-169,o),
(674,-177,cs),
(650,-186,o),
(619,-191,o),
(582,-191,cs),
(547,-191,o),
(509,-183,o),
(476,-157,cs),
(442,-131,o),
(415,-86,o),
(400,-13,c),
(399,-13,o),
(397,-13,o),
(396,-13,c),
(394,-14,o),
(392,-14,o),
(391,-14,cs),
(280,-14,o),
(189,28,o),
(127,97,cs),
(65,165,o),
(32,261,o),
(34,368,cs)
);
},
{
closed = 1;
nodes = (
(460,64,o),
(501,91,o),
(526,145,cs),
(550,198,o),
(559,278,o),
(559,385,cs),
(559,428,o),
(554,475,o),
(543,520,cs),
(533,564,o),
(515,605,o),
(491,635,cs),
(467,665,o),
(436,685,o),
(396,685,cs),
(332,685,o),
(289,656,o),
(263,603,cs),
(236,550,o),
(226,471,o),
(226,369,cs),
(226,330,o),
(230,284,o),
(242,239,cs),
(253,194,o),
(271,150,o),
(297,118,cs),
(322,86,o),
(355,64,o),
(397,64,cs)
);
}
);
};
layerId = "B26750D4-52C5-4F85-819B-BFB2F142DAD5";
name = Bold;
shapes = (
{
closed = 1;
nodes = (
(339,765,o),
(278,749,o),
(225,717,cs),
(103,647,o),
(34,513,o),
(34,359,cs),
(34,143,o),
(177,-14,o),
(391,-14,c),
(400,-14,l),
(422,-123,o),
(477,-191,o),
(582,-191,cs),
(631,-191,o),
(693,-180,o),
(726,-147,c),
(726,-40,l),
(690,-52,o),
(645,-64,o),
(597,-64,cs),
(548,-64,o),
(504,-49,o),
(482,-2,c),
(654,42,o),
(750,199,o),
(750,395,cs),
(750,605,o),
(614,765,o),
(401,765,cs)
);
},
{
closed = 1;
nodes = (
(508,685,o),
(559,527,o),
(559,385,cs),
(559,203,o),
(537,64,o),
(397,64,cs),
(283,64,o),
(226,226,o),
(226,369,cs),
(226,541,o),
(253,685,o),
(396,685,cs)
);
}
);
width = 781;
}
);
unicode = 81;
}
{
color = 4;
glyphname = R;
layers = (
{
anchors = (
{
name = bottom;
pos = (347,0);
},
{
name = top;
pos = (347,758);
}
);
background = {
shapes = (
{
closed = 1;
nodes = (
(262,765,o),
(210,759,o),
(177,758,cs),
(53,758,l),
(53,717,l),
(140,710,l),
(140,45,l),
(42,33,l),
(42,0,l),
(318,0,l),
(318,33,l),
(212,44,l),
(212,335,l),
(250,335,o),
(287,335,o),
(322,336,c),
(320,335,l),
(430,343,o),
(528,0,o),
(572,0,cs),
(697,0,l),
(697,33,l),
(638,44,ls),
(592,52,o),
(503,318,o),
(410,347,c),
(409,347,o),
(408,348,o),
(408,348,c),
(512,377,o),
(580,459,o),
(580,561,cs),
(580,718,o),
(475,765,o),
(327,765,cs)
);
},
{
closed = 1;
nodes = (
(453,729,o),
(504,664,o),
(504,552,cs),
(504,444,o),
(443,377,o),
(325,375,cs),
(300,375,o),
(235,377,o),
(212,379,c),
(212,716,l),
(238,724,o),
(282,723,o),
(313,724,cs)
);
}
);
};
layerId = "E777F328-EA17-4AE7-9EBA-8002E537BA4F";
name = Light;
shapes = (
{
closed = 1;
nodes = (
(262,765,o),
(210,759,o),
(177,758,cs),
(53,758,l),
(53,717,l),
(140,710,l),
(140,45,l),
(42,33,l),
(42,0,l),
(318,0,l),
(318,33,l),
(212,44,l),
(212,335,l),
(252,335,o),
(285,335,o),
(320,335,c),
(430,343,o),
(528,0,o),
(572,0,cs),
(697,0,l),
(697,33,l),
(638,44,ls),
(592,52,o),
(504,318,o),
(411,347,c),
(411,347,o),
(408,348,o),
(408,348,c),
(512,377,o),
(580,459,o),
(580,561,cs),
(580,718,o),
(475,765,o),
(327,765,cs)
);
},
{
closed = 1;
nodes = (
(453,729,o),
(504,664,o),
(504,552,cs),
(504,444,o),
(443,377,o),
(325,375,cs),
(300,375,o),
(235,377,o),
(212,379,c),
(212,716,l),
(238,724,o),
(282,723,o),
(313,724,cs)
);
}
);
width = 693;
},
{
anchors = (
{
name = bottom;
pos = (347,0);
},
{
name = top;
pos = (347,758);
}
);
layerId = "39185045-6A8C-415A-8312-7B8F11386A4C";
name = Regular;
shapes = (
{
closed = 1;
nodes = (
(264,765,o),
(213,758,o),
(182,758,cs),
(54,758,l),
(54,705,l),
(134,697,l),
(134,56,l),
(42,42,l),
(42,0,l),
(331,0,l),
(331,42,l),
(229,56,l),
(229,328,l),
(259,328,o),
(285,328,o),
(308,329,cs),
(421,340,o),
(509,0,o),
(559,0,cs),
(700,0,l),
(700,42,l),
(647,56,ls),
(597,70,o),
(524,298,o),
(432,344,c),
(429,345,o),
(425,347,o),
(422,348,c),
(519,381,o),
(585,461,o),
(585,563,cs),
(585,721,o),
(479,765,o),
(329,765,cs)
);
},
{
closed = 1;
nodes = (
(446,718,o),
(486,651,o),
(486,552,cs),
(486,431,o),
(420,380,o),
(316,380,cs),
(295,380,o),
(245,381,o),
(229,383,c),
(229,705,l),
(254,712,o),
(284,711,o),
(316,713,cs)
);
}
);
width = 693;
},
{
anchors = (
{
name = bottom;
pos = (373,0);
},
{
name = top;
pos = (373,758);
}
);
background = {
shapes = (
{
closed = 1;
nodes = (
(381,0,l),
(381,68,l),
(288,87,l),
(288,314,l),
(297,315,o),
(306,315,o),
(316,315,c),
(326,314,o),
(336,314,o),
(347,315,c),
(368,315,o),
(387,295,o),
(405,266,cs),
(422,236,o),
(439,197,o),
(455,158,cs),
(470,118,o),
(486,79,o),
(501,49,cs),
(517,20,o),
(532,0,o),
(548,0,cs),
(754,0,l),
(754,68,l),
(691,86,l),
(681,92,o),
(671,101,o),
(662,113,cs),
(643,138,o),
(624,171,o),
(604,208,cs),
(594,226,o),
(583,243,o),
(573,260,cs),
(551,293,o),
(528,323,o),
(501,337,c),
(614,376,o),
(666,451,o),
(666,567,cs),
(666,639,o),
(634,688,o),
(581,720,cs),
(528,751,o),
(455,765,o),
(371,765,cs),
(346,765,o),
(314,764,o),
(276,762,cs),
(238,759,o),
(195,758,o),
(149,758,cs),
(39,758,l),
(39,674,l),
(115,662,l),
(115,89,l),
(30,68,l),
(30,0,l)
);
},
{
closed = 1;
nodes = (
(320,391,o),
(303,393,o),
(288,395,c),
(288,679,l),
(291,681,o),
(294,682,o),
(299,683,c),
(309,684,o),
(320,685,o),
(332,685,cs),
(337,685,o),
(342,685,o),
(347,685,cs),
(404,685,o),
(442,667,o),
(466,641,cs),
(489,615,o),
(499,581,o),
(499,549,cs),
(499,488,o),
(482,451,o),
(461,428,cs),
(439,405,o),
(412,397,o),
(390,394,cs),
(374,392,o),
(356,391,o),
(338,391,cs)
);
}
);
};
layerId = "B26750D4-52C5-4F85-819B-BFB2F142DAD5";
name = Bold;
shapes = (
{
closed = 1;
nodes = (
(315,765,o),
(226,758,o),
(149,758,cs),
(39,758,l),
(39,674,l),
(115,662,l),
(115,89,l),
(30,68,l),
(30,0,l),
(381,0,l),
(381,68,l),
(288,87,l),
(288,314,l),
(301,314,o),
(314,314,o),
(347,315,c),
(431,315,o),
(479,0,o),
(548,0,cs),
(754,0,l),
(754,68,l),
(691,86,l),
(646,107,o),
(595,253,o),
(527,318,cs),
(519,326,o),
(509,332,o),
(501,337,c),
(614,376,o),
(666,451,o),
(666,567,cs),
(666,711,o),
(536,765,o),
(371,765,cs)
);
},
{
closed = 1;
nodes = (
(439,685,o),
(499,634.267,o),
(499,549,cs),
(499,434,o),
(449,391,o),
(338,391,cs),
(320,391,o),
(303,393,o),
(288,395,c),
(288,679,l),
(297,685,o),
(320,685,o),
(347,685,cs)
);
}
);
width = 745;
}
);
unicode = 82;
}
{
color = 4;
glyphname = S;
layers = (
{
anchors = (
{
name = bottom;
pos = (300,0);
},
{
name = top;
pos = (300,758);
}
);
layerId = "E777F328-EA17-4AE7-9EBA-8002E537BA4F";
name = Light;
shapes = (
{
closed = 1;
nodes = (
(435,-11,o),
(550,49,o),
(550,192,cs),
(550,307,o),
(434,364,o),
(327,415,cs),
(234,459,o),
(147,503,o),
(147,586,cs),
(147,689,o),
(240,727,o),
(311,727,cs),
(363,727,o),
(414,718,o),
(443,693,c),
(472,596,l),
(505,596,l),
(505,726,l),
(476,743,o),
(417,765,o),
(317,765,cs),
(216,765,o),
(80,712,o),
(80,575,cs),
(80,464,o),
(187,408,o),
(291,358,cs),
(388,311,o),
(482,263,o),
(482,173,cs),
(482,66,o),
(391,28,o),
(307,28,cs),
(250,28,o),
(174,38,o),
(134,77,c),
(111,177,l),
(75,177,l),
(75,31,l),
(103,14,o),
(201,-11,o),
(298,-11,cs)
);
}
);
width = 600;
},
{
anchors = (
{
name = bottom;
pos = (300,0);
},
{
name = top;
pos = (300,758);
}
);
layerId = "39185045-6A8C-415A-8312-7B8F11386A4C";
name = Regular;
shapes = (
{
closed = 1;
nodes = (
(432,-11,o),
(550,48,o),
(550,194,cs),
(550,308,o),
(436,369,o),
(332,425,cs),
(246,470,o),
(168,519,o),
(168,593,cs),
(168,688,o),
(255,717,o),
(308,717,cs),
(355,717,o),
(401,707,o),
(424,686,c),
(462,592,l),
(504,592,l),
(504,728,l),
(476,744,o),
(410,765,o),
(315,765,cs),
(217,765,o),
(80,713,o),
(80,577,cs),
(80,467,o),
(182,406,o),
(281,352,cs),
(373,300,o),
(460,250,o),
(460,167,cs),
(460,76,o),
(383,38,o),
(311,38,cs),
(253,38,o),
(188,49,o),
(149,90,c),
(118,187,l),
(75,187,l),
(75,30,l),
(103,13,o),
(200,-11,o),
(298,-11,cs)
);
}
);
width = 600;
},
{
anchors = (
{
name = bottom;
pos = (322,0);
},
{
name = top;
pos = (322,758);
}
);
background = {
shapes = (
{
closed = 1;
nodes = (
(67,229,l),
(140,229,l),
(186,111,l),
(203,88,o),
(225,76,o),
(249,69,cs),
(272,63,o),
(298,62,o),
(323,62,cs),
(349,62,o),
(378,68,o),
(400,84,cs),
(423,101,o),
(439,127,o),
(439,170,cs),
(439,203,o),
(417,229,o),
(384,254,cs),
(367,267,o),
(348,279,o),
(327,290,cs),
(284,313,o),
(236,338,o),
(189,368,cs),
(142,397,o),
(104,434,o),
(81,479,cs),
(70,502,o),
(64,528,o),
(64,557,cs),
(64,624,o),
(97,676,o),
(146,711,cs),
(194,747,o),
(260,765,o),
(326,765,cs),
(379,765,o),
(434,760,o),
(477,752,cs),
(499,749,o),
(517,745,o),
(532,741,cs),
(547,737,o),
(557,733,o),
(563,730,c),
(563,568,l),
(482,568,l),
(437,671,l),
(435,673,o),
(431,675,o),
(425,678,cs),
(413,683,o),
(395,688,o),
(374,691,cs),
(364,693,o),
(354,694,o),
(343,694,cs),
(317,694,o),
(289,689,o),
(267,677,cs),
(245,665,o),
(229,645,o),
(229,614,cs),
(229,577,o),
(246,548,o),
(271,522,cs),
(297,497,o),
(333,476,o),
(372,454,cs),
(390,444,o),
(409,434,o),
(428,424,cs),
(466,404,o),
(502,381,o),
(534,356,cs),
(565,331,o),
(589,301,o),
(603,265,cs),
(609,247,o),
(613,228,o),
(613,206,cs),
(613,143,o),
(585,88,o),
(536,49,cs),
(486,10,o),
(413,-14,o),
(322,-14,cs),
(277,-14,o),
(226,-9,o),
(179,-1,cs),
(133,7,o),
(92,18,o),
(67,31,c)
);
}
);
};
layerId = "B26750D4-52C5-4F85-819B-BFB2F142DAD5";
name = Bold;
shapes = (
{
closed = 1;
nodes = (
(481,-14,o),
(613,63,o),
(613,206,cs),
(613,307,o),
(532,370,o),
(428,424,cs),
(305,489,o),
(229,532,o),
(229,614,cs),
(229,669,o),
(282,694,o),
(343,694,cs),
(368,694,o),
(420,685,o),
(437,671,c),
(482,568,l),
(563,568,l),
(563,730,l),
(520,751,o),
(388,765,o),
(326,765,cs),
(189,765,o),
(64,686,o),
(64,557,cs),
(64,429,o),
(173,372,o),
(327,290,cs),
(386,259,o),
(439,218,o),
(439,170,cs),
(439,100,o),
(393,62,o),
(323,62,cs),
(267,62,o),
(218,67,o),
(186,111,c),
(140,229,l),
(67,229,l),
(67,31,l),
(121,3,o),
(247,-14,o),
(322,-14,cs)
);
}
);
width = 643;
}
);
unicode = 83;
}
{
color = 4;
glyphname = T;
kernLeft = T;
kernRight = T;
layers = (
{
anchors = (
{
name = bottom;
pos = (310,0);
},
{
name = center;
pos = (310,379);
},
{
name = top;
pos = (310,758);
}
);
layerId = "E777F328-EA17-4AE7-9EBA-8002E537BA4F";
name = Light;
shapes = (
{
closed = 1;
nodes = (
(154,0,l),
(489,0,l),
(489,33,l),
(354,45,l),
(354,717,l),
(556,709,l),
(576,604,l),
(607,608,l),
(608,758,l),
(27,758,l),
(15,610,l),
(49,611,l),
(79,709,l),
(282,717,l),
(282,45,l),
(154,33,l)
);
}
);
width = 620;
},
{
anchors = (
{
name = bottom;
pos = (310,0);
},
{
name = center;
pos = (310,379);
},
{
name = top;
pos = (310,758);
}
);
layerId = "39185045-6A8C-415A-8312-7B8F11386A4C";
name = Regular;
shapes = (
{
closed = 1;
nodes = (
(151,0,l),
(493,0,l),
(493,42,l),
(366,56,l),
(366,704,l),
(542,695,l),
(567,604,l),
(607,608,l),
(608,758,l),
(27,758,l),
(15,610,l),
(59,611,l),
(93,694,l),
(271,704,l),
(271,56,l),
(151,42,l)
);
}
);
width = 620;
},
{
anchors = (
{
name = bottom;
pos = (356,0);
},
{
name = center;
pos = (356,379);
},
{
name = top;
pos = (356,758);
}
);
layerId = "B26750D4-52C5-4F85-819B-BFB2F142DAD5";
name = Bold;
shapes = (
{
closed = 1;
nodes = (
(167,0,l),
(562,0,l),
(562,68,l),
(452,88,l),
(452,676,l),
(581,663,l),
(619,551,l),
(688,560,l),
(688,758,l),
(35,758,l),
(23,554,l),
(111,558,l),
(145,663,l),
(279,676,l),
(279,87,l),
(167,68,l)
);
}
);
width = 711;
}
);
unicode = 84;
}
{
color = 4;
glyphname = U;
layers = (
{
anchors = (
{
name = bottom;
pos = (385,0);
},
{
name = ogonek;
pos = (693,10);
},
{
name = top;
pos = (385,758);
},
{
name = topright;
pos = (750,758);
}
);
layerId = "E777F328-EA17-4AE7-9EBA-8002E537BA4F";
name = Light;
shapes = (
{
closed = 1;
nodes = (
(522,758,l),
(522,721,l),
(606,713,l),
(606,324,ls),
(606,134,o),
(541,25,o),
(396,25,cs),
(261,25,o),
(164,89,o),
(164,313,cs),
(164,713,l),
(249,721,l),
(249,758,l),
(16,758,l),
(16,721,l),
(91,714,l),
(91,581,o),
(91,449,o),
(91,316,cs),
(91,94,o),
(175,-14,o),
(382,-14,cs),
(548,-14,o),
(663,81,o),
(663,324,cs),
(663,713,l),
(739,721,l),
(739,758,l)
);
}
);
width = 770;
},
{
anchors = (
{
name = bottom;
pos = (385,0);
},
{
name = ogonek;
pos = (693,10);
},
{
name = top;
pos = (385,758);
},
{
name = topright;
pos = (750,758);
}
);
layerId = "39185045-6A8C-415A-8312-7B8F11386A4C";
name = Regular;
shapes = (
{
closed = 1;
nodes = (
(515,758,l),
(515,710,l),
(604,701,l),
(604,335,ls),
(604,150,o),
(546,37,o),
(410,37,cs),
(283,37,o),
(189,100,o),
(189,320,cs),
(189,701,l),
(276,710,l),
(276,758,l),
(16,758,l),
(16,710,l),
(94,702,l),
(94,575,o),
(93,450,o),
(93,323,cs),
(93,103,o),
(172,-14,o),
(394,-14,cs),
(561,-14,o),
(677,91,o),
(677,335,cs),
(677,701,l),
(754,710,l),
(754,758,l)
);
}
);
width = 770;
},
{
anchors = (
{
name = bottom;
pos = (394,0);
},
{
name = ogonek;
pos = (708,10);
},
{
name = top;
pos = (394,758);
},
{
name = topright;
pos = (767,758);
}
);
background = {
shapes = (
{
closed = 1;
nodes = (
(466,-14,o),
(515,-5,o),
(557,15,cs),
(600,36,o),
(636,68,o),
(662,119,cs),
(688,169,o),
(703,236,o),
(703,326,cs),
(703,666,l),
(773,678,l),
(773,758,l),
(510,758,l),
(510,678,l),
(592,666,l),
(594,325,ls),
(594,227,o),
(578,164,o),
(550,125,cs),
(522,87,o),
(483,73,o),
(438,73,cs),
(411,73,o),
(384,76,o),
(359,88,cs),
(334,99,o),
(312,119,o),
(296,152,cs),
(280,185,o),
(270,232,o),
(270,298,cs),
(270,667,l),
(353,678,l),
(353,758,l),
(20,758,l),
(20,678,l),
(97,667,l),
(95,305,ls),
(93,90,o),
(198,-14,o),
(417,-14,cs)
);
}
);
};
layerId = "B26750D4-52C5-4F85-819B-BFB2F142DAD5";
name = Bold;
shapes = (
{
closed = 1;
nodes = (
(510,758,l),
(510,678,l),
(592,666,l),
(594,325,ls),
(594,181,o),
(561,73,o),
(438,73,cs),
(314,73,o),
(270,155,o),
(270,298,cs),
(270,667,l),
(353,678,l),
(353,758,l),
(20,758,l),
(20,678,l),
(97,667,l),
(96,546,o),
(96,426,o),
(95,305,cs),
(93,90,o),
(198,-14,o),
(417,-14,cs),
(615,-14,o),
(703,113,o),
(703,326,cs),
(703,666,l),
(773,678,l),
(773,758,l)
);
}
);
width = 787;
}
);
unicode = 85;
}
{
color = 4;
glyphname = V;
layers = (
{
anchors = (
{
name = bottom;
pos = (348,0);
},
{
name = top;
pos = (348,758);
}
);
layerId = "E777F328-EA17-4AE7-9EBA-8002E537BA4F";
name = Light;
shapes = (
{
closed = 1;
nodes = (
(334,-10,l),
(388,-10,l),
(627,714,l),
(697,721,l),
(697,758,l),
(483,758,l),
(483,721,l),
(564,714,l),
(397,166,l),
(372,73,l),
(343,165,l),
(153,714,l),
(250,721,l),
(250,758,l),
(2,758,l),
(2,721,l),
(70,714,l)
);
}
);
width = 696;
},
{
anchors = (
{
name = bottom;
pos = (348,0);
},
{
name = top;
pos = (348,758);
}
);
layerId = "39185045-6A8C-415A-8312-7B8F11386A4C";
name = Regular;
shapes = (
{
closed = 1;
nodes = (
(324,-10,l),
(397,-10,l),
(634,703,l),
(693,710,l),
(693,758,l),
(471,758,l),
(471,710,l),
(551,702,l),
(405,203,l),
(376,95,l),
(342,202,l),
(177,702,l),
(265,710,l),
(265,758,l),
(2,758,l),
(2,710,l),
(67,703,l)
);
}
);
width = 696;
},
{
anchors = (
{
name = bottom;
pos = (365,0);
},
{
name = top;
pos = (365,758);
}
);
layerId = "B26750D4-52C5-4F85-819B-BFB2F142DAD5";
name = Bold;
shapes = (
{
closed = 1;
nodes = (
(309,-7,l),
(443,-7,l),
(664,669,l),
(723,678,l),
(723,758,l),
(443,758,l),
(443,678,l),
(519,667,l),
(419,296,l),
(389,168,l),
(358,299,l),
(252,667,l),
(332,680,l),
(332,758,l),
(6,758,l),
(6,678,l),
(64,669,l)
);
}
);
width = 729;
}
);
unicode = 86;
}
{
color = 4;
glyphname = W;
layers = (
{
anchors = (
{
name = bottom;
pos = (513,0);
},
{
name = top;
pos = (513,758);
}
);
layerId = "E777F328-EA17-4AE7-9EBA-8002E537BA4F";
name = Light;
shapes = (
{
closed = 1;
nodes = (
(313,-10,l),
(375,-10,l),
(521,527,l),
(674,-10,l),
(732,-10,l),
(942,714,l),
(1020,721,l),
(1020,758,l),
(792,758,l),
(792,721,l),
(881,714,l),
(738,173,l),
(715,73,l),
(692,161,l),
(544,714,l),
(637,721,l),
(637,758,l),
(387,758,l),
(387,721,l),
(468,714,l),
(494,625,l),
(377,163,l),
(350,76,l),
(340,106,o),
(331,137,o),
(321,167,c),
(149,714,l),
(246,721,l),
(246,758,l),
(2,758,l),
(2,721,l),
(69,714,l)
);
}
);
width = 1026;
},
{
anchors = (
{
name = bottom;
pos = (513,0);
},
{
name = top;
pos = (513,758);
}
);
layerId = "39185045-6A8C-415A-8312-7B8F11386A4C";
name = Regular;
shapes = (
{
closed = 1;
nodes = (
(305,-10,l),
(385,-10,l),
(524,486,l),
(664,-10,l),
(743,-10,l),
(951,702,l),
(1023,710,l),
(1023,758,l),
(787,758,l),
(787,710,l),
(872,702,l),
(744,208,l),
(719,96,l),
(695,189,l),
(563,702,l),
(647,710,l),
(647,758,l),
(381,758,l),
(381,710,l),
(460,702,l),
(488,614,l),
(384,193,l),
(354,104,l),
(344,136,o),
(334,167,o),
(324,199,cs),
(171,702,l),
(264,710,l),
(264,758,l),
(2,758,l),
(2,710,l),
(66,702,l)
);
}
);
width = 1026;
},
{
anchors = (
{
name = bottom;
pos = (557,0);
},
{
name = top;
pos = (557,758);
}
);
layerId = "B26750D4-52C5-4F85-819B-BFB2F142DAD5";
name = Bold;
shapes = (
{
closed = 1;
nodes = (
(287,-7,l),
(443,-7,l),
(551,386,l),
(663,-8,l),
(830,-8,l),
(1033,668,l),
(1106,678,l),
(1106,758,l),
(821,758,l),
(821,678,l),
(894,668,l),
(785,217,l),
(765,133,l),
(747,217,l),
(647,667,l),
(727,679,l),
(727,758,l),
(411,758,l),
(411,678,l),
(475,668,l),
(494,591,l),
(401,217,l),
(385,135,l),
(379,162,o),
(374,189,o),
(369,217,c),
(254,668,l),
(313,679,l),
(313,758,l),
(7,758,l),
(7,678,l),
(68,668,l)
);
}
);
width = 1114;
}
);
unicode = 87;
}
{
color = 4;
glyphname = X;
layers = (
{
anchors = (
{
name = bottom;
pos = (347,0);
},
{
name = top;
pos = (367,758);
}
);
layerId = "E777F328-EA17-4AE7-9EBA-8002E537BA4F";
name = Light;
shapes = (
{
closed = 1;
nodes = (
(7,0,l),
(261,0,l),
(261,33,l),
(163,44,l),
(335,348,l),
(518,44,l),
(419,33,l),
(419,0,l),
(688,0,l),
(688,33,l),
(600,44,l),
(386,396,l),
(597,714,l),
(670,721,l),
(670,758,l),
(446,758,l),
(446,721,l),
(530,714,l),
(359,427,l),
(191,714,l),
(285,721,l),
(285,758,l),
(27,758,l),
(27,721,l),
(104,714,l),
(311,386,l),
(94,44,l),
(7,33,l)
);
}
);
width = 693;
},
{
anchors = (
{
name = bottom;
pos = (347,0);
},
{
name = top;
pos = (377,758);
}
);
layerId = "39185045-6A8C-415A-8312-7B8F11386A4C";
name = Regular;
shapes = (
{
closed = 1;
nodes = (
(7,0,l),
(275,0,l),
(275,42,l),
(182,56,l),
(335,333,l),
(506,56,l),
(415,42,l),
(415,0,l),
(696,0,l),
(696,42,l),
(615,56,l),
(400,400,l),
(604,703,l),
(674,710,l),
(674,758,l),
(441,758,l),
(441,710,l),
(516,702,l),
(365,439,l),
(212,702,l),
(299,710,l),
(299,758,l),
(25,758,l),
(25,710,l),
(98,702,l),
(303,381,l),
(94,56,l),
(7,42,l)
);
}
);
width = 693;
},
{
anchors = (
{
name = bottom;
pos = (379,0);
},
{
name = top;
pos = (409,758);
}
);
layerId = "B26750D4-52C5-4F85-819B-BFB2F142DAD5";
name = Bold;
shapes = (
{
closed = 1;
nodes = (
(12,0,l),
(338,0,l),
(338,67,l),
(247,89,l),
(361,281,l),
(474,86,l),
(404,67,l),
(404,0,l),
(747,0,l),
(747,67,l),
(667,90,l),
(447,400,l),
(653,667,l),
(747,678,l),
(747,758,l),
(442,758,l),
(442,678,l),
(509,668,l),
(390,476,l),
(286,668,l),
(357,680,l),
(357,758,l),
(12,758,l),
(12,678,l),
(90,667,l),
(298,365,l),
(98,89,l),
(12,67,l)
);
}
);
width = 758;
}
);
unicode = 88;
}
{
color = 4;
glyphname = Y;
layers = (
{
anchors = (
{
name = bottom;
pos = (330,0);
},
{
name = top;
pos = (330,758);
},
{
name = topleft;
pos = (20,758);
}
);
layerId = "E777F328-EA17-4AE7-9EBA-8002E537BA4F";
name = Light;
shapes = (
{
closed = 1;
nodes = (
(206,0,l),
(480,0,l),
(480,33,l),
(377,45,l),
(377,311,l),
(587,710,l),
(653,721,l),
(653,758,l),
(442,758,l),
(442,721,l),
(526,713,l),
(370,405,l),
(346,353,l),
(320,405,l),
(148,714,l),
(230,721,l),
(230,758,l),
(6,758,l),
(6,721,l),
(65,714,l),
(305,313,l),
(305,45,l),
(206,33,l)
);
}
);
width = 660;
},
{
anchors = (
{
name = bottom;
pos = (330,0);
},
{
name = top;
pos = (330,758);
},
{
name = topleft;
pos = (20,758);
}
);
layerId = "39185045-6A8C-415A-8312-7B8F11386A4C";
name = Regular;
shapes = (
{
closed = 1;
nodes = (
(196,0,l),
(496,0,l),
(496,42,l),
(391,57,l),
(391,311,l),
(590,697,l),
(654,710,l),
(654,758,l),
(429,758,l),
(429,710,l),
(512,701,l),
(372,414,l),
(350,363,l),
(326,413,l),
(171,702,l),
(246,710,l),
(246,758,l),
(6,758,l),
(6,710,l),
(62,702,l),
(296,312,l),
(296,57,l),
(196,42,l)
);
}
);
width = 660;
},
{
anchors = (
{
name = bottom;
pos = (362,0);
},
{
name = top;
pos = (362,758);
},
{
name = topleft;
pos = (20,758);
}
);
layerId = "B26750D4-52C5-4F85-819B-BFB2F142DAD5";
name = Bold;
shapes = (
{
closed = 1;
nodes = (
(170,0,l),
(593,0,l),
(593,68,l),
(461,92,l),
(461,265,l),
(652,660,l),
(716,678,l),
(716,758,l),
(441,758,l),
(442,678,l),
(520,666,l),
(416,415,l),
(399,365,l),
(385,411,l),
(262,670,l),
(314,680,l),
(314,758,l),
(6,758,l),
(6,678,l),
(60,669,l),
(288,250,l),
(288,90,l),
(170,68,l)
);
}
);
width = 723;
}
);
unicode = 89;
}
{
color = 4;
glyphname = Z;
layers = (
{
anchors = (
{
name = bottom;
pos = (330,0);
},
{
name = center;
pos = (330,379);
},
{
name = top;
pos = (330,758);
}
);
layerId = "E777F328-EA17-4AE7-9EBA-8002E537BA4F";
name = Light;
shapes = (
{
closed = 1;
nodes = (
(93,759,l),
(79,606,l),
(119,600,l),
(157,709,l),
(540,718,l),
(482,647,l),
(48,34,l),
(60,0,l),
(595,0,l),
(630,170,l),
(591,179,l),
(535,56,l),
(131,42,l),
(193,121,l),
(620,726,l),
(608,759,l)
);
}
);
width = 660;
},
{
anchors = (
{
name = bottom;
pos = (330,0);
},
{
name = center;
pos = (330,379);
},
{
name = top;
pos = (330,758);
}
);
layerId = "39185045-6A8C-415A-8312-7B8F11386A4C";
name = Regular;
shapes = (
{
closed = 1;
nodes = (
(88,758,l),
(73,592,l),
(125,583,l),
(171,694,l),
(519,705,l),
(469,646,l),
(45,43,l),
(58,0,l),
(600,0,l),
(635,186,l),
(586,197,l),
(523,73,l),
(157,54,l),
(205,113,l),
(626,716,l),
(612,758,l)
);
}
);
width = 660;
},
{
anchors = (
{
name = bottom;
pos = (339,0);
},
{
name = center;
pos = (339,379);
},
{
name = top;
pos = (339,758);
}
);
layerId = "B26750D4-52C5-4F85-819B-BFB2F142DAD5";
name = Bold;
shapes = (
{
closed = 1;
nodes = (
(71,758,l),
(50,552,l),
(125,538,l),
(187,657,l),
(467,680,l),
(386,591,l),
(25,68,l),
(45,0,l),
(617,0,l),
(671,213,l),
(598,233,l),
(501,103,l),
(229,80,l),
(300,161,l),
(655,684,l),
(632,758,l)
);
}
);
width = 678;
}
);
unicode = 90;
}
{
glyphname = bracketleft;
layers = (
{
layerId = "E777F328-EA17-4AE7-9EBA-8002E537BA4F";
name = Light;
shapes = (
{
closed = 1;
nodes = (
(98,13,ls),
(98,-66,o),
(110,-87,o),
(169,-87,cs),
(216,-87,o),
(258,-80,o),
(301,-70,c),
(301,-38,l),
(159,-37,l),
(159,786,l),
(301,786,l),
(301,818,l),
(264,826,o),
(222,834,o),
(178,834,cs),
(110,834,o),
(98,816,o),
(98,727,cs)
);
}
);
width = 417;
},
{
layerId = "39185045-6A8C-415A-8312-7B8F11386A4C";
name = Regular;
shapes = (
{
closed = 1;
nodes = (
(98,29,ls),
(98,-67,o),
(115,-93,o),
(190,-93,cs),
(244,-93,o),
(278,-83,o),
(320,-72,c),
(319,-30,l),
(177,-29,l),
(177,785,l),
(319,785,l),
(320,827,l),
(278,837,o),
(244,848,o),
(190,848,cs),
(115,848,o),
(98,822,o),
(98,726,cs)
);
}
);
width = 417;
},
{
layerId = "B26750D4-52C5-4F85-819B-BFB2F142DAD5";
name = Bold;
shapes = (
{
closed = 1;
nodes = (
(126,54,ls),
(126,-71,o),
(162,-112,o),
(280,-112,cs),
(324,-112,o),
(396,-97,o),
(432,-77,c),
(430,-16,l),
(280,-14,l),
(280,783,l),
(430,783,l),
(431,843,l),
(380,862,o),
(326,881,o),
(279,881,cs),
(174,881,o),
(126,850,o),
(126,738,cs)
);
}
);
width = 546;
}
);
unicode = 91;
}
{
glyphname = backslash;
layers = (
{
layerId = "E777F328-EA17-4AE7-9EBA-8002E537BA4F";
name = Light;
shapes = (
{
closed = 1;
nodes = (
(15,781,l),
(284,-177,l),
(351,-177,l),
(82,781,l)
);
}
);
width = 398;
},
{
layerId = "39185045-6A8C-415A-8312-7B8F11386A4C";
name = Regular;
shapes = (
{
closed = 1;
nodes = (
(15,781,l),
(294,-177,l),
(384,-177,l),
(104,781,l)
);
}
);
width = 398;
},
{
layerId = "B26750D4-52C5-4F85-819B-BFB2F142DAD5";
name = Bold;
shapes = (
{
closed = 1;
nodes = (
(15,781,l),
(266,-177,l),
(389,-177,l),
(138,781,l)
);
}
);
width = 404;
}
);
unicode = 92;
}
{
glyphname = bracketright;
layers = (
{
layerId = "E777F328-EA17-4AE7-9EBA-8002E537BA4F";
name = Light;
shapes = (
{
closed = 1;
nodes = (
(117,-38,l),
(116,-70,l),
(159,-80,o),
(201,-87,o),
(248,-87,cs),
(307,-87,o),
(319,-66,o),
(319,13,cs),
(319,727,ls),
(319,816,o),
(307,834,o),
(239,834,cs),
(195,834,o),
(154,826,o),
(116,818,c),
(117,786,l),
(259,786,l),
(259,-37,l)
);
}
);
width = 419;
},
{
layerId = "39185045-6A8C-415A-8312-7B8F11386A4C";
name = Regular;
shapes = (
{
closed = 1;
nodes = (
(98,-30,l),
(98,-72,l),
(139,-83,o),
(174,-93,o),
(227,-93,cs),
(303,-93,o),
(320,-67,o),
(320,29,cs),
(320,726,ls),
(320,822,o),
(303,848,o),
(227,848,cs),
(174,848,o),
(139,837,o),
(98,827,c),
(98,785,l),
(240,785,l),
(240,-29,l)
);
}
);
width = 417;
},
{
layerId = "B26750D4-52C5-4F85-819B-BFB2F142DAD5";
name = Bold;
shapes = (
{
closed = 1;
nodes = (
(113,-16,l),
(111,-77,l),
(147,-97,o),
(219,-112,o),
(263,-112,cs),
(381,-112,o),
(417,-71,o),
(417,54,cs),
(417,738,ls),
(417,850,o),
(369,881,o),
(264,881,cs),
(217,881,o),
(163,862,o),
(112,843,c),
(113,783,l),
(263,783,l),
(263,-14,l)
);
}
);
width = 546;
}
);
unicode = 93;
}
{
glyphname = asciicircum;
layers = (
{
layerId = "E777F328-EA17-4AE7-9EBA-8002E537BA4F";
name = Light;
shapes = (
{
closed = 1;
nodes = (
(84,275,l),
(143,275,l),
(311,673,l),
(479,275,l),
(545,275,l),
(350,748,l),
(277,748,l)
);
}
);
width = 629;
},
{
layerId = "39185045-6A8C-415A-8312-7B8F11386A4C";
name = Regular;
shapes = (
{
closed = 1;
nodes = (
(87,275,l),
(163,275,l),
(317,647,l),
(472,275,l),
(558,275,l),
(370,748,l),
(274,748,l)
);
}
);
width = 645;
},
{
layerId = "B26750D4-52C5-4F85-819B-BFB2F142DAD5";
name = Bold;
shapes = (
{
closed = 1;
nodes = (
(89,275,l),
(224,275,l),
(359,596,l),
(488,275,l),
(644,275,l),
(452,748,l),
(286,748,l)
);
}
);
width = 733;
}
);
unicode = 94;
}
{
glyphname = underscore;
layers = (
{
layerId = "E777F328-EA17-4AE7-9EBA-8002E537BA4F";
name = Light;
shapes = (
{
closed = 1;
nodes = (
(-10,-94,l),
(-10,-148,l),
(701,-148,l),
(701,-94,l)
);
}
);
width = 691;
},
{
layerId = "39185045-6A8C-415A-8312-7B8F11386A4C";
name = Regular;
shapes = (
{
closed = 1;
nodes = (
(-10,-94,l),
(-10,-166,l),
(701,-166,l),
(701,-94,l)
);
}
);
width = 691;
},
{
layerId = "B26750D4-52C5-4F85-819B-BFB2F142DAD5";
name = Bold;
shapes = (
{
closed = 1;
nodes = (
(-10,-94,l),
(-10,-208,l),
(701,-208,l),
(701,-94,l)
);
}
);
width = 694;
}
);
unicode = 95;
}
{
color = 4;
glyphname = a;
layers = (
{
anchors = (
{
name = bottom;
pos = (280,0);
},
{
name = ogonek;
pos = (503,10);
},
{
name = top;
pos = (280,546);
}
);
background = {
shapes = (
{
closed = 1;
nodes = (
(226,556,o),
(126,537,o),
(78,497,c),
(92,462,l),
(128,485,o),
(200,506,o),
(249,506,cs),
(338,506,o),
(393,477,o),
(393,368,cs),
(393,325,l),
(271,325,o),
(68,288,o),
(57,152,cs),
(50,47,o),
(134,-11,o),
(221,-11,cs),
(308,-11,o),
(361,18,o),
(397,59,c),
(397,39,ls),
(397,-5,o),
(420,-8,o),
(443,-8,cs),
(477,-8,o),
(508,-1,o),
(527,8,c),
(527,35,l),
(463,35,l),
(464,377,ls),
(464,521,o),
(377,556,o),
(273,556,cs)
);
},
{
closed = 1;
nodes = (
(393,216,o),
(393,135,o),
(393,88,c),
(375,73,o),
(327,37,o),
(257,37,cs),
(181,37,o),
(127,71,o),
(128,151,cs),
(128,257,o),
(288,285,o),
(393,285,c)
);
}
);
};
layerId = "E777F328-EA17-4AE7-9EBA-8002E537BA4F";
name = Light;
shapes = (
{
closed = 1;
nodes = (
(226,556,o),
(126,537,o),
(78,497,c),
(92,462,l),
(128,485,o),
(200,506,o),
(249,506,cs),
(338,506,o),
(393,477,o),
(393,368,cs),
(393,325,l),
(268,325,o),
(57,286,o),
(57,140,cs),
(57,43,o),
(137,-11,o),
(221,-11,cs),
(308,-11,o),
(361,18,o),
(397,59,c),
(397,8,o),
(401,-8,o),
(443,-8,cs),
(477,-8,o),
(508,-1,o),
(527,8,c),
(527,35,l),
(463,35,l),
(464,377,ls),
(464,521,o),
(377,556,o),
(273,556,cs)
);
},
{
closed = 1;
nodes = (
(393,88,l),
(375,73,o),
(327,37,o),
(257,37,cs),
(181,37,o),
(127,71,o),
(128,151,cs),
(128,257,o),
(288,285,o),
(393,285,c)
);
}
);
width = 559;
},
{
anchors = (
{
name = bottom;
pos = (280,0);
},
{
name = ogonek;
pos = (503,10);
},
{
name = top;
pos = (280,546);
}
);
background = {
shapes = (
{
closed = 1;
nodes = (
(226,556,o),
(127,538,o),
(79,498,c),
(97,454,l),
(142,476,o),
(201,491,o),
(239,491,cs),
(314,491,o),
(373,470,o),
(373,367,cs),
(373,325,l),
(282,325,o),
(71,293,o),
(58,157,cs),
(57,150,o),
(57,144,o),
(57,138,cs),
(57,55,o),
(121,-12,o),
(215,-12,cs),
(297,-12,o),
(348,16,o),
(378,53,c),
(378,6,o),
(388,-12,o),
(436,-12,cs),
(469,-12,o),
(505,-3,o),
(528,9,c),
(528,42,l),
(466,42,l),
(467,377,ls),
(467,519,o),
(378,556,o),
(275,556,cs)
);
},
{
closed = 1;
nodes = (
(372,92,l),
(352,72,o),
(306,50,o),
(268,50,cs),
(195,50,o),
(152,79,o),
(152,155,cs),
(152,250,o),
(290,274,o),
(373,274,c)
);
}
);
};
layerId = "39185045-6A8C-415A-8312-7B8F11386A4C";
name = Regular;
shapes = (
{
closed = 1;
nodes = (
(226,556,o),
(127,538,o),
(79,498,c),
(97,454,l),
(142,476,o),
(201,491,o),
(239,491,cs),
(314,491,o),
(373,470,o),
(373,367,cs),
(373,325,l),
(252,325,o),
(57,282,o),
(57,138,cs),
(57,55,o),
(121,-12,o),
(215,-12,cs),
(297,-12,o),
(348,16,o),
(378,53,c),
(378,6,o),
(388,-12,o),
(436,-12,cs),
(469,-12,o),
(505,-3,o),
(528,9,c),
(528,42,l),
(466,42,l),
(467,377,l),
(467,519,o),
(378,556,o),
(275,556,cs)
);
},
{
closed = 1;
nodes = (
(372,92,l),
(352,72,o),
(306,50,o),
(268,50,cs),
(195,50,o),
(152,79,o),
(152,155,cs),
(152,250,o),
(290,274,o),
(373,274,c)
);
}
);
width = 559;
},
{
anchors = (
{
name = bottom;
pos = (300,0);
},
{
name = ogonek;
pos = (539,10);
},
{
name = top;
pos = (300,546);
}
);
background = {
shapes = (
{
closed = 1;
nodes = (
(303,-14,o),
(348,10,o),
(382,42,c),
(383,19,o),
(399,4,o),
(417,-3,cs),
(436,-12,o),
(458,-14,o),
(470,-14,cs),
(489,-14,o),
(512,-12,o),
(535,-8,cs),
(558,-4,o),
(579,2,o),
(596,14,c),
(596,66,l),
(532,66,l),
(532,361,ls),
(532,441,o),
(509,491,o),
(469,521,cs),
(430,552,o),
(374,562,o),
(308,562,cs),
(239,562,o),
(182,552,o),
(140,539,cs),
(98,525,o),
(71,510,o),
(61,502,c),
(94,427,l),
(101,432,o),
(120,442,o),
(148,452,cs),
(177,461,o),
(213,469,o),
(255,469,cs),
(289,469,o),
(314,463,o),
(333,445,cs),
(350,426,o),
(359,395,o),
(359,343,c),
(327,343,o),
(284,339,o),
(240,329,cs),
(195,319,o),
(150,304,o),
(114,282,cs),
(77,260,o),
(50,230,o),
(41,192,cs),
(27,140,o),
(35,88,o),
(67,50,cs),
(99,12,o),
(155,-14,o),
(240,-14,cs)
);
},
{
closed = 1;
nodes = (
(246,72,o),
(209,101,o),
(209,164,cs),
(209,192,o),
(219,213,o),
(235,229,cs),
(250,244,o),
(271,254,o),
(293,260,cs),
(315,266,o),
(339,268,o),
(359,268,c),
(359,240,o),
(359,212,o),
(359,185,cs),
(359,157,o),
(359,128,o),
(359,101,c),
(347,91,o),
(333,84,o),
(315,82,cs)
);
}
);
};
layerId = "B26750D4-52C5-4F85-819B-BFB2F142DAD5";
name = Bold;
shapes = (
{
closed = 1;
nodes = (
(227,562,o),
(112,543,o),
(61,502,c),
(94,427,l),
(129,452,o),
(200,469,o),
(255,469,cs),
(333,469,o),
(358,435,o),
(359,349,c),
(359,343,l),
(199,343,o),
(34,282,o),
(34,143,cs),
(34,42,o),
(121,-14,o),
(240,-14,cs),
(303,-14,o),
(348,10,o),
(382,42,c),
(386,6,o),
(421,-14,o),
(470,-14,cs),
(509,-14,o),
(567,-7,o),
(596,14,c),
(596,66,l),
(532,66,l),
(532,361,ls),
(532,506,o),
(456,562,o),
(308,562,cs)
);
},
{
closed = 1;
nodes = (
(359,101,l),
(340,85,o),
(317,80,o),
(290,80,cs),
(237,80,o),
(209,109,o),
(209,164,cs),
(209,238,o),
(279,268,o),
(359,268,c)
);
}
);
width = 599;
}
);
unicode = 97;
}
{
color = 4;
glyphname = b;
layers = (
{
anchors = (
{
name = bottom;
pos = (309,0);
},
{
name = center;
pos = (154,837);
},
{
name = top;
pos = (309,546);
}
);
layerId = "E777F328-EA17-4AE7-9EBA-8002E537BA4F";
name = Light;
shapes = (
{
closed = 1;
nodes = (
(105,24,l),
(118,10,o),
(197,-14,o),
(289,-14,cs),
(454,-14,o),
(565,124,o),
(565,295,cs),
(565,490,o),
(458,563,o),
(348,563,cs),
(272,563,o),
(214,529,o),
(175,498,c),
(175,784,l),
(158,792,l),
(21,778,l),
(21,745,l),
(105,732,l)
);
},
{
closed = 1;
nodes = (
(175,458,l),
(207,487,o),
(263,511,o),
(319,511,cs),
(411,511,o),
(497,450,o),
(495,278,cs),
(494,108,o),
(397,27,o),
(298,27,cs),
(242,27,o),
(186,38,o),
(175,65,c)
);
}
);
width = 617;
},
{
anchors = (
{
name = bottom;
pos = (309,0);
},
{
name = center;
pos = (154,837);
},
{
name = top;
pos = (309,546);
}
);
layerId = "39185045-6A8C-415A-8312-7B8F11386A4C";
name = Regular;
shapes = (
{
closed = 1;
nodes = (
(99,24,l),
(112,10,o),
(200,-14,o),
(292,-14,cs),
(457,-14,o),
(568,129,o),
(568,295,cs),
(568,490,o),
(461,563,o),
(352,563,cs),
(276,563,o),
(228,530,o),
(193,500,c),
(193,785,l),
(173,793,l),
(16,776,l),
(16,733,l),
(99,716,l)
);
},
{
closed = 1;
nodes = (
(193,449,l),
(214,469,o),
(256,495,o),
(313,495,cs),
(394,495,o),
(478,435,o),
(475,278,cs),
(473,111,o),
(388,38,o),
(303,38,cs),
(247,38,o),
(203,50,o),
(193,77,c)
);
}
);
width = 617;
},
{
anchors = (
{
name = bottom;
pos = (324,0);
},
{
name = center;
pos = (162,837);
},
{
name = top;
pos = (324,546);
}
);
background = {
shapes = (
{
closed = 1;
nodes = (
(398,-14,o),
(475,24,o),
(529,81,cs),
(583,138,o),
(612,216,o),
(612,295,cs),
(612,393,o),
(583,459,o),
(539,502,cs),
(494,544,o),
(435,562,o),
(374,562,cs),
(321,562,o),
(277,549,o),
(246,531,c),
(246,787,l),
(218,795,l),
(12,772,l),
(12,704,l),
(73,676,l),
(73,27,l),
(76,24,o),
(85,20,o),
(101,15,c),
(115,10,o),
(133,6,o),
(155,1,cs),
(198,-7,o),
(253,-14,o),
(304,-14,cs)
);
},
{
closed = 1;
nodes = (
(298,57,o),
(282,63,o),
(270,72,cs),
(257,80,o),
(250,90,o),
(246,98,c),
(246,467,l),
(261,473,o),
(280,477,o),
(307,477,cs),
(338,477,o),
(372,461,o),
(397,429,cs),
(423,396,o),
(440,347,o),
(438,277,cs),
(436,189,o),
(420,134,o),
(398,101,cs),
(377,68,o),
(349,57,o),
(322,57,cs)
);
}
);
};
layerId = "B26750D4-52C5-4F85-819B-BFB2F142DAD5";
name = Bold;
shapes = (
{
closed = 1;
nodes = (
(73,27,l),
(109,5,o),
(220,-14,o),
(304,-14,cs),
(478,-14,o),
(612,121,o),
(612,295,cs),
(612,458,o),
(527,562,o),
(374,562,cs),
(321,562,o),
(277,549,o),
(246,531,c),
(246,787,l),
(218,795,l),
(12,772,l),
(12,704,l),
(73,676,l)
);
},
{
closed = 1;
nodes = (
(246,467,l),
(261,473,o),
(280,477,o),
(307,477,cs),
(392,477,o),
(441,382,o),
(438,277,cs),
(435,166,o),
(408,57,o),
(322,57,cs),
(289,57,o),
(259,72,o),
(246,98,c)
);
}
);
width = 648;
}
);
unicode = 98;
}
{
color = 4;
glyphname = c;
layers = (
{
anchors = (
{
name = bottom;
pos = (271,0);
},
{
name = top;
pos = (317,546);
}
);
layerId = "E777F328-EA17-4AE7-9EBA-8002E537BA4F";
name = Light;
shapes = (
{
closed = 1;
nodes = (
(167,555,o),
(51,443,o),
(52,263,cs),
(54,106,o),
(136,-10,o),
(285,-10,cs),
(358,-10,o),
(435,9,o),
(473,43,c),
(459,78,l),
(428,55,o),
(357,41,o),
(313,41,cs),
(217,41,o),
(119,111,o),
(121,296,cs),
(122,439,o),
(210,517,o),
(311,517,cs),
(344,517,o),
(379,512,o),
(402,495,c),
(422,432,l),
(458,432,l),
(458,537,l),
(432,554,o),
(371,563,o),
(317,561,cs)
);
}
);
width = 513;
},
{
anchors = (
{
name = bottom;
pos = (271,0);
},
{
name = top;
pos = (335,546);
}
);
layerId = "39185045-6A8C-415A-8312-7B8F11386A4C";
name = Regular;
shapes = (
{
closed = 1;
nodes = (
(167,555,o),
(50,443,o),
(51,263,cs),
(53,106,o),
(136,-10,o),
(287,-10,cs),
(360,-10,o),
(438,9,o),
(476,43,c),
(459,86,l),
(432,70,o),
(370,57,o),
(319,57,cs),
(237,57,o),
(140,128,o),
(141,306,cs),
(143,440,o),
(220,504,o),
(307,504,cs),
(331,504,o),
(366,498,o),
(387,481,c),
(412,419,l),
(458,419,l),
(458,537,l),
(432,554,o),
(373,563,o),
(317,561,cs)
);
}
);
width = 510;
},
{
anchors = (
{
name = bottom;
pos = (301,0);
},
{
name = top;
pos = (347,546);
}
);
layerId = "B26750D4-52C5-4F85-819B-BFB2F142DAD5";
name = Bold;
shapes = (
{
closed = 1;
nodes = (
(169,562,o),
(37,443,o),
(37,260,cs),
(37,96,o),
(139,-14,o),
(308,-14,cs),
(407,-14,o),
(486,11,o),
(538,56,c),
(512,117,l),
(481,94,o),
(420,83,o),
(375,83,cs),
(270,83,o),
(216,167,o),
(216,288,cs),
(216,390,o),
(247,486,o),
(328,486,cs),
(349,486,o),
(374,485,o),
(392,474,c),
(431,382,l),
(520,382,l),
(520,537,l),
(488,554,o),
(406,562,o),
(357,562,cs)
);
}
);
width = 554;
}
);
unicode = 99;
}
{
color = 4;
glyphname = d;
layers = (
{
anchors = (
{
name = bottom;
pos = (310,0);
},
{
name = center;
pos = (465,837);
},
{
name = top;
pos = (310,546);
},
{
name = topright;
pos = (600,1046);
}
);
background = {
shapes = (
{
closed = 1;
nodes = (
(342,776,l),
(342,743,l),
(442,731,l),
(442,542,l),
(421,549,o),
(391,563,o),
(332,563,cs),
(177,563,o),
(52,438,o),
(52,264,cs),
(52,73,o),
(154,-12,o),
(268,-12,cs),
(359,-12,o),
(419,23,o),
(445,46,c),
(445,3,o),
(450,-11,o),
(490,-11,cs),
(517,-11,o),
(558,-4,o),
(579,5,c),
(579,35,l),
(513,35,l),
(513,782,l),
(494,792,l)
);
},
{
closed = 1;
nodes = (
(403,521,o),
(429,494,o),
(442,480,c),
(442,89,l),
(426,74,o),
(397,54,o),
(351,45,cs),
(333,42,o),
(315,40,o),
(295,40,cs),
(199,40,o),
(120,119,o),
(123,281,cs),
(125,450,o),
(228,521,o),
(324,521,cs)
);
}
);
};
layerId = "E777F328-EA17-4AE7-9EBA-8002E537BA4F";
name = Light;
shapes = (
{
closed = 1;
nodes = (
(342,776,l),
(342,743,l),
(442,731,l),
(442,542,l),
(421,549,o),
(391,563,o),
(332,563,cs),
(177,563,o),
(52,438,o),
(52,264,cs),
(52,73,o),
(154,-12,o),
(268,-12,cs),
(359,-12,o),
(419,23,o),
(445,46,c),
(445,3,o),
(450,-11,o),
(490,-11,cs),
(517,-11,o),
(558,-4,o),
(579,5,c),
(579,35,l),
(513,35,l),
(513,782,l),
(494,792,l)
);
},
{
closed = 1;
nodes = (
(403,521,o),
(429,494,o),
(442,480,c),
(442,89,l),
(404,54,o),
(348,40,o),
(295,40,cs),
(199,40,o),
(120,119,o),
(123,281,cs),
(125,450,o),
(228,521,o),
(324,521,cs)
);
}
);
width = 620;
},
{
anchors = (
{
name = bottom;
pos = (310,0);
},
{
name = center;
pos = (465,837);
},
{
name = top;
pos = (310,546);
},
{
name = topright;
pos = (600,1046);
}
);
background = {
shapes = (
{
closed = 1;
nodes = (
(319,773,l),
(319,730,l),
(423,713,l),
(423,550,l),
(400,558,o),
(366,563,o),
(331,563,cs),
(173,563,o),
(49,438,o),
(49,264,cs),
(49,74,o),
(153,-12,o),
(262,-12,cs),
(350,-12,o),
(407,25,o),
(427,47,c),
(427,-2,o),
(438,-16,o),
(480,-16,cs),
(514,-16,o),
(561,-7,o),
(583,5,c),
(583,42,l),
(517,42,l),
(517,782,l),
(495,793,l)
);
},
{
closed = 1;
nodes = (
(382,511,o),
(409,488,o),
(423,472,c),
(423,98,l),
(408,83,o),
(386,69,o),
(354,62,cs),
(338,58,o),
(321,55,o),
(300,55,cs),
(219,55,o),
(140,128,o),
(142,288,cs),
(144,458,o),
(246,511,o),
(319,511,cs)
);
}
);
};
layerId = "39185045-6A8C-415A-8312-7B8F11386A4C";
name = Regular;
shapes = (
{
closed = 1;
nodes = (
(319,773,l),
(319,730,l),
(423,713,l),
(423,550,l),
(400,558,o),
(366,563,o),
(331,563,cs),
(173,563,o),
(49,438,o),
(49,264,cs),
(49,74,o),
(153,-12,o),
(262,-12,cs),
(350,-12,o),
(407,25,o),
(427,47,c),
(427,-2,o),
(438,-16,o),
(480,-16,cs),
(514,-16,o),
(561,-7,o),
(583,5,c),
(583,42,l),
(517,42,l),
(517,782,l),
(495,793,l)
);
},
{
closed = 1;
nodes = (
(382,511,o),
(409,488,o),
(423,472,c),
(423,98,l),
(394,69,o),
(344,55,o),
(300,55,cs),
(219,55,o),
(140,128,o),
(142,288,cs),
(144,458,o),
(246,511,o),
(319,511,cs)
);
}
);
width = 620;
},
{
anchors = (
{
name = bottom;
pos = (338,0);
},
{
name = center;
pos = (506,837);
},
{
name = top;
pos = (338,546);
},
{
name = topright;
pos = (655,1046);
}
);
background = {
shapes = (
{
closed = 1;
nodes = (
(310,-14,o),
(343,-9,o),
(368,-3,cs),
(394,3,o),
(412,12,o),
(425,21,c),
(438,-1,o),
(463,-14,o),
(506,-14,cs),
(583,-14,o),
(632,2,o),
(654,14,c),
(654,66,l),
(585,66,l),
(585,783,l),
(553,796,l),
(304,772,l),
(304,704,l),
(412,676,l),
(412,558,l),
(387,562,o),
(369,562,o),
(354,562,cs),
(266,562,o),
(187,531,o),
(129,479,cs),
(72,426,o),
(36,352,o),
(36,264,cs),
(36,198,o),
(50,145,o),
(73,104,cs),
(96,63,o),
(128,34,o),
(163,15,cs),
(197,-5,o),
(234,-14,o),
(268,-14,cs)
);
},
{
closed = 1;
nodes = (
(333,65,o),
(322,67,o),
(311,72,cs),
(284,82,o),
(259,107,o),
(242,146,cs),
(224,184,o),
(214,235,o),
(216,301,cs),
(216,358,o),
(228,398,o),
(242,427,cs),
(257,456,o),
(276,473,o),
(294,483,cs),
(312,493,o),
(328,496,o),
(338,496,cs),
(361,496,o),
(389,494,o),
(412,479,c),
(412,75,l),
(397,69,o),
(375,65,o),
(345,65,cs)
);
}
);
};
layerId = "B26750D4-52C5-4F85-819B-BFB2F142DAD5";
name = Bold;
shapes = (
{
closed = 1;
nodes = (
(304,772,l),
(304,704,l),
(412,676,l),
(412,558,l),
(387,562,o),
(369,562,o),
(354,562,cs),
(180,562,o),
(36,441,o),
(36,264,cs),
(36,110,o),
(126,-14,o),
(268,-14,cs),
(320,-14,o),
(386,-6,o),
(425,21,c),
(438,-1,o),
(463,-14,o),
(506,-14,cs),
(583,-14,o),
(632,2,o),
(654,14,c),
(654,66,l),
(585,66,l),
(585,783,l),
(553,796,l)
);
},
{
closed = 1;
nodes = (
(361,496,o),
(389,494,o),
(412,479,c),
(412,75,l),
(397,69,o),
(375,65,o),
(345,65,cs),
(252,65,o),
(213,188,o),
(216,301,cs),
(216,392,o),
(255,496,o),
(338,496,cs)
);
}
);
width = 675;
}
);
unicode = 100;
}
{
color = 4;
glyphname = e;
layers = (
{
anchors = (
{
name = bottom;
pos = (310,0);
},
{
name = ogonek;
pos = (503,10);
},
{
name = top;
pos = (310,546);
}
);
background = {
shapes = (
{
closed = 1;
nodes = (
(162,560,o),
(50,438,o),
(50,271,cs),
(50,100,o),
(136,-12,o),
(293,-12,cs),
(368,-12,o),
(455,9,o),
(493,43,c),
(478,77,l),
(450,58,o),
(381,39,o),
(319,39,cs),
(210,39,o),
(120,112,o),
(122,275,cs),
(122,277,o),
(122,278,o),
(122,280,c),
(501,280,l),
(505,301,o),
(508,326,o),
(506,359,cs),
(504,489,o),
(430,564,o),
(318,563,cs)
);
},
{
closed = 1;
nodes = (
(326,522,o),
(348,517,o),
(366,507,cs),
(422,477,o),
(437,406,o),
(432,324,c),
(124,324,l),
(137,456,o),
(210,522,o),
(300,522,cs)
);
}
);
};
layerId = "E777F328-EA17-4AE7-9EBA-8002E537BA4F";
name = Light;
shapes = (
{
closed = 1;
nodes = (
(162,560,o),
(50,438,o),
(50,271,cs),
(50,100,o),
(136,-12,o),
(293,-12,cs),
(368,-12,o),
(455,9,o),
(493,43,c),
(478,77,l),
(450,58,o),
(381,39,o),
(319,39,cs),
(187,39,o),
(122,135,o),
(122,280,c),
(501,280,l),
(505,301,o),
(508,326,o),
(506,359,cs),
(504,489,o),
(430,564,o),
(318,563,cs)
);
},
{
closed = 1;
nodes = (
(326,522,o),
(348,517,o),
(366,507,cs),
(422,477,o),
(437,406,o),
(432,324,c),
(124,324,l),
(137,456,o),
(210,522,o),
(300,522,cs)
);
}
);
width = 559;
},
{
anchors = (
{
name = bottom;
pos = (300,0);
},
{
name = ogonek;
pos = (503,10);
},
{
name = top;
pos = (300,546);
}
);
layerId = "39185045-6A8C-415A-8312-7B8F11386A4C";
name = Regular;
shapes = (
{
closed = 1;
nodes = (
(159,559,o),
(49,438,o),
(49,271,cs),
(49,100,o),
(137,-12,o),
(294,-12,cs),
(369,-12,o),
(456,9,o),
(494,43,c),
(476,84,l),
(448,68,o),
(382,55,o),
(332,55,cs),
(210,55,o),
(142,137,o),
(142,266,c),
(504,266,l),
(507,290,o),
(511,318,o),
(510,359,cs),
(504,488,o),
(434,565,o),
(319,563,cs)
);
},
{
closed = 1;
nodes = (
(321,510,o),
(342,505,o),
(359,494,cs),
(409,462,o),
(414,390,o),
(410,324,c),
(143,324,l),
(153,458,o),
(220,510,o),
(293,510,cs)
);
}
);
width = 559;
},
{
anchors = (
{
name = bottom;
pos = (333,0);
},
{
name = ogonek;
pos = (545,10);
},
{
name = top;
pos = (333,546);
}
);
layerId = "B26750D4-52C5-4F85-819B-BFB2F142DAD5";
name = Bold;
shapes = (
{
closed = 1;
nodes = (
(158,562,o),
(36,437,o),
(36,259,cs),
(36,89,o),
(135,-10,o),
(313,-14,cs),
(389,-16,o),
(495,8,o),
(552,56,c),
(526,117,l),
(474,94,o),
(418,84,o),
(371,84,cs),
(274,84,o),
(225,144,o),
(216,259,c),
(556,259,l),
(560,286,o),
(564,317,o),
(563,358,cs),
(558,492,o),
(478,562,o),
(335,562,cs)
);
},
{
closed = 1;
nodes = (
(369,494,o),
(394,466,o),
(398,417,cs),
(400,391,o),
(397,361,o),
(395,337,c),
(216,337,l),
(223,422,o),
(249,494,o),
(320,494,cs)
);
}
);
width = 605;
}
);
unicode = 101;
}
{
color = 4;
glyphname = f;
layers = (
{
anchors = (
{
name = bottom;
pos = (205,0);
},
{
name = top;
pos = (205,1046);
}
);
layerId = "E777F328-EA17-4AE7-9EBA-8002E537BA4F";
name = Light;
shapes = (
{
closed = 1;
nodes = (
(58,0,l),
(346,0,l),
(346,33,l),
(229,41,l),
(229,486,l),
(388,486,l),
(388,537,l),
(229,537,l),
(229,616,ls),
(229,741,o),
(283,764,o),
(338,764,cs),
(381,764,o),
(410,757,o),
(422,750,c),
(422,813,l),
(410,818,o),
(391,821,o),
(352,821,cs),
(266,821,o),
(158,734,o),
(158,588,cs),
(158,537,l),
(47,516,l),
(47,486,l),
(158,486,l),
(158,42,l),
(58,33,l)
);
}
);
width = 409;
},
{
anchors = (
{
name = bottom;
pos = (205,0);
},
{
name = top;
pos = (205,1046);
}
);
layerId = "39185045-6A8C-415A-8312-7B8F11386A4C";
name = Regular;
shapes = (
{
closed = 1;
nodes = (
(54,0,l),
(358,0,l),
(358,42,l),
(246,51,l),
(246,480,l),
(393,480,l),
(393,546,l),
(246,546,l),
(246,627,ls),
(246,738,o),
(280,749,o),
(333,749,cs),
(379,749,o),
(413,739,o),
(422,733,c),
(422,816,l),
(415,820,o),
(396,825,o),
(352,825,cs),
(270,825,o),
(152,732,o),
(152,587,cs),
(152,546,l),
(44,518,l),
(44,480,l),
(152,480,l),
(152,52,l),
(54,42,l)
);
}
);
width = 409;
},
{
anchors = (
{
name = bottom;
pos = (231,0);
},
{
name = top;
pos = (231,1046);
}
);
background = {
shapes = (
{
closed = 1;
nodes = (
(35,0,l),
(404,0,l),
(404,66,l),
(287,81,l),
(287,446,l),
(434,446,l),
(434,546,l),
(287,546,l),
(287,639,ls),
(287,682,o),
(293,705,o),
(304,717,cs),
(314,729,o),
(331,731,o),
(352,731,cs),
(363,731,o),
(375,730,o),
(386,728,cs),
(410,723,o),
(431,716,o),
(446,710,cs),
(454,707,o),
(459,705,o),
(461,704,c),
(461,831,l),
(450,836,o),
(432,840,o),
(413,843,cs),
(394,845,o),
(374,847,o),
(356,847,cs),
(308,847,o),
(266,831,o),
(229,805,cs),
(193,779,o),
(165,744,o),
(145,705,cs),
(125,667,o),
(114,625,o),
(114,587,cs),
(114,536,l),
(25,497,l),
(25,446,l),
(114,446,l),
(114,81,l),
(35,66,l)
);
}
);
};
layerId = "B26750D4-52C5-4F85-819B-BFB2F142DAD5";
name = Bold;
shapes = (
{
closed = 1;
nodes = (
(35,0,l),
(404,0,l),
(404,66,l),
(287,81,l),
(287,446,l),
(434,446,l),
(434,546,l),
(287,546,l),
(287,639,ls),
(287,705,o),
(296,731,o),
(352,731,cs),
(380,731,o),
(436,717,o),
(461,704,c),
(461,831,l),
(439,841,o),
(387,847,o),
(356,847,cs),
(225,847,o),
(114,716,o),
(114,587,cs),
(114,536,l),
(25,497,l),
(25,446,l),
(114,446,l),
(114,81,l),
(35,66,l)
);
}
);
width = 462;
}
);
unicode = 102;
}
{
color = 4;
glyphname = g;
kernLeft = o;
layers = (
{
anchors = (
{
name = bottom;
pos = (294,-500);
},
{
name = top;
pos = (294,546);
}
);
layerId = "E777F328-EA17-4AE7-9EBA-8002E537BA4F";
name = Light;
shapes = (
{
closed = 1;
nodes = (
(180,564,o),
(70,501,o),
(70,368,cs),
(70,294,o),
(103,244,o),
(155,215,c),
(117,180,o),
(97,126,o),
(97,101,cs),
(97,75,o),
(96,39,o),
(146,20,c),
(112,-1,o),
(62,-54,o),
(62,-117,cs),
(62,-225,o),
(177,-259,o),
(300,-259,cs),
(450,-259,o),
(553,-191,o),
(553,-80,cs),
(553,-23,o),
(540,62,o),
(358,62,cs),
(320,62,o),
(254,61,o),
(235,63,c),
(181,66,o),
(161,83,o),
(161,128,cs),
(161,147,o),
(164,181,o),
(178,204,c),
(208,192,o),
(242,186,o),
(281,186,cs),
(396,186,o),
(498,258,o),
(498,386,cs),
(498,433,o),
(486,469,o),
(466,497,c),
(574,496,l),
(574,553,l),
(516,553,ls),
(471,553,o),
(444,544,o),
(430,531,c),
(393,557,o),
(345,568,o),
(292,567,cs)
);
},
{
closed = 1;
nodes = (
(197,6,o),
(225,3,o),
(261,3,cs),
(344,3,ls),
(473,1,o),
(496,-39,o),
(496,-98,cs),
(496,-181,o),
(413,-216,o),
(310,-216,cs),
(231,-216,o),
(131,-193,o),
(131,-94,cs),
(131,-42,o),
(152,-10,o),
(175,11,c)
);
},
{
closed = 1;
nodes = (
(378,527,o),
(429,479,o),
(429,374,cs),
(429,274,o),
(377,227,o),
(293,227,cs),
(188,227,o),
(139,292,o),
(139,380,cs),
(139,487,o),
(205,527,o),
(281,527,cs)
);
}
);
width = 587;
},
{
anchors = (
{
name = bottom;
pos = (294,-500);
},
{
name = top;
pos = (294,546);
}
);
layerId = "39185045-6A8C-415A-8312-7B8F11386A4C";
name = Regular;
shapes = (
{
closed = 1;
nodes = (
(184,564,o),
(71,503,o),
(71,368,cs),
(71,297,o),
(102,249,o),
(150,219,c),
(111,184,o),
(90,127,o),
(90,104,cs),
(90,76,o),
(86,40,o),
(145,19,c),
(110,-3,o),
(62,-54,o),
(62,-114,cs),
(62,-226,o),
(181,-259,o),
(298,-259,cs),
(459,-259,o),
(555,-185,o),
(555,-73,cs),
(555,-11,o),
(545,80,o),
(362,80,cs),
(306,80,o),
(266,80,o),
(236,83,cs),
(190,86,o),
(174,106,o),
(174,141,cs),
(174,154,o),
(171,183,o),
(179,204,c),
(209,192,o),
(244,186,o),
(282,186,cs),
(397,186,o),
(500,257,o),
(500,386,cs),
(500,423,o),
(492,455,o),
(478,479,c),
(574,479,l),
(574,553,l),
(515,553,ls),
(473,553,o),
(449,543,o),
(436,528,c),
(399,556,o),
(349,568,o),
(294,567,cs)
);
},
{
closed = 1;
nodes = (
(206,5,o),
(236,3,o),
(274,3,cs),
(336,2,ls),
(457,2,o),
(479,-34,o),
(479,-97,cs),
(479,-169,o),
(415,-204,o),
(310,-204,cs),
(226,-204,o),
(153,-171,o),
(153,-83,cs),
(153,-35,o),
(167,-9,o),
(182,9,c)
);
},
{
closed = 1;
nodes = (
(365,516,o),
(406,470,o),
(406,373,cs),
(406,283,o),
(377,238,o),
(296,238,cs),
(202,238,o),
(165,306,o),
(165,387,cs),
(165,485,o),
(216,516,o),
(281,516,cs)
);
}
);
width = 587;
},
{
anchors = (
{
name = bottom;
pos = (312,-500);
},
{
name = top;
pos = (312,546);
}
);
background = {
shapes = (
{
closed = 1;
nodes = (
(390,-259,o),
(472,-236,o),
(526,-199,cs),
(581,-162,o),
(608,-110,o),
(608,-54,cs),
(608,3,o),
(593,43,o),
(556,69,cs),
(518,94,o),
(459,105,o),
(373,105,cs),
(258,105,ls),
(213,105,o),
(188,121,o),
(188,161,cs),
(188,172,o),
(191,184,o),
(196,196,c),
(222,191,o),
(250,189,o),
(282,189,cs),
(355,189,o),
(418,205,o),
(463,237,cs),
(507,269,o),
(534,317,o),
(534,384,cs),
(534,406,o),
(531,426,o),
(525,444,c),
(626,444,l),
(626,562,l),
(583,562,ls),
(535,562,o),
(491,552,o),
(474,516,c),
(431,549,o),
(370,563,o),
(295,562,cs),
(154,560,o),
(33,497,o),
(33,368,cs),
(33,296,o),
(68,247,o),
(128,218,c),
(111,204,o),
(94,185,o),
(82,165,cs),
(70,145,o),
(62,125,o),
(62,109,cs),
(62,90,o),
(63,72,o),
(70,56,c),
(78,40,o),
(91,27,o),
(116,17,c),
(97,6,o),
(77,-11,o),
(61,-32,cs),
(45,-54,o),
(34,-82,o),
(34,-115,cs),
(34,-166,o),
(59,-202,o),
(102,-225,cs),
(146,-249,o),
(208,-259,o),
(284,-259,cs)
);
},
{
closed = 1;
nodes = (
(277,-182,o),
(243,-172,o),
(219,-153,cs),
(194,-134,o),
(180,-106,o),
(180,-67,cs),
(180,-35,o),
(186,-14,o),
(194,2,c),
(212,0,o),
(231,0,o),
(254,0,cs),
(340,0,ls),
(396,0,o),
(423,-13,o),
(437,-31,cs),
(451,-49,o),
(450,-73,o),
(450,-93,cs),
(450,-129,o),
(438,-151,o),
(416,-165,cs),
(394,-178,o),
(360,-182,o),
(317,-182,cs)
);
},
{
closed = 1;
nodes = (
(223,267,o),
(202,326,o),
(202,405,cs),
(202,458,o),
(234,494,o),
(285,494,cs),
(344,494,o),
(375,452,o),
(375,378,cs),
(375,320,o),
(353,267,o),
(294,267,cs)
);
}
);
};
layerId = "B26750D4-52C5-4F85-819B-BFB2F142DAD5";
name = Bold;
shapes = (
{
closed = 1;
nodes = (
(154,560,o),
(33,497,o),
(33,368,cs),
(33,296,o),
(68,247,o),
(128,218,c),
(97,192,o),
(62,144,o),
(62,109,cs),
(62,63,o),
(70,35,o),
(116,17,c),
(69,-10,o),
(34,-57,o),
(34,-115,cs),
(34,-224,o),
(146,-259,o),
(284,-259,cs),
(451,-259,o),
(608,-195,o),
(608,-54,cs),
(608,74,o),
(527,105,o),
(373,105,cs),
(335,105,o),
(296,105,o),
(258,105,cs),
(213,105,o),
(188,121,o),
(188,161,cs),
(188,172,o),
(191,184,o),
(196,196,c),
(222,191,o),
(250,189,o),
(282,189,cs),
(423,189,o),
(534,248,o),
(534,384,cs),
(534,406,o),
(531,426,o),
(525,444,c),
(626,444,l),
(626,562,l),
(583,562,ls),
(535,562,o),
(491,552,o),
(474,516,c),
(431,549,o),
(370,563,o),
(295,562,cs)
);
},
{
closed = 1;
nodes = (
(212,0,o),
(231,0,o),
(254,0,cs),
(340,0,ls),
(421,0,o),
(450,-20,o),
(450,-93,cs),
(450,-168,o),
(400,-182,o),
(317,-182,cs),
(241,-182,o),
(180,-146,o),
(180,-67,cs),
(180,-35,o),
(186,-14,o),
(194,2,c)
);
},
{
closed = 1;
nodes = (
(344,494,o),
(375,452,o),
(375,378,cs),
(375,320,o),
(353,267,o),
(294,267,cs),
(223,267,o),
(202,326,o),
(202,405,cs),
(202,458,o),
(234,494,o),
(285,494,cs)
);
}
);
width = 623;
}
);
unicode = 103;
}
{
color = 4;
glyphname = h;
layers = (
{
anchors = (
{
name = bottom;
pos = (343,0);
},
{
name = center;
pos = (172,837);
},
{
name = top;
pos = (343,1046);
}
);
layerId = "E777F328-EA17-4AE7-9EBA-8002E537BA4F";
name = Light;
shapes = (
{
closed = 1;
nodes = (
(64,0,l),
(285,0,l),
(285,33,l),
(208,42,l),
(208,449,l),
(254,481,o),
(328,503,o),
(377,503,cs),
(485,503,o),
(504,436,o),
(504,268,cs),
(504,42,l),
(423,33,l),
(423,0,l),
(650,0,l),
(650,33,l),
(575,42,l),
(575,296,ls),
(576,486,o),
(541,558,o),
(408,558,cs),
(354,558,o),
(264,524,o),
(207,480,c),
(208,552,l),
(208,782,l),
(189,792,l),
(55,776,l),
(55,742,l),
(138,730,l),
(138,42,l),
(64,33,l)
);
}
);
width = 686;
},
{
anchors = (
{
name = bottom;
pos = (343,0);
},
{
name = center;
pos = (172,837);
},
{
name = top;
pos = (343,1046);
}
);
layerId = "39185045-6A8C-415A-8312-7B8F11386A4C";
name = Regular;
shapes = (
{
closed = 1;
nodes = (
(61,0,l),
(299,0,l),
(299,42,l),
(228,52,l),
(228,444,l),
(273,476,o),
(327,485,o),
(370,485,cs),
(478,485,o),
(485,406,o),
(485,255,cs),
(485,52,l),
(403,42,l),
(403,0,l),
(652,0,l),
(652,42,l),
(579,52,l),
(579,296,ls),
(580,478,o),
(548,556,o),
(416,556,cs),
(364,556,o),
(282,528,o),
(225,482,c),
(227,566,l),
(228,782,l),
(205,793,l),
(50,773,l),
(50,730,l),
(134,713,l),
(134,52,l),
(61,42,l)
);
}
);
width = 686;
},
{
anchors = (
{
name = bottom;
pos = (348,0);
},
{
name = center;
pos = (174,837);
},
{
name = top;
pos = (348,1046);
}
);
layerId = "B26750D4-52C5-4F85-819B-BFB2F142DAD5";
name = Bold;
shapes = (
{
closed = 1;
nodes = (
(29,0,l),
(320,0,l),
(320,66,l),
(272,79,l),
(272,433,l),
(292,449,o),
(315,455,o),
(342,455,cs),
(427,455,o),
(433,387,o),
(433,282,cs),
(433,80,l),
(362,66,l),
(362,1,l),
(672,0,l),
(672,66,l),
(605,80,l),
(605,306,ls),
(607,461,o),
(586,562,o),
(443,562,cs),
(374,562,o),
(312,542,o),
(262,497,c),
(272,547,l),
(272,787,l),
(244,796,l),
(33,772,l),
(33,704,l),
(99,676,l),
(99,80,l),
(29,66,l)
);
}
);
width = 696;
}
);
unicode = 104;
}
{
color = 4;
glyphname = j;
kernLeft = i;
layers = (
{
layerId = "E777F328-EA17-4AE7-9EBA-8002E537BA4F";
name = Light;
shapes = (
{
closed = 1;
nodes = (
(74,523,l),
(74,499,l),
(148,474,l),
(148,-1,ls),
(148,-156,o),
(112,-198,o),
(49,-198,cs),
(38,-198,o),
(6,-197,o),
(-5,-193,c),
(-5,-244,l),
(1,-249,o),
(35,-251,o),
(48,-251,cs),
(156,-251,o),
(217,-160,o),
(217,-8,cs),
(217,544,l),
(198,553,l)
);
},
{
closed = 1;
nodes = (
(146,791,o),
(116,768,o),
(116,735,cs),
(116,705,o),
(140,688,o),
(165,688,cs),
(194,688,o),
(222,709,o),
(222,743,cs),
(222,770,o),
(208,791,o),
(174,791,cs)
);
}
);
width = 317;
},
{
layerId = "39185045-6A8C-415A-8312-7B8F11386A4C";
name = Regular;
shapes = (
{
closed = 1;
nodes = (
(66,517,l),
(66,488,l),
(134,452,l),
(134,-1,ls),
(134,-138,o),
(112,-182,o),
(49,-182,cs),
(38,-182,o),
(6,-181,o),
(-4,-177,c),
(-4,-244,l),
(1,-249,o),
(35,-251,o),
(49,-251,cs),
(157,-251,o),
(226,-160,o),
(226,-8,cs),
(226,546,l),
(204,556,l)
);
},
{
closed = 1;
nodes = (
(136,817,o),
(98,787,o),
(98,746,cs),
(98,708,o),
(127,686,o),
(159,686,cs),
(196,686,o),
(232,713,o),
(232,756,cs),
(232,790,o),
(213,817,o),
(170,817,cs)
);
}
);
width = 317;
},
{
background = {
shapes = (
{
closed = 1;
nodes = (
(-19,-155,l),
(-13,-157,o),
(-2,-158,o),
(10,-159,cs),
(22,-160,o),
(34,-161,o),
(40,-161,cs),
(65,-161,o),
(78,-147,o),
(86,-122,cs),
(93,-96,o),
(94,-56,o),
(94,-3,cs),
(94,384,l),
(40,456,l),
(40,499,l),
(227,562,l),
(267,549,l),
(267,-23,ls),
(267,-100,o),
(249,-160,o),
(218,-201,cs),
(186,-242,o),
(139,-265,o),
(82,-265,cs),
(59,-265,o),
(35,-261,o),
(16,-257,cs),
(7,-255,o),
(-1,-253,o),
(-8,-251,cs),
(-14,-250,o),
(-18,-248,o),
(-19,-247,c)
);
}
);
};
layerId = "B26750D4-52C5-4F85-819B-BFB2F142DAD5";
name = Bold;
shapes = (
{
closed = 1;
nodes = (
(40,499,ls),
(40,456,ls),
(94,384,ls),
(94,-3,l),
(94,-89,o),
(94,-161,o),
(40,-161,c),
(25,-161,o),
(-13,-157,o),
(-20,-155,cs),
(-20,-247,ls),
(-5,-254,o),
(48,-265,o),
(82,-265,c),
(205,-265,o),
(267,-163,o),
(267,-23,c),
(267,549,ls),
(227,562,ls)
);
},
{
closed = 1;
nodes = (
(118,848,o),
(56,801,o),
(56,739,c),
(56,684,o),
(101,647,o),
(156,647,c),
(220,647,o),
(275,694,o),
(275,756,c),
(275,812,o),
(239,848,o),
(175,848,c)
);
}
);
width = 334;
}
);
unicode = 106;
}
{
color = 4;
glyphname = k;
layers = (
{
anchors = (
{
name = bottom;
pos = (311,0);
},
{
name = top;
pos = (311,1046);
}
);
layerId = "E777F328-EA17-4AE7-9EBA-8002E537BA4F";
name = Light;
shapes = (
{
closed = 1;
nodes = (
(59,0,l),
(285,0,l),
(285,33,l),
(209,42,l),
(209,96,l),
(207,211,l),
(296,295,l),
(479,42,l),
(407,33,l),
(407,0,l),
(630,0,l),
(630,33,l),
(558,42,l),
(339,331,l),
(521,505,l),
(596,512,l),
(596,551,l),
(382,551,l),
(382,511,l),
(455,505,l),
(207,264,l),
(209,373,l),
(209,782,l),
(192,792,l),
(52,776,l),
(52,742,l),
(138,730,l),
(138,42,l),
(59,33,l)
);
}
);
width = 622;
},
{
anchors = (
{
name = bottom;
pos = (311,0);
},
{
name = top;
pos = (311,1046);
}
);
layerId = "39185045-6A8C-415A-8312-7B8F11386A4C";
name = Regular;
shapes = (
{
closed = 1;
nodes = (
(54,0,l),
(298,0,l),
(298,42,l),
(228,51,l),
(228,106,l),
(225,201,l),
(302,278,l),
(463,53,l),
(395,42,l),
(395,0,l),
(632,0,l),
(632,42,l),
(565,52,l),
(359,325,l),
(525,492,l),
(599,500,l),
(599,551,l),
(369,551,l),
(369,500,l),
(442,493,l),
(225,269,l),
(228,344,l),
(228,782,l),
(208,793,l),
(46,773,l),
(46,730,l),
(134,713,l),
(134,52,l),
(54,42,l)
);
}
);
width = 622;
},
{
anchors = (
{
name = bottom;
pos = (332,0);
},
{
name = top;
pos = (332,1046);
}
);
layerId = "B26750D4-52C5-4F85-819B-BFB2F142DAD5";
name = Bold;
shapes = (
{
closed = 1;
nodes = (
(34,0,l),
(329,0,l),
(329,66,l),
(271,79,l),
(271,137,l),
(267,177,l),
(317,234,l),
(399,81,l),
(358,67,l),
(358,0,l),
(647,0,l),
(647,67,l),
(597,77,l),
(430,337,l),
(548,450,l),
(647,459,l),
(647,546,l),
(335,546,l),
(335,459,l),
(425,449,l),
(266,278,l),
(272,347,l),
(272,783,l),
(242,796,l),
(21,764,l),
(21,695,l),
(99,660,l),
(99,81,l),
(34,66,l)
);
}
);
width = 663;
}
);
unicode = 107;
}
{
color = 4;
glyphname = l;
layers = (
{
anchors = (
{
name = bottom;
pos = (171,0);
},
{
name = center;
pos = (171,273);
},
{
name = top;
pos = (171,790);
},
{
name = topright;
pos = (321,1046);
}
);
layerId = "E777F328-EA17-4AE7-9EBA-8002E537BA4F";
name = Light;
shapes = (
{
closed = 1;
nodes = (
(67,0,l),
(305,0,l),
(305,33,l),
(219,41,l),
(219,782,l),
(202,792,l),
(69,776,l),
(69,742,l),
(148,730,l),
(148,42,l),
(67,33,l)
);
}
);
width = 341;
},
{
anchors = (
{
name = bottom;
pos = (171,0);
},
{
name = center;
pos = (171,273);
},
{
name = top;
pos = (171,790);
},
{
name = topright;
pos = (321,1046);
}
);
layerId = "39185045-6A8C-415A-8312-7B8F11386A4C";
name = Regular;
shapes = (
{
closed = 1;
nodes = (
(53,0,l),
(317,0,l),
(317,42,l),
(230,52,l),
(230,782,l),
(210,793,l),
(58,773,l),
(58,730,l),
(136,713,l),
(136,52,l),
(53,42,l)
);
}
);
width = 341;
},
{
anchors = (
{
name = bottom;
pos = (180,0);
},
{
name = center;
pos = (180,273);
},
{
name = top;
pos = (171,790);
},
{
name = topright;
pos = (339,1046);
}
);
layerId = "B26750D4-52C5-4F85-819B-BFB2F142DAD5";
name = Bold;
shapes = (
{
closed = 1;
nodes = (
(34,0,l),
(350,0,l),
(350,66,l),
(265,81,l),
(265,787,l),
(236,796,l),
(26,772,l),
(26,704,l),
(92,676,l),
(92,79,l),
(34,66,l)
);
}
);
width = 359;
}
);
unicode = 108;
}
{
color = 4;
glyphname = m;
kernLeft = n;
layers = (
{
anchors = (
{
name = bottom;
pos = (506,0);
},
{
name = top;
pos = (506,546);
}
);
layerId = "E777F328-EA17-4AE7-9EBA-8002E537BA4F";
name = Light;
shapes = (
{
closed = 1;
nodes = (
(68,0,l),
(285,0,l),
(285,33,l),
(208,42,l),
(208,443,l),
(258,477,o),
(323,501,o),
(371,502,cs),
(475,505,o),
(492,450,o),
(492,320,cs),
(492,42,l),
(417,33,l),
(417,0,l),
(639,0,l),
(639,33,l),
(562,42,l),
(562,328,ls),
(562,376,o),
(558,423,o),
(550,455,c),
(593,479,o),
(652,501,o),
(704,503,cs),
(811,505,o),
(830,445,o),
(830,311,cs),
(830,42,l),
(760,33,l),
(760,0,l),
(982,0,l),
(982,33,l),
(900,42,l),
(900,323,ls),
(900,497,o),
(859,560,o),
(737,556,cs),
(673,554,o),
(581,521,o),
(538,488,c),
(515,537,o),
(475,558,o),
(404,556,cs),
(336,555,o),
(245,513,o),
(199,477,c),
(199,544,l),
(182,553,l),
(65,524,l),
(65,499,l),
(137,473,l),
(137,42,l),
(68,33,l)
);
}
);
width = 1011;
},
{
anchors = (
{
name = bottom;
pos = (506,0);
},
{
name = top;
pos = (506,546);
}
);
layerId = "39185045-6A8C-415A-8312-7B8F11386A4C";
name = Regular;
shapes = (
{
closed = 1;
nodes = (
(67,0,l),
(301,0,l),
(301,42,l),
(229,52,l),
(229,434,l),
(278,468,o),
(325,483,o),
(360,485,cs),
(459,489,o),
(479,438,o),
(479,313,cs),
(479,52,l),
(406,42,l),
(406,0,l),
(648,0,l),
(648,42,l),
(573,51,l),
(573,328,ls),
(573,371,o),
(569,412,o),
(562,443,c),
(604,467,o),
(648,483,o),
(692,485,cs),
(792,489,o),
(810,431,o),
(810,306,cs),
(810,52,l),
(744,42,l),
(744,0,l),
(986,0,l),
(986,42,l),
(904,52,l),
(904,323,ls),
(904,491,o),
(863,560,o),
(741,556,cs),
(678,554,o),
(593,522,o),
(546,487,c),
(522,540,o),
(480,559,o),
(410,556,cs),
(344,554,o),
(260,515,o),
(216,477,c),
(216,546,l),
(194,556,l),
(64,518,l),
(64,487,l),
(134,449,l),
(134,52,l),
(67,42,l)
);
}
);
width = 1011;
},
{
anchors = (
{
name = bottom;
pos = (530,0);
},
{
name = top;
pos = (530,546);
}
);
layerId = "B26750D4-52C5-4F85-819B-BFB2F142DAD5";
name = Bold;
shapes = (
{
closed = 1;
nodes = (
(48,0,l),
(345,0,l),
(345,66,l),
(281,80,l),
(281,426,l),
(296,441,o),
(332,451,o),
(366,451,cs),
(438,451,o),
(455,403,o),
(455,311,cs),
(455,81,l),
(386,66,l),
(386,0,l),
(697,0,l),
(697,66,l),
(628,80,l),
(628,344,ls),
(628,389,o),
(626,410,o),
(623,426,c),
(643,439,o),
(671,451,o),
(694,451,cs),
(780,451,o),
(795,412,o),
(795,307,cs),
(795,80,l),
(738,66,l),
(738,0,l),
(1036,0,l),
(1036,66,l),
(968,80,l),
(968,329,ls),
(968,472,o),
(918,562,o),
(785,562,cs),
(717,562,o),
(654,534,o),
(604,486,c),
(577,548,o),
(513,567,o),
(438,563,cs),
(377,561,o),
(302,526,o),
(260,480,c),
(260,553,l),
(224,562,l),
(42,508,l),
(42,447,l),
(108,400,l),
(108,79,l),
(48,66,l)
);
}
);
width = 1059;
}
);
unicode = 109;
}
{
color = 4;
glyphname = n;
kernLeft = n;
layers = (
{
anchors = (
{
name = bottom;
pos = (341,0);
},
{
name = top;
pos = (341,546);
}
);
layerId = "E777F328-EA17-4AE7-9EBA-8002E537BA4F";
name = Light;
shapes = (
{
closed = 1;
nodes = (
(67,0,l),
(285,0,l),
(285,33,l),
(208,42,l),
(208,443,l),
(257,477,o),
(323,501,o),
(374,503,cs),
(472,507,o),
(501,454,o),
(501,315,cs),
(501,42,l),
(426,33,l),
(426,0,l),
(651,0,l),
(651,33,l),
(572,42,l),
(572,324,ls),
(572,499,o),
(528,562,o),
(405,558,cs),
(337,555,o),
(244,512,o),
(199,477,c),
(199,544,l),
(181,553,l),
(65,523,l),
(65,499,l),
(137,473,l),
(137,42,l),
(67,33,l)
);
}
);
width = 682;
},
{
anchors = (
{
name = bottom;
pos = (341,0);
},
{
name = top;
pos = (341,546);
}
);
layerId = "39185045-6A8C-415A-8312-7B8F11386A4C";
name = Regular;
shapes = (
{
closed = 1;
nodes = (
(67,0,l),
(301,0,l),
(301,42,l),
(229,52,l),
(229,434,l),
(278,468,o),
(323,483,o),
(363,485,cs),
(462,489,o),
(481,430,o),
(481,310,cs),
(481,52,l),
(407,42,l),
(407,0,l),
(653,0,l),
(653,42,l),
(575,51,l),
(575,327,ls),
(575,491,o),
(534,560,o),
(413,556,cs),
(346,554,o),
(261,515,o),
(216,477,c),
(216,546,l),
(194,556,l),
(64,518,l),
(64,487,l),
(134,449,l),
(134,51,l),
(67,42,l)
);
}
);
width = 682;
},
{
anchors = (
{
name = bottom;
pos = (358,0);
},
{
name = top;
pos = (358,546);
}
);
layerId = "B26750D4-52C5-4F85-819B-BFB2F142DAD5";
name = Bold;
shapes = (
{
closed = 1;
nodes = (
(47,0,l),
(341,0,l),
(341,66,l),
(281,80,l),
(281,427,l),
(294,437,o),
(338,449,o),
(355,449,cs),
(439,449,o),
(452,421,o),
(452,320,cs),
(452,80,l),
(382,66,l),
(382,0,l),
(693,0,l),
(693,66,l),
(625,79,l),
(625,342,ls),
(625,480,o),
(589,562,o),
(464,562,cs),
(395,562,o),
(312,532,o),
(260,480,c),
(260,553,l),
(223,562,l),
(42,508,l),
(42,447,l),
(108,400,l),
(108,79,l),
(47,66,l)
);
}
);
width = 716;
}
);
unicode = 110;
}
{
color = 4;
glyphname = o;
kernLeft = o;
layers = (
{
anchors = (
{
name = bottom;
pos = (301,0);
},
{
name = center;
pos = (301,273);
},
{
name = ogonek;
pos = (541,10);
},
{
name = top;
pos = (301,546);
},
{
name = topright;
pos = (581,546);
}
);
background = {
shapes = (
{
closed = 1;
nodes = (
(49,131,o),
(118,-12,o),
(297,-12,cs),
(440,-12,o),
(549,110,o),
(551,282,cs),
(551,428,o),
(481,564,o),
(310,563,cs),
(173,561,o),
(54,456,o),
(51,284,cs)
);
},
{
closed = 1;
nodes = (
(177,33,o),
(126,151,o),
(126,288,cs),
(126,436,o),
(192,524,o),
(305,522,cs),
(428,520,o),
(476,409,o),
(476,277,cs),
(476,116,o),
(414,28,o),
(301,31,cs)
);
}
);
};
layerId = "E777F328-EA17-4AE7-9EBA-8002E537BA4F";
name = Light;
shapes = (
{
closed = 1;
nodes = (
(173,563,o),
(51,454,o),
(51,278,cs),
(51,127,o),
(121,-12,o),
(297,-12,cs),
(440,-12,o),
(549,110,o),
(551,282,cs),
(551,427,o),
(482,563,o),
(312,563,cs)
);
},
{
closed = 1;
nodes = (
(427,522,o),
(476,411,o),
(476,277,cs),
(476,119,o),
(416,31,o),
(307,31,cs),
(178,31,o),
(126,149,o),
(126,288,cs),
(126,434,o),
(191,522,o),
(301,522,cs)
);
}
);
width = 601;
},
{
anchors = (
{
name = bottom;
pos = (301,0);
},
{
name = center;
pos = (301,273);
},
{
name = ogonek;
pos = (541,10);
},
{
name = top;
pos = (301,546);
},
{
name = topright;
pos = (581,546);
}
);
layerId = "39185045-6A8C-415A-8312-7B8F11386A4C";
name = Regular;
shapes = (
{
closed = 1;
nodes = (
(175,561,o),
(53,458,o),
(50,284,cs),
(48,129,o),
(119,-12,o),
(298,-12,cs),
(438,-12,o),
(551,106,o),
(553,280,cs),
(554,438,o),
(476,564,o),
(310,563,cs)
);
},
{
closed = 1;
nodes = (
(408,509,o),
(453,407,o),
(453,275,cs),
(453,125,o),
(413,41,o),
(302,43,cs),
(199,45,o),
(150,162,o),
(150,289,cs),
(150,429,o),
(194,513,o),
(304,511,cs)
);
}
);
width = 601;
},
{
anchors = (
{
name = bottom;
pos = (326,0);
},
{
name = center;
pos = (326,273);
},
{
name = ogonek;
pos = (587,10);
},
{
name = top;
pos = (326,546);
},
{
name = topright;
pos = (632,546);
}
);
layerId = "B26750D4-52C5-4F85-819B-BFB2F142DAD5";
name = Bold;
shapes = (
{
closed = 1;
nodes = (
(158,558,o),
(41,456,o),
(37,274,cs),
(35,95,o),
(136,-12,o),
(322,-12,cs),
(498,-12,o),
(617,104,o),
(617,289,cs),
(617,464,o),
(519,563,o),
(336,563,cs)
);
},
{
closed = 1;
nodes = (
(414,491,o),
(434,385,o),
(434,280,cs),
(434,172,o),
(417,60,o),
(328,60,cs),
(245,60,o),
(221,186,o),
(221,288,cs),
(221,397,o),
(246,491,o),
(332,491,cs)
);
}
);
width = 652;
}
);
unicode = 111;
}
{
color = 4;
glyphname = p;
kernLeft = n;
layers = (
{
anchors = (
{
name = bottom;
pos = (323,0);
},
{
name = top;
pos = (323,546);
}
);
layerId = "E777F328-EA17-4AE7-9EBA-8002E537BA4F";
name = Light;
shapes = (
{
closed = 1;
nodes = (
(299,563,o),
(231,523,o),
(197,489,c),
(197,543,l),
(178,553,l),
(63,523,l),
(63,499,l),
(134,473,l),
(134,-207,l),
(59,-217,l),
(59,-250,l),
(317,-250,l),
(317,-217,l),
(205,-208,l),
(205,-127,l),
(203,11,l),
(238,-5,o),
(277,-12,o),
(318,-12,cs),
(482,-12,o),
(594,123,o),
(594,291,cs),
(594,488,o),
(488,563,o),
(379,563,cs)
);
},
{
closed = 1;
nodes = (
(444,514,o),
(525,445,o),
(524,283,cs),
(522,104,o),
(424,28,o),
(323,28,cs),
(264,29,o),
(220,48,o),
(205,74,c),
(204,455,l),
(227,475,o),
(275,514,o),
(351,514,cs)
);
}
);
width = 646;
},
{
anchors = (
{
name = bottom;
pos = (323,0);
},
{
name = top;
pos = (323,546);
}
);
layerId = "39185045-6A8C-415A-8312-7B8F11386A4C";
name = Regular;
shapes = (
{
closed = 1;
nodes = (
(302,563,o),
(239,521,o),
(211,489,c),
(211,546,l),
(189,556,l),
(60,518,l),
(60,487,l),
(129,449,l),
(129,-197,l),
(61,-208,l),
(61,-250,l),
(318,-250,l),
(318,-208,l),
(223,-198,l),
(223,-127,l),
(220,4,l),
(251,-4,o),
(283,-11,o),
(319,-11,cs),
(484,-11,o),
(598,124,o),
(598,291,cs),
(598,490,o),
(493,563,o),
(383,563,cs)
);
},
{
closed = 1;
nodes = (
(426,500,o),
(507,442,o),
(504,278,cs),
(502,106,o),
(415,40,o),
(331,40,cs),
(274,40,o),
(238,57,o),
(223,83,c),
(222,449,l),
(243,467,o),
(283,500,o),
(344,500,cs)
);
}
);
width = 646;
},
{
anchors = (
{
name = bottom;
pos = (330,0);
},
{
name = top;
pos = (330,546);
}
);
layerId = "B26750D4-52C5-4F85-819B-BFB2F142DAD5";
name = Bold;
shapes = (
{
closed = 1;
nodes = (
(345,562,o),
(264,531,o),
(243,490,c),
(243,553,l),
(209,562,l),
(28,508,l),
(28,447,l),
(94,400,l),
(94,-168,l),
(30,-182,l),
(30,-250,l),
(370,-250,l),
(370,-182,l),
(266,-168,l),
(266,-86,l),
(260,-6,l),
(262,-6,o),
(301,-12,o),
(317,-12,cs),
(488,-12,o),
(623,122,o),
(623,291,cs),
(623,454,o),
(553,562,o),
(401,562,cs)
);
},
{
closed = 1;
nodes = (
(417,473,o),
(453,375,o),
(453,263,cs),
(453,170,o),
(422,74,o),
(349,74,cs),
(323,74,o),
(277,83,o),
(266,108,c),
(266,439,l),
(276,454,o),
(306,473,o),
(331,473,cs)
);
}
);
width = 659;
}
);
unicode = 112;
}
{
color = 4;
glyphname = q;
layers = (
{
anchors = (
{
name = bottom;
pos = (303,0);
},
{
name = top;
pos = (303,546);
}
);
layerId = "E777F328-EA17-4AE7-9EBA-8002E537BA4F";
name = Light;
shapes = (
{
closed = 1;
nodes = (
(170,563,o),
(51,433,o),
(51,265,cs),
(51,28,o),
(190,-14,o),
(266,-14,cs),
(362,-14,o),
(417,28,o),
(443,50,c),
(441,-23,l),
(441,-204,l),
(332,-213,l),
(332,-250,l),
(583,-250,l),
(583,-213,l),
(512,-205,l),
(512,547,l),
(494,555,l),
(452,539,l),
(422,554,o),
(379,563,o),
(336,563,cs)
);
},
{
closed = 1;
nodes = (
(367,522,o),
(410,515,o),
(441,482,c),
(441,90,l),
(419,68,o),
(372,38,o),
(291,38,cs),
(188,38,o),
(118,121,o),
(121,276,cs),
(123,446,o),
(224,522,o),
(324,522,cs)
);
}
);
width = 606;
},
{
anchors = (
{
name = bottom;
pos = (303,0);
},
{
name = top;
pos = (303,546);
}
);
layerId = "39185045-6A8C-415A-8312-7B8F11386A4C";
name = Regular;
shapes = (
{
closed = 1;
nodes = (
(168,563,o),
(49,433,o),
(49,267,cs),
(49,23,o),
(192,-14,o),
(262,-14,cs),
(351,-14,o),
(405,30,o),
(427,52,c),
(424,-23,l),
(424,-193,l),
(324,-203,l),
(324,-250,l),
(584,-250,l),
(584,-203,l),
(518,-193,l),
(518,547,l),
(499,557,l),
(440,545,l),
(417,555,o),
(377,563,o),
(338,563,cs)
);
},
{
closed = 1;
nodes = (
(365,511,o),
(401,501,o),
(424,472,c),
(424,100,l),
(402,78,o),
(358,54,o),
(296,54,cs),
(201,54,o),
(140,132,o),
(142,283,cs),
(145,435,o),
(222,511,o),
(322,511,cs)
);
}
);
width = 606;
},
{
anchors = (
{
name = bottom;
pos = (326,0);
},
{
name = top;
pos = (326,546);
}
);
layerId = "B26750D4-52C5-4F85-819B-BFB2F142DAD5";
name = Bold;
shapes = (
{
closed = 1;
nodes = (
(179,562,o),
(36,442,o),
(36,270,c),
(36,95,o),
(117,-12,o),
(284,-12,c),
(331,-12,o),
(382,1,o),
(418,37,cs),
(412,-23,ls),
(412,-174,ls),
(319,-185,ls),
(319,-250,ls),
(649,-250,ls),
(649,-185,ls),
(585,-173,ls),
(585,551,ls),
(560,562,ls),
(492,531,ls),
(460,553,o),
(404,562,o),
(359,562,c)
);
},
{
closed = 1;
nodes = (
(373,488,o),
(401,480,o),
(412,461,cs),
(412,106,ls),
(396,93,o),
(371,86,o),
(340,86,c),
(245,86,o),
(212,183,o),
(216,294,c),
(218,413,o),
(249,488,o),
(355,488,c)
);
}
);
width = 652;
}
);
unicode = 113;
}
{
color = 4;
glyphname = r;
kernLeft = n;
layers = (
{
anchors = (
{
name = bottom;
pos = (226,0);
},
{
name = top;
pos = (226,546);
}
);
layerId = "E777F328-EA17-4AE7-9EBA-8002E537BA4F";
name = Light;
shapes = (
{
closed = 1;
nodes = (
(52,0,l),
(356,0,l),
(356,33,l),
(208,42,l),
(208,447,l),
(238,466,o),
(291,491,o),
(353,491,cs),
(393,491,o),
(413,485,o),
(431,478,c),
(431,553,l),
(423,555,o),
(404,556,o),
(382,556,cs),
(317,556,o),
(227,510,o),
(200,476,c),
(200,544,l),
(181,553,l),
(66,523,l),
(66,499,l),
(138,473,l),
(138,42,l),
(52,33,l)
);
}
);
width = 451;
},
{
anchors = (
{
name = bottom;
pos = (226,0);
},
{
name = top;
pos = (226,546);
}
);
layerId = "39185045-6A8C-415A-8312-7B8F11386A4C";
name = Regular;
shapes = (
{
closed = 1;
nodes = (
(55,0,l),
(368,0,l),
(368,42,l),
(229,53,l),
(229,435,l),
(258,454,o),
(292,469,o),
(344,469,cs),
(389,469,o),
(409,460,o),
(431,453,c),
(431,553,l),
(423,555,o),
(405,556,o),
(383,556,cs),
(323,556,o),
(241,508,o),
(216,471,c),
(216,546,l),
(193,556,l),
(64,518,l),
(64,487,l),
(134,449,l),
(134,52,l),
(55,42,l)
);
}
);
width = 451;
},
{
anchors = (
{
name = bottom;
pos = (236,0);
},
{
name = top;
pos = (236,546);
}
);
background = {
shapes = (
{
closed = 1;
nodes = (
(48,0,l),
(395,0,l),
(395,66,l),
(281,83,l),
(281,407,l),
(282,408,o),
(285,409,o),
(289,411,c),
(293,413,o),
(298,415,o),
(306,417,c),
(319,421,o),
(340,425,o),
(368,425,cs),
(379,425,o),
(396,423,o),
(412,419,cs),
(428,416,o),
(443,410,o),
(451,402,c),
(451,556,l),
(443,560,o),
(421,562,o),
(398,562,cs),
(378,562,o),
(347,552,o),
(319,535,cs),
(292,517,o),
(266,490,o),
(258,458,c),
(258,553,l),
(223,562,l),
(42,508,l),
(42,447,l),
(108,400,l),
(108,79,l),
(48,66,l)
);
}
);
};
layerId = "B26750D4-52C5-4F85-819B-BFB2F142DAD5";
name = Bold;
shapes = (
{
closed = 1;
nodes = (
(48,0,l),
(395,0,l),
(395,66,l),
(281,83,l),
(281,407,l),
(293,415,o),
(327,425,o),
(368,425,cs),
(387,425,o),
(435,418,o),
(451,402,c),
(451,556,l),
(443,560,o),
(421,562,o),
(398,562,cs),
(347,562,o),
(272,515,o),
(258,458,c),
(258,553,l),
(223,562,l),
(42,508,l),
(42,447,l),
(108,400,l),
(108,79,l),
(48,66,l)
);
}
);
width = 472;
}
);
unicode = 114;
}
{
color = 4;
glyphname = s;
kernLeft = s;
layers = (
{
anchors = (
{
name = bottom;
pos = (256,0);
},
{
name = top;
pos = (256,546);
}
);
layerId = "E777F328-EA17-4AE7-9EBA-8002E537BA4F";
name = Light;
shapes = (
{
closed = 1;
nodes = (
(78,30,l),
(127,2,o),
(189,-12,o),
(248,-12,cs),
(367,-12,o),
(456,42,o),
(456,146,cs),
(456,244,o),
(362,275,o),
(290,308,cs),
(216,343,o),
(151,367,o),
(153,431,cs),
(154,486,o),
(200,524,o),
(279,524,cs),
(322,524,o),
(358,510,o),
(379,490,c),
(396,429,l),
(429,429,l),
(429,527,l),
(402,544,o),
(340,564,o),
(276,563,cs),
(189,560,o),
(86,517,o),
(85,418,cs),
(83,332,o),
(159,290,o),
(237,255,cs),
(310,222,o),
(388,200,o),
(388,130,cs),
(388,57,o),
(326,27,o),
(247,30,cs),
(202,32,o),
(162,42,o),
(128,70,c),
(113,136,l),
(78,136,l)
);
}
);
width = 512;
},
{
anchors = (
{
name = bottom;
pos = (256,0);
},
{
name = top;
pos = (256,546);
}
);
layerId = "39185045-6A8C-415A-8312-7B8F11386A4C";
name = Regular;
shapes = (
{
closed = 1;
nodes = (
(82,30,l),
(131,2,o),
(193,-12,o),
(252,-12,cs),
(371,-12,o),
(466,44,o),
(466,155,cs),
(466,248,o),
(384,281,o),
(312,315,cs),
(244,348,o),
(174,373,o),
(176,432,cs),
(178,490,o),
(224,514,o),
(286,514,cs),
(329,514,o),
(353,498,o),
(371,479,c),
(392,424,l),
(433,424,l),
(433,529,l),
(403,546,o),
(346,564,o),
(281,563,cs),
(193,561,o),
(88,516,o),
(86,415,cs),
(84,329,o),
(160,281,o),
(237,245,cs),
(306,211,o),
(376,192,o),
(376,133,cs),
(376,68,o),
(324,39,o),
(251,41,cs),
(206,42,o),
(177,55,o),
(145,82,c),
(125,142,l),
(82,142,l)
);
}
);
width = 512;
},
{
anchors = (
{
name = bottom;
pos = (268,0);
},
{
name = top;
pos = (268,546);
}
);
background = {
shapes = (
{
closed = 1;
nodes = (
(384,-12,o),
(506,35,o),
(506,164,cs),
(506,183,o),
(503,200,o),
(497,215,cs),
(485,244,o),
(465,268,o),
(438,287,cs),
(411,306,o),
(380,322,o),
(348,336,cs),
(332,344,o),
(315,351,o),
(300,358,cs),
(274,370,o),
(251,383,o),
(236,399,cs),
(220,415,o),
(211,433,o),
(211,455,cs),
(211,470,o),
(220,481,o),
(233,489,cs),
(247,497,o),
(265,500,o),
(283,500,cs),
(312,500,o),
(338,481,o),
(355,461,c),
(382,400,l),
(468,400,l),
(468,534,l),
(448,542,o),
(418,548,o),
(384,554,cs),
(350,560,o),
(311,563,o),
(274,562,cs),
(243,562,o),
(207,556,o),
(172,546,cs),
(138,536,o),
(105,520,o),
(81,497,cs),
(57,474,o),
(41,444,o),
(40,405,cs),
(40,354,o),
(60,316,o),
(92,285,cs),
(124,253,o),
(167,230,o),
(214,208,cs),
(247,193,o),
(278,179,o),
(302,164,cs),
(325,148,o),
(340,133,o),
(341,115,cs),
(341,76,o),
(311,51,o),
(252,54,cs),
(211,57,o),
(190,77,o),
(160,107,c),
(129,161,l),
(49,161,l),
(49,32,l),
(98,4,o),
(182,-12,o),
(245,-12,cs)
);
}
);
};
layerId = "B26750D4-52C5-4F85-819B-BFB2F142DAD5";
name = Bold;
shapes = (
{
closed = 1;
nodes = (
(49,32,l),
(98,4,o),
(182,-12,o),
(245,-12,cs),
(384,-12,o),
(506,35,o),
(506,164,cs),
(506,254,o),
(438,295,o),
(348,336,cs),
(261,376,o),
(211,401,o),
(211,455,cs),
(211,483,o),
(243,500,o),
(283,500,cs),
(312,500,o),
(338,481,o),
(355,461,c),
(382,400,l),
(468,400,l),
(468,534,l),
(426,551,o),
(334,564,o),
(274,562,cs),
(166,562,o),
(43,512,o),
(40,405,cs),
(40,309,o),
(111,256,o),
(214,208,cs),
(276,180,o),
(339,152,o),
(341,115,cs),
(341,76,o),
(311,51,o),
(252,54,cs),
(211,57,o),
(190,77,o),
(160,107,c),
(129,161,l),
(49,161,l)
);
}
);
width = 535;
}
);
unicode = 115;
}
{
color = 4;
glyphname = t;
kernLeft = t;
layers = (
{
anchors = (
{
name = bottom;
pos = (211,0);
},
{
name = center;
pos = (211,273);
},
{
name = top;
pos = (211,677);
},
{
name = topright;
pos = (401,1046);
}
);
layerId = "E777F328-EA17-4AE7-9EBA-8002E537BA4F";
name = Light;
shapes = (
{
closed = 1;
nodes = (
(165,677,l),
(163,650,o),
(149,578,o),
(141,561,c),
(126,536,o),
(110,538,o),
(55,527,c),
(55,498,l),
(133,498,l),
(133,374,o),
(133,249,o),
(133,125,cs),
(133,25,o),
(170,-12,o),
(241,-12,cs),
(286,-12,o),
(361,5,o),
(390,37,c),
(378,72,l),
(362,61,o),
(313,40,o),
(267,40,cs),
(210,40,o),
(202,72,o),
(202,204,cs),
(202,498,l),
(385,498,l),
(385,545,l),
(202,545,l),
(202,677,l)
);
}
);
width = 421;
},
{
anchors = (
{
name = bottom;
pos = (211,0);
},
{
name = center;
pos = (211,273);
},
{
name = top;
pos = (211,677);
},
{
name = topright;
pos = (401,1046);
}
);
layerId = "39185045-6A8C-415A-8312-7B8F11386A4C";
name = Regular;
shapes = (
{
closed = 1;
nodes = (
(173,677,l),
(170,660,o),
(151,589,o),
(142,566,cs),
(128,534,o),
(112,536,o),
(55,521,c),
(55,485,l),
(129,485,l),
(129,365,o),
(129,248,o),
(129,128,cs),
(129,29,o),
(170,-12,o),
(241,-12,cs),
(286,-12,o),
(363,6,o),
(393,38,c),
(377,81,l),
(362,71,o),
(311,57,o),
(278,57,cs),
(226,57,o),
(221,88,o),
(221,239,cs),
(221,485,l),
(385,485,l),
(385,546,l),
(221,546,l),
(221,677,l)
);
}
);
width = 421;
},
{
anchors = (
{
name = bottom;
pos = (226,0);
},
{
name = center;
pos = (226,273);
},
{
name = top;
pos = (226,677);
},
{
name = topright;
pos = (431,1046);
}
);
background = {
shapes = (
{
closed = 1;
nodes = (
(167,677,l),
(133,569,o),
(111,530,o),
(14,514,c),
(14,459,l),
(88,459,l),
(88,168,ls),
(88,46,o),
(117,-12,o),
(229,-12,cs),
(298,-12,o),
(385,7,o),
(427,49,c),
(401,104,l),
(384,95,o),
(339,87,o),
(316,87,cs),
(272.876,87,o),
(264,116,o),
(259,177,cs),
(257,203,o),
(256,237,o),
(256,281,cs),
(256,459,l),
(416,459,l),
(416,546,l),
(249,546,l),
(249,677,l)
);
}
);
};
layerId = "B26750D4-52C5-4F85-819B-BFB2F142DAD5";
name = Bold;
shapes = (
{
closed = 1;
nodes = (
(167,677,l),
(148,618,o),
(133,580,o),
(108,554,cs),
(87,533,o),
(58,521,o),
(14,514,c),
(14,459,l),
(88,459,l),
(88,362,o),
(88,265,o),
(88,168,cs),
(88,46,o),
(117,-12,o),
(229,-12,cs),
(298,-12,o),
(385,7,o),
(427,49,c),
(401,104,l),
(384,95,o),
(339,87,o),
(316,87,cs),
(256,87,o),
(256,168,o),
(256,271,cs),
(256,459,l),
(416,459,l),
(416,546,l),
(249,546,l),
(249,677,l)
);
}
);
width = 451;
}
);
unicode = 116;
}
{
color = 4;
glyphname = u;
kernLeft = u;
layers = (
{
anchors = (
{
name = bottom;
pos = (316,0);
},
{
name = ogonek;
pos = (568,10);
},
{
name = top;
pos = (316,546);
},
{
name = topright;
pos = (611,546);
}
);
layerId = "E777F328-EA17-4AE7-9EBA-8002E537BA4F";
name = Light;
shapes = (
{
closed = 1;
nodes = (
(104,225,ls),
(104,90,o),
(110,-10,o),
(263,-10,cs),
(330,-10,o),
(396,17,o),
(460,69,c),
(460,25,ls),
(460,0,o),
(476,-12,o),
(505,-12,cs),
(529,-12,o),
(566,-3,o),
(584,5,c),
(584,35,l),
(523,35,l),
(523,547,l),
(509,556,l),
(392,534,l),
(392,502,l),
(453,492,l),
(453,107,l),
(434,89,o),
(366,41,o),
(291,41,cs),
(192,41,o),
(174,92,o),
(174,211,cs),
(174,547,l),
(159,556,l),
(54,536,l),
(54,506,l),
(104,497,l)
);
}
);
width = 631;
},
{
anchors = (
{
name = bottom;
pos = (316,0);
},
{
name = ogonek;
pos = (568,10);
},
{
name = top;
pos = (316,546);
},
{
name = topright;
pos = (611,546);
}
);
layerId = "39185045-6A8C-415A-8312-7B8F11386A4C";
name = Regular;
shapes = (
{
closed = 1;
nodes = (
(104,225,ls),
(106,90,o),
(112,-10,o),
(266,-10,cs),
(325,-10,o),
(390,16,o),
(446,65,c),
(446,25,ls),
(446,-4,o),
(465,-17,o),
(497,-17,cs),
(527,-17,o),
(569,-6,o),
(588,4,c),
(588,42,l),
(529,42,l),
(529,548,l),
(516,556,l),
(376,528,l),
(376,488,l),
(437,473,l),
(437,112,l),
(420,94,o),
(360,57,o),
(302,57,cs),
(216,57,o),
(197,104,o),
(197,211,cs),
(197,547,l),
(180,556,l),
(54,529,l),
(54,492,l),
(104,477,l)
);
}
);
width = 631;
},
{
anchors = (
{
name = bottom;
pos = (325,0);
},
{
name = ogonek;
pos = (585,10);
},
{
name = top;
pos = (325,546);
},
{
name = topright;
pos = (630,546);
}
);
layerId = "B26750D4-52C5-4F85-819B-BFB2F142DAD5";
name = Bold;
shapes = (
{
closed = 1;
nodes = (
(72,191,ls),
(72,53,o),
(115,-14,o),
(256,-14,cs),
(308,-14,o),
(385,20,o),
(417,59,c),
(417,40,ls),
(417,3,o),
(448,-14,o),
(487,-14,cs),
(523,-14,o),
(601,-3,o),
(625,14,c),
(625,66,l),
(569,66,l),
(569,554,l),
(542,562,l),
(338,518,l),
(338,450,l),
(400,416,l),
(400,107,l),
(381,90,o),
(342,82,o),
(313,82,cs),
(251,82,o),
(238,130,o),
(238,214,cs),
(238,554,l),
(212,562,l),
(26,518,l),
(26,458,l),
(72,424,l)
);
}
);
width = 650;
}
);
unicode = 117;
}
{
color = 4;
glyphname = v;
kernLeft = v;
layers = (
{
anchors = (
{
name = bottom;
pos = (290,0);
},
{
name = top;
pos = (290,546);
}
);
layerId = "E777F328-EA17-4AE7-9EBA-8002E537BA4F";
name = Light;
shapes = (
{
closed = 1;
nodes = (
(272,-12,l),
(323,-12,l),
(523,498,l),
(581,507,l),
(581,546,l),
(393,546,l),
(393,506,l),
(462,498,l),
(351,189,l),
(306,60,l),
(260,193,l),
(134,499,l),
(205,507,l),
(205,546,l),
(1,546,l),
(1,507,l),
(54,499,l)
);
}
);
width = 580;
},
{
anchors = (
{
name = bottom;
pos = (290,0);
},
{
name = top;
pos = (290,546);
}
);
layerId = "39185045-6A8C-415A-8312-7B8F11386A4C";
name = Regular;
shapes = (
{
closed = 1;
nodes = (
(263,-12,l),
(329,-12,l),
(527,484,l),
(579,495,l),
(579,546,l),
(384,546,l),
(384,495,l),
(447,485,l),
(354,218,l),
(309,84,l),
(263,224,l),
(156,485,l),
(216,495,l),
(216,546,l),
(1,546,l),
(1,495,l),
(48,486,l)
);
}
);
width = 580;
},
{
anchors = (
{
name = bottom;
pos = (314,0);
},
{
name = top;
pos = (314,546);
}
);
layerId = "B26750D4-52C5-4F85-819B-BFB2F142DAD5";
name = Bold;
shapes = (
{
closed = 1;
nodes = (
(246,-2,l),
(387,-2,l),
(568,442,l),
(625,459,l),
(625,546,l),
(379,546,l),
(379,459,l),
(438,446,l),
(367,216,l),
(346,122,l),
(320,214,l),
(240,445,l),
(284,459,l),
(284,546,l),
(2,546,l),
(2,460,l),
(52,447,l)
);
}
);
width = 627;
}
);
unicode = 118;
}
{
color = 4;
glyphname = w;
kernLeft = v;
layers = (
{
anchors = (
{
name = bottom;
pos = (413,0);
},
{
name = top;
pos = (413,546);
}
);
layerId = "E777F328-EA17-4AE7-9EBA-8002E537BA4F";
name = Light;
shapes = (
{
closed = 1;
nodes = (
(226,-12,l),
(287,-12,l),
(397,384,l),
(417,462,l),
(433,384,l),
(548,-12,l),
(615,-12,l),
(762,498,l),
(825,507,l),
(825,546,l),
(637,546,l),
(637,506,l),
(704,499,l),
(608,135,l),
(588,56,l),
(567,138,l),
(453,546,l),
(391,546,l),
(278,138,l),
(261,60,l),
(242,138,l),
(130,498,l),
(207,506,l),
(207,546,l),
(1,546,l),
(1,506,l),
(58,499,l)
);
}
);
width = 826;
},
{
anchors = (
{
name = bottom;
pos = (413,0);
},
{
name = top;
pos = (413,546);
}
);
layerId = "39185045-6A8C-415A-8312-7B8F11386A4C";
name = Regular;
shapes = (
{
closed = 1;
nodes = (
(217,-12,l),
(298,-12,l),
(396,360,l),
(415,433,l),
(427,360,l),
(533,-12,l),
(619,-12,l),
(764,484,l),
(825,495,l),
(825,546,l),
(628,546,l),
(628,495,l),
(688,485,l),
(612,183,l),
(585,81,l),
(558,187,l),
(463,546,l),
(379,546,l),
(287,186,l),
(265,81,l),
(238,187,l),
(146,484,l),
(214,495,l),
(214,546,l),
(1,546,l),
(1,495,l),
(51,486,l)
);
}
);
width = 826;
},
{
anchors = (
{
name = bottom;
pos = (450,0);
},
{
name = top;
pos = (450,546);
}
);
layerId = "B26750D4-52C5-4F85-819B-BFB2F142DAD5";
name = Bold;
shapes = (
{
closed = 1;
nodes = (
(197,-2,l),
(354,-2,l),
(421,248,l),
(439,353,l),
(466,248,l),
(541,-2,l),
(704,-2,l),
(830,443,l),
(898,459,l),
(898,546,l),
(654,546,l),
(654,459,l),
(719,444,l),
(666,205,l),
(652,136,l),
(637,205,l),
(549,546,l),
(407,546,l),
(314,205,l),
(303,142,l),
(287,219,l),
(231,446,l),
(279,459,l),
(279,546,l),
(1,546,l),
(1,459,l),
(58,446,l)
);
}
);
width = 899;
}
);
unicode = 119;
}
{
color = 4;
glyphname = x;
kernLeft = x;
layers = (
{
anchors = (
{
name = bottom;
pos = (285,0);
},
{
name = top;
pos = (285,546);
}
);
layerId = "E777F328-EA17-4AE7-9EBA-8002E537BA4F";
name = Light;
shapes = (
{
closed = 1;
nodes = (
(9,0,l),
(232,0,l),
(232,33,l),
(143,41,l),
(251,199,l),
(273,236,l),
(306,191,l),
(410,41,l),
(332,33,l),
(332,0,l),
(567,0,l),
(567,33,l),
(493,42,l),
(319,273,l),
(488,499,l),
(561,506,l),
(561,546,l),
(358,546,l),
(358,506,l),
(429,500,l),
(320,340,l),
(295,301,l),
(268,341,l),
(160,500,l),
(236,506,l),
(236,546,l),
(2,546,l),
(2,506,l),
(77,499,l),
(250,266,l),
(82,42,l),
(9,33,l)
);
}
);
width = 570;
},
{
anchors = (
{
name = bottom;
pos = (285,0);
},
{
name = top;
pos = (285,546);
}
);
layerId = "39185045-6A8C-415A-8312-7B8F11386A4C";
name = Regular;
shapes = (
{
closed = 1;
nodes = (
(3,0,l),
(243,0,l),
(243,42,l),
(154,52,l),
(250,189,l),
(271,226,l),
(305,178,l),
(394,52,l),
(327,42,l),
(327,0,l),
(568,0,l),
(568,42,l),
(504,51,l),
(330,277,l),
(489,485,l),
(564,495,l),
(564,546,l),
(344,546,l),
(344,495,l),
(414,487,l),
(317,344,l),
(297,310,l),
(274,346,l),
(179,486,l),
(247,495,l),
(247,546,l),
(2,546,l),
(2,495,l),
(69,486,l),
(239,265,l),
(76,52,l),
(3,42,l)
);
}
);
width = 570;
},
{
anchors = (
{
name = bottom;
pos = (317,0);
},
{
name = top;
pos = (317,546);
}
);
layerId = "B26750D4-52C5-4F85-819B-BFB2F142DAD5";
name = Bold;
shapes = (
{
closed = 1;
nodes = (
(0,0,l),
(284,0,l),
(284,66,l),
(213,84,l),
(278,180,l),
(285,197,l),
(344,120,l),
(373,81,l),
(332,66,l),
(332,0,l),
(634,0,l),
(634,66,l),
(571,82,l),
(400,289,l),
(543,444,l),
(633,459,l),
(633,546,l),
(362,546,l),
(362,459,l),
(424,450,l),
(355,361,l),
(343,341,l),
(283,420,l),
(265,447,l),
(311,459,l),
(311,546,l),
(4,546,l),
(4,459,l),
(67,447,l),
(231,261,l),
(80,83,l),
(0,66,l)
);
}
);
width = 634;
}
);
unicode = 120;
}
{
color = 4;
glyphname = y;
kernLeft = v;
layers = (
{
anchors = (
{
name = bottom;
pos = (281,0);
},
{
name = top;
pos = (281,546);
}
);
layerId = "E777F328-EA17-4AE7-9EBA-8002E537BA4F";
name = Light;
shapes = (
{
closed = 1;
nodes = (
(73,-244,l),
(79,-248,o),
(99,-251,o),
(112,-251,cs),
(161,-251,o),
(196,-237,o),
(231,-203,cs),
(271,-163,o),
(304,-100,o),
(336,-16,cs),
(352,23,o),
(384,117,o),
(511,500,c),
(572,506,l),
(572,546,l),
(370,546,l),
(370,506,l),
(450,500,l),
(342,149,l),
(309,33,l),
(265,157,l),
(140,499,l),
(221,506,l),
(221,546,l),
(1,546,l),
(1,506,l),
(62,499,l),
(267,-12,l),
(280,-12,l),
(233,-159,o),
(159,-192,o),
(112,-190,cs),
(101,-190,o),
(84,-188,o),
(73,-184,c)
);
}
);
width = 562;
},
{
anchors = (
{
name = bottom;
pos = (281,0);
},
{
name = top;
pos = (281,546);
}
);
background = {
shapes = (
{
closed = 1;
nodes = (
(73,-244,l),
(79,-248,o),
(99,-251,o),
(112,-251,cs),
(127,-251,o),
(142,-250,o),
(155,-247,cs),
(235,-227,o),
(284,-149,o),
(335,-19,cs),
(351,20,o),
(381,107,o),
(512,487,c),
(566,495,l),
(566,546,l),
(355,546,l),
(355,495,l),
(432,486,l),
(333,157,l),
(304,58,l),
(271,157,l),
(157,485,l),
(227,495,l),
(227,546,l),
(1,546,l),
(1,495,l),
(52,486,l),
(248,0,l),
(269,0,l),
(226,-145,o),
(159,-171,o),
(112,-171,cs),
(101,-171,o),
(84,-169,o),
(73,-166,c)
);
}
);
};
layerId = "39185045-6A8C-415A-8312-7B8F11386A4C";
name = Regular;
shapes = (
{
closed = 1;
nodes = (
(73,-244,l),
(79,-248,o),
(99,-251,o),
(112,-251,cs),
(167,-251,o),
(207,-234,o),
(247,-186,cs),
(279,-147,o),
(307,-91,o),
(335,-19,cs),
(351,20,o),
(381,107,o),
(512,487,c),
(566,495,l),
(566,546,l),
(355,546,l),
(355,495,l),
(432,486,l),
(333,157,l),
(304,58,l),
(271,157,l),
(157,485,l),
(227,495,l),
(227,546,l),
(1,546,l),
(1,495,l),
(52,486,l),
(248,0,l),
(269,0,l),
(226,-145,o),
(159,-171,o),
(112,-171,cs),
(101,-171,o),
(84,-169,o),
(73,-166,c)
);
}
);
width = 562;
},
{
anchors = (
{
name = bottom;
pos = (301,0);
},
{
name = top;
pos = (301,546);
}
);
background = {
shapes = (
{
closed = 1;
nodes = (
(204,-265,o),
(245,-244,o),
(280,-203,cs),
(315,-163,o),
(343,-104,o),
(372,-27,cs),
(374,-21,o),
(377,-14,o),
(381,-4,c),
(384,5,o),
(389,17,o),
(396,32,cs),
(401,46,o),
(409,65,o),
(418,87,cs),
(427,109,o),
(438,137,o),
(452,170,cs),
(479,237,o),
(514,326,o),
(563,449,c),
(611,459,l),
(611,546,l),
(363,546,l),
(363,459,l),
(430,448,l),
(351,186,l),
(336,136,l),
(329,186,l),
(232,447,l),
(288,459,l),
(288,546,l),
(2,546,l),
(2,459,l),
(45,446,l),
(237,0,l),
(265,0,l),
(250,-61,o),
(228,-94,o),
(205,-112,cs),
(182,-131,o),
(160,-135,o),
(144,-135,cs),
(111,-137,o),
(89,-131,o),
(72,-127,c),
(71,-257,l),
(77,-261,o),
(90,-262,o),
(105,-263,cs),
(120,-265,o),
(136,-265,o),
(149,-265,cs)
);
}
);
};
layerId = "B26750D4-52C5-4F85-819B-BFB2F142DAD5";
name = Bold;
shapes = (
{
closed = 1;
nodes = (
(71,-257,l),
(80,-263,o),
(123,-265,o),
(149,-265,cs),
(204,-265,o),
(245,-244,o),
(280,-203,cs),
(315,-163,o),
(343,-104,o),
(372,-27,cs),
(373,-27,o),
(563,448,o),
(563,449,c),
(611,459,l),
(611,546,l),
(363,546,l),
(363,459,l),
(430,448,l),
(351,186,l),
(336,136,l),
(329,186,l),
(232,447,l),
(288,459,l),
(288,546,l),
(2,546,l),
(2,459,l),
(45,446,l),
(237,0,l),
(265,0,l),
(247,-74,o),
(208,-135,o),
(144,-135,cs),
(111,-137,o),
(89,-131,o),
(72,-127,c)
);
}
);
width = 602;
}
);
unicode = 121;
}
{
color = 4;
glyphname = z;
kernLeft = z;
layers = (
{
anchors = (
{
name = bottom;
pos = (263,0);
},
{
name = center;
pos = (263,273);
},
{
name = top;
pos = (273,546);
}
);
layerId = "E777F328-EA17-4AE7-9EBA-8002E537BA4F";
name = Light;
shapes = (
{
closed = 1;
nodes = (
(67,546,l),
(66,411,l),
(101,411,l),
(125,503,l),
(405,511,l),
(363,460,l),
(81,84,l),
(43,34,l),
(57,0,l),
(489,0,l),
(498,134,l),
(459,135,l),
(432,47,l),
(127,38,l),
(176,99,l),
(488,514,l),
(477,546,l)
);
}
);
width = 526;
},
{
anchors = (
{
name = bottom;
pos = (263,0);
},
{
name = center;
pos = (263,273);
},
{
name = top;
pos = (273,546);
}
);
layerId = "39185045-6A8C-415A-8312-7B8F11386A4C";
name = Regular;
shapes = (
{
closed = 1;
nodes = (
(66,546,l),
(66,403,l),
(111,403,l),
(141,493,l),
(380,500,l),
(340,453,l),
(77,86,l),
(43,40,l),
(59,0,l),
(490,0,l),
(498,141,l),
(448,141,l),
(417,59,l),
(158,48,l),
(207,111,l),
(493,506,l),
(480,546,l)
);
}
);
width = 526;
},
{
anchors = (
{
name = bottom;
pos = (281,0);
},
{
name = center;
pos = (281,273);
},
{
name = top;
pos = (291,546);
}
);
layerId = "B26750D4-52C5-4F85-819B-BFB2F142DAD5";
name = Bold;
shapes = (
{
closed = 1;
nodes = (
(47,546,l),
(47,364,l),
(136,364,l),
(168,463,l),
(336,473,l),
(295,429,l),
(82,139,l),
(25,49,l),
(48,0,l),
(536,0,l),
(543,175,l),
(453,175,l),
(424,91,l),
(247,74,l),
(307,148,l),
(539,486,l),
(514,546,l)
);
}
);
width = 562;
}
);
unicode = 122;
}
{
glyphname = braceleft;
layers = (
{
layerId = "E777F328-EA17-4AE7-9EBA-8002E537BA4F";
name = Light;
shapes = (
{
closed = 1;
nodes = (
(169,21,ls),
(169,-68,o),
(182,-87,o),
(243,-87,cs),
(296,-87,o),
(331,-79,o),
(373,-70,c),
(372,-37,l),
(230,-37,l),
(230,280,ls),
(230,324,o),
(174,350,o),
(115,379,c),
(183,409,o),
(230,430,o),
(230,473,cs),
(230,786,l),
(372,786,l),
(373,818,l),
(333,826,o),
(303,835,o),
(250,835,cs),
(182,835,o),
(169,816,o),
(169,728,cs),
(169,472,ls),
(169,446,o),
(87,415,o),
(44,403,c),
(44,356,l),
(88,344,o),
(169,306,o),
(169,281,cs)
);
}
);
width = 495;
},
{
layerId = "39185045-6A8C-415A-8312-7B8F11386A4C";
name = Regular;
shapes = (
{
closed = 1;
nodes = (
(161,29,ls),
(161,-67,o),
(178,-93,o),
(254,-93,cs),
(307,-93,o),
(342,-83,o),
(383,-72,c),
(383,-29,l),
(241,-29,l),
(241,281,ls),
(241,328,o),
(189,354,o),
(133,379,c),
(192,406,o),
(241,425,o),
(241,474,cs),
(241,785,l),
(383,785,l),
(383,827,l),
(342,837,o),
(307,848,o),
(254,848,cs),
(178,848,o),
(161,822,o),
(161,726,cs),
(161,472,ls),
(161,445,o),
(94,423,o),
(39,410,c),
(39,349,l),
(95,335,o),
(161,309,o),
(161,283,cs)
);
}
);
width = 505;
},
{
layerId = "B26750D4-52C5-4F85-819B-BFB2F142DAD5";
name = Bold;
shapes = (
{
closed = 1;
nodes = (
(126,5,ls),
(126,-91,o),
(176,-126,o),
(271,-126,cs),
(318,-126,o),
(354,-114,o),
(430,-91,c),
(430,-29,l),
(280,-29,l),
(280,281,ls),
(280,334,o),
(237,354,o),
(175,379,c),
(235,405,o),
(280,417,o),
(280,474,cs),
(280,785,l),
(430,785,l),
(430,846,l),
(353,866,o),
(317,882,o),
(261,882,cs),
(176,882,o),
(126,849,o),
(126,761,cs),
(126,488,ls),
(126,453,o),
(91,441,o),
(40,437,c),
(40,329,l),
(82,325,o),
(126,309,o),
(126,273,cs)
);
}
);
width = 553;
}
);
unicode = 123;
}
{
glyphname = braceright;
layers = (
{
layerId = "E777F328-EA17-4AE7-9EBA-8002E537BA4F";
name = Light;
shapes = (
{
closed = 1;
nodes = (
(97,-37,l),
(97,-70,l),
(138,-79,o),
(173,-87,o),
(226,-87,cs),
(287,-87,o),
(300,-68,o),
(300,21,cs),
(300,281,ls),
(300,306,o),
(382,344,o),
(425,356,c),
(425,403,l),
(382,415,o),
(300,446,o),
(300,472,cs),
(300,728,ls),
(300,816,o),
(288,835,o),
(220,835,cs),
(167,835,o),
(136,826,o),
(97,818,c),
(97,786,l),
(239,786,l),
(239,473,ls),
(239,431,o),
(283,412,o),
(354,379,c),
(295,352,o),
(239,322,o),
(239,280,cs),
(239,-37,l)
);
}
);
width = 469;
},
{
layerId = "39185045-6A8C-415A-8312-7B8F11386A4C";
name = Regular;
shapes = (
{
closed = 1;
nodes = (
(85,-29,l),
(84,-72,l),
(126,-83,o),
(161,-93,o),
(214,-93,cs),
(290,-93,o),
(307,-67,o),
(307,29,cs),
(307,283,ls),
(307,309,o),
(373,335,o),
(429,349,c),
(429,410,l),
(374,423,o),
(307,445,o),
(307,472,cs),
(307,726,ls),
(307,822,o),
(290,848,o),
(214,848,cs),
(161,848,o),
(126,837,o),
(84,827,c),
(85,785,l),
(227,785,l),
(227,474,ls),
(227,426,o),
(272,409,o),
(334,379,c),
(280,355,o),
(227,330,o),
(227,281,cs),
(227,-29,l)
);
}
);
width = 468;
},
{
layerId = "B26750D4-52C5-4F85-819B-BFB2F142DAD5";
name = Bold;
shapes = (
{
closed = 1;
nodes = (
(121,-29,l),
(120,-91,l),
(189,-112,o),
(238,-126,o),
(280,-126,cs),
(372,-126,o),
(424,-93,o),
(424,5,cs),
(424,273,ls),
(424,305,o),
(464,325,o),
(510,329,c),
(510,437,l),
(463,441,o),
(424,452,o),
(424,488,cs),
(424,761,ls),
(424,848,o),
(378,882,o),
(289,882,cs),
(250,882,o),
(184,865,o),
(120,846,c),
(121,785,l),
(271,785,l),
(271,474,ls),
(271,420,o),
(309,405,o),
(375,379,c),
(311,354,o),
(271,334,o),
(271,281,cs),
(271,-29,l)
);
}
);
width = 553;
}
);
unicode = 125;
}
{
glyphname = asciitilde;
layers = (
{
layerId = "E777F328-EA17-4AE7-9EBA-8002E537BA4F";
name = Light;
shapes = (
{
closed = 1;
nodes = (
(102,389,l),
(127,415,o),
(160,447,o),
(211,447,cs),
(272,447,o),
(304,356,o),
(379,356,cs),
(451,356,o),
(509,400,o),
(538,445,c),
(510,479,l),
(484,453,o),
(451,421,o),
(400,421,cs),
(339,421,o),
(309,511,o),
(232,511,cs),
(160,511,o),
(104,467,o),
(75,422,c)
);
}
);
width = 614;
},
{
layerId = "39185045-6A8C-415A-8312-7B8F11386A4C";
name = Regular;
shapes = (
{
closed = 1;
nodes = (
(108,380,l),
(132,402,o),
(166,431,o),
(211,431,cs),
(269,431,o),
(296,349,o),
(374,349,cs),
(445,349,o),
(511,393,o),
(541,442,c),
(505,485,l),
(482,463,o),
(446,435,o),
(402,435,cs),
(345,435,o),
(316,517,o),
(240,517,cs),
(169,517,o),
(102,474,o),
(73,424,c)
);
}
);
width = 614;
},
{
layerId = "B26750D4-52C5-4F85-819B-BFB2F142DAD5";
name = Bold;
shapes = (
{
closed = 1;
nodes = (
(119,355,l),
(152,382,o),
(180,403,o),
(225,403,cs),
(307,403,o),
(319,334,o),
(405,334,cs),
(472,334,o),
(561,396,o),
(572,455,c),
(524,516,l),
(489,488,o),
(455,467,o),
(417,467,cs),
(352,467,o),
(320,536,o),
(240,536,cs),
(178,536,o),
(79,469,o),
(71,416,c)
);
}
);
width = 643;
}
);
unicode = 126;
}
{
glyphname = exclamdown;
layers = (
{
layerId = "E777F328-EA17-4AE7-9EBA-8002E537BA4F";
name = Light;
shapes = (
{
closed = 1;
nodes = (
(146,466,l),
(121,-194,l),
(213,-194,l),
(191,466,l)
);
},
{
closed = 1;
nodes = (
(160,698,o),
(133,682,o),
(128,654,c),
(124,628,o),
(140,610,o),
(161,606,c),
(187,604,o),
(213,619,o),
(217,648,c),
(221,671,o),
(213,692,o),
(184,696,cs)
);
}
);
width = 348;
},
{
layerId = "39185045-6A8C-415A-8312-7B8F11386A4C";
name = Regular;
shapes = (
{
closed = 1;
nodes = (
(141,450,l),
(105,-199,l),
(230,-199,l),
(198,450,l)
);
},
{
closed = 1;
nodes = (
(146,702,o),
(108,672,o),
(108,631,cs),
(108,593,o),
(138,571,o),
(170,571,cs),
(207,571,o),
(243,599,o),
(243,642,cs),
(243,675,o),
(224,702,o),
(181,702,cs)
);
}
);
width = 348;
},
{
layerId = "B26750D4-52C5-4F85-819B-BFB2F142DAD5";
name = Bold;
shapes = (
{
closed = 1;
nodes = (
(156,403,l),
(82,-217,l),
(315,-217,l),
(245,403,l)
);
},
{
closed = 1;
nodes = (
(159,703,o),
(98,653,o),
(98,592,cs),
(98,539,o),
(143,501,o),
(197,501,cs),
(256,501,o),
(315,544,o),
(315,608,cs),
(315,666,o),
(279,703,o),
(214,703,cs)
);
}
);
width = 397;
}
);
unicode = 161;
}
{
glyphname = cent;
layers = (
{
layerId = "E777F328-EA17-4AE7-9EBA-8002E537BA4F";
name = Light;
shapes = (
{
closed = 1;
nodes = (
(247,-105,l),
(294,-105,l),
(300,-10,l),
(372,-9,o),
(445,9,o),
(483,43,c),
(470,78,l),
(438,55,o),
(367,41,o),
(323,41,cs),
(228,41,o),
(129,111,o),
(131,296,cs),
(132,439,o),
(220,517,o),
(321,517,cs),
(354,517,o),
(389,512,o),
(412,495,c),
(432,432,l),
(468,432,l),
(468,537,l),
(446,551,o),
(397,560,o),
(350,561,c),
(357,665,l),
(310,665,l),
(302,559,l),
(165,542,o),
(61,432,o),
(63,263,cs),
(64,122,o),
(130,13,o),
(252,-7,c)
);
}
);
width = 544;
},
{
layerId = "39185045-6A8C-415A-8312-7B8F11386A4C";
name = Regular;
shapes = (
{
closed = 1;
nodes = (
(246,-105,l),
(307,-105,l),
(312,-10,l),
(381,-7,o),
(451,12,o),
(486,43,c),
(469,86,l),
(441,70,o),
(380,57,o),
(329,57,cs),
(247,57,o),
(149,128,o),
(151,306,cs),
(152,440,o),
(229,504,o),
(317,504,cs),
(340,504,o),
(376,498,o),
(397,481,c),
(422,419,l),
(468,419,l),
(468,537,l),
(447,551,o),
(401,560,o),
(354,561,c),
(360,665,l),
(300,665,l),
(293,558,l),
(161,538,o),
(60,428,o),
(61,263,cs),
(63,122,o),
(128,15,o),
(251,-6,c)
);
}
);
width = 545;
},
{
layerId = "B26750D4-52C5-4F85-819B-BFB2F142DAD5";
name = Bold;
shapes = (
{
closed = 1;
nodes = (
(245,-106,l),
(340,-106,l),
(345,-13,l),
(431,-8,o),
(501,16,o),
(548,56,c),
(522,117,l),
(491,94,o),
(430,83,o),
(385,83,cs),
(274,83,o),
(221,177,o),
(226,305,cs),
(229,399,o),
(260,486,o),
(337,486,cs),
(358,486,o),
(384,485,o),
(402,474,c),
(440,382,l),
(530,382,l),
(530,537,l),
(500,551,o),
(447,558,o),
(406,561,c),
(412,665,l),
(317,665,l),
(311,559,l),
(152,538,o),
(46,423,o),
(46,256,c),
(46,119,o),
(121,17,o),
(251,-7,c)
);
}
);
width = 593;
}
);
unicode = 162;
}
{
glyphname = sterling;
layers = (
{
layerId = "E777F328-EA17-4AE7-9EBA-8002E537BA4F";
name = Light;
shapes = (
{
closed = 1;
nodes = (
(306,760,o),
(213,640,o),
(213,481,cs),
(213,427,l),
(116,427,l),
(116,373,l),
(213,373,l),
(213,248,ls),
(213,183,o),
(188,109,o),
(160,81,c),
(94,84,o),
(43,52,o),
(43,21,cs),
(43,-10,o),
(69,-15,o),
(84,-15,cs),
(116,-15,o),
(147,8,o),
(168,36,c),
(209,44,o),
(301,-21,o),
(448,-16,c),
(646,-16,o),
(663,117,o),
(655,182,cs),
(647,236,o),
(622,276,o),
(577,296,c),
(544,233,l),
(573,213,o),
(588,182,o),
(588,147,cs),
(588,81,o),
(553,5,o),
(396,27,cs),
(334,36,o),
(251,69,o),
(207,70,c),
(248,125,o),
(284,188,o),
(284,330,cs),
(284,373,l),
(457,373,l),
(457,427,l),
(284,427,l),
(284,483,ls),
(284,671,o),
(349,714,o),
(413,716,cs),
(488,717,o),
(537,665,o),
(542,655,c),
(578,722,l),
(544,751,o),
(504,764,o),
(446,762,cs)
);
}
);
width = 704;
},
{
layerId = "39185045-6A8C-415A-8312-7B8F11386A4C";
name = Regular;
shapes = (
{
closed = 1;
nodes = (
(301,765,o),
(204,628,o),
(204,482,cs),
(204,427,l),
(116,427,l),
(116,355,l),
(204,355,l),
(204,232,ls),
(204,194,o),
(201,135,o),
(188,106,c),
(99,110,o),
(43,65,o),
(43,30,cs),
(43,-9,o),
(73,-15,o),
(91,-15,cs),
(134,-15,o),
(169,15,o),
(194,49,c),
(237,57,o),
(321,-33,o),
(487,-17,cs),
(654,-3,o),
(665,121,o),
(657,182,cs),
(650,236,o),
(623,279,o),
(578,298,c),
(533,212,l),
(558,193,o),
(568,164,o),
(568,139,cs),
(568,79,o),
(530,16,o),
(407,38,cs),
(346,48,o),
(287,89,o),
(243,91,c),
(282,160,o),
(298,204,o),
(298,340,cs),
(298,355,l),
(457,355,l),
(457,427,l),
(297,427,l),
(297,483,ls),
(297,660,o),
(345,705,o),
(400,705,cs),
(476,705,o),
(527,646,o),
(533,636,c),
(580,726,l),
(542,758,o),
(501,765,o),
(447,765,cs)
);
}
);
width = 704;
},
{
background = {
shapes = (
{
closed = 1;
nodes = (
(363,766,o),
(293,727,o),
(246,669,cs),
(198,611,o),
(173,535,o),
(173,458,cs),
(173,435,l),
(96,435,l),
(96,337,l),
(173,337,l),
(173,220,ls),
(173,192,o),
(172,172,o),
(170,156,cs),
(168,141,o),
(165,128,o),
(159,116,c),
(106,116,o),
(66,105,o),
(40,90,cs),
(14,74,o),
(1,54,o),
(1,35,cs),
(1,19,o),
(11,5,o),
(26,-2,c),
(42,-11,o),
(63,-15,o),
(86,-14,cs),
(145,-13,o),
(189,8,o),
(217,38,c),
(226,38,o),
(234,37,o),
(244,35,c),
(261,29,o),
(282,21,o),
(306,11,cs),
(318,5,o),
(331,1,o),
(346,-3,cs),
(375,-12,o),
(410,-19,o),
(454,-19,cs),
(517,-19,o),
(564,-4,o),
(599,18,cs),
(634,39,o),
(656,68,o),
(669,98,cs),
(683,127,o),
(688,156,o),
(688,178,cs),
(688,219,o),
(672,257,o),
(649,286,cs),
(625,315,o),
(593,336,o),
(560,342,c),
(493,211,l),
(500,208,o),
(511,200,o),
(521,189,cs),
(531,178,o),
(540,164,o),
(540,146,cs),
(540,138,o),
(538,129,o),
(532,120,cs),
(521,103,o),
(501,88,o),
(474,80,cs),
(447,71,o),
(409,74,o),
(384,79,cs),
(359,83,o),
(339,89,o),
(320,94,cs),
(311,97,o),
(299,99,o),
(287,100,c),
(310,125,o),
(324,153,o),
(334,187,cs),
(343,220,o),
(347,261,o),
(347,310,cs),
(347,337,l),
(469,337,l),
(469,435,l),
(347,435,l),
(347,484,ls),
(347,562,o),
(349,612,o),
(357,643,cs),
(365,674,o),
(379,685,o),
(401,685,cs),
(425,685,o),
(447,676,o),
(466,662,cs),
(485,648,o),
(501,630,o),
(513,614,cs),
(525,598,o),
(532,583,o),
(536,575,c),
(612,713,l),
(567,751,o),
(509,766,o),
(454,766,cs)
);
}
);
};
layerId = "B26750D4-52C5-4F85-819B-BFB2F142DAD5";
name = Bold;
shapes = (
{
closed = 1;
nodes = (
(287,766,o),
(173,626,o),
(173,458,cs),
(173,435,l),
(96,435,l),
(96,337,l),
(173,337,l),
(173,220,ls),
(173,182,o),
(172,142,o),
(159,116,c),
(86,116,o),
(1,90,o),
(1,35,cs),
(1,0,o),
(44,-16,o),
(86,-14,cs),
(145,-13,o),
(189,8,o),
(217,38,c),
(273,38,o),
(331,-19,o),
(454,-19,cs),
(584,-19,o),
(688,56,o),
(688,178,cs),
(688,254,o),
(631,329,o),
(560,342,c),
(493,211,l),
(513,203,o),
(540,174,o),
(540,146,cs),
(540,106,o),
(486,74,o),
(433,74,cs),
(373,74,o),
(325,98,o),
(287,100,c),
(336,153,o),
(347,224,o),
(347,310,cs),
(347,337,l),
(469,337,l),
(469,435,l),
(347,435,l),
(347,484,ls),
(347,591,o),
(344,685,o),
(401,685,cs),
(456,685,o),
(505,636,o),
(536,575,c),
(612,713,l),
(567,751,o),
(509,766,o),
(454,766,cs)
);
}
);
width = 756;
}
);
unicode = 163;
}
{
glyphname = currency;
layers = (
{
layerId = "E777F328-EA17-4AE7-9EBA-8002E537BA4F";
name = Light;
shapes = (
{
closed = 1;
nodes = (
(115,538,l),
(201,451,l),
(176,420,o),
(162,380,o),
(162,337,cs),
(162,292,o),
(177,251,o),
(203,220,c),
(118,134,l),
(150,101,l),
(237,188,l),
(268,165,o),
(306,152,o),
(347,152,cs),
(390,152,o),
(429,166,o),
(461,191,c),
(547,104,l),
(581,137,l),
(494,223,l),
(519,254,o),
(533,294,o),
(533,337,cs),
(533,377,o),
(520,413,o),
(498,444,c),
(586,532,l),
(554,565,l),
(467,479,l),
(434,506,o),
(393,522,o),
(347,522,cs),
(304,522,o),
(266,508,o),
(234,484,c),
(147,571,l)
);
},
{
closed = 1;
nodes = (
(419,474,o),
(479,412,o),
(479,337,cs),
(479,261,o),
(419,200,o),
(347,200,cs),
(274,200,o),
(216,261,o),
(216,337,cs),
(216,412,o),
(274,474,o),
(347,474,cs)
);
}
);
width = 701;
},
{
layerId = "39185045-6A8C-415A-8312-7B8F11386A4C";
name = Regular;
shapes = (
{
closed = 1;
nodes = (
(110,535,l),
(197,447,l),
(174,416,o),
(161,378,o),
(161,337,cs),
(161,294,o),
(175,256,o),
(198,225,c),
(111,138,l),
(153,97,l),
(241,185,l),
(272,164,o),
(308,152,o),
(347,152,cs),
(388,152,o),
(424,165,o),
(455,187,c),
(543,99,l),
(585,141,l),
(497,229,l),
(519,259,o),
(532,296,o),
(532,337,cs),
(532,375,o),
(521,409,o),
(501,438,c),
(591,528,l),
(550,570,l),
(461,482,l),
(430,507,o),
(390,521,o),
(347,521,cs),
(306,521,o),
(271,509,o),
(240,488,c),
(151,577,l)
);
},
{
closed = 1;
nodes = (
(411,458,o),
(462,403,o),
(462,337,cs),
(462,271,o),
(411,216,o),
(347,216,cs),
(283,216,o),
(231,271,o),
(231,337,cs),
(231,403,o),
(283,458,o),
(347,458,cs)
);
}
);
width = 701;
},
{
layerId = "B26750D4-52C5-4F85-819B-BFB2F142DAD5";
name = Bold;
shapes = (
{
closed = 1;
nodes = (
(76,550,l),
(179,445,l),
(160,413,o),
(149,376,o),
(149,336,cs),
(149,296,o),
(159,260,o),
(178,229,c),
(73,124,l),
(151,47,l),
(257,153,l),
(288,136,o),
(322,127,o),
(359,127,cs),
(397,127,o),
(433,137,o),
(464,155,c),
(570,48,l),
(647,125,l),
(542,232,l),
(560,263,o),
(569,297,o),
(569,336,cs),
(569,375,o),
(559,411,o),
(540,442,c),
(655,555,l),
(578,633,l),
(460,519,l),
(430,535,o),
(396,545,o),
(359,545,cs),
(323,545,o),
(290,537,o),
(259,520,c),
(152,628,l)
);
},
{
closed = 1;
nodes = (
(408,428,o),
(448,384,o),
(448,336,cs),
(448,288,o),
(407,243,o),
(360,243,cs),
(312,243,o),
(270,288,o),
(270,336,cs),
(270,384,o),
(311,428,o),
(360,428,cs)
);
}
);
width = 728;
}
);
unicode = 164;
}
{
glyphname = yen;
layers = (
{
layerId = "E777F328-EA17-4AE7-9EBA-8002E537BA4F";
name = Light;
shapes = (
{
closed = 1;
nodes = (
(204,0,l),
(482,0,l),
(482,33,l),
(377,45,l),
(377,199,l),
(591,199,l),
(591,248,l),
(377,248,l),
(377,344,l),
(377,374,l),
(591,374,l),
(591,422,l),
(405,422,l),
(594,709,l),
(664,721,l),
(664,758,l),
(455,758,l),
(455,721,l),
(531,714,l),
(491,647,o),
(416,530,o),
(389,482,cs),
(356,422,l),
(345,422,l),
(316,479,l),
(162,714,l),
(241,721,l),
(241,758,l),
(12,758,l),
(12,721,l),
(80,713,l),
(279,422,l),
(89,422,l),
(89,374,l),
(306,374,l),
(306,343,l),
(306,248,l),
(89,248,l),
(89,199,l),
(306,199,l),
(306,45,l),
(204,33,l)
);
}
);
width = 687;
},
{
layerId = "39185045-6A8C-415A-8312-7B8F11386A4C";
name = Regular;
shapes = (
{
closed = 1;
nodes = (
(202,0,l),
(491,0,l),
(491,42,l),
(392,57,l),
(392,184,l),
(591,184,l),
(591,246,l),
(392,246,l),
(392,326,l),
(392,358,l),
(591,358,l),
(591,420,l),
(426,420,l),
(602,696,l),
(671,710,l),
(671,758,l),
(448,758,l),
(448,710,l),
(521,702,l),
(478,629,o),
(435,551,o),
(394,480,c),
(364,420,l),
(351,420,l),
(327,476,l),
(188,702,l),
(261,710,l),
(261,758,l),
(16,758,l),
(16,710,l),
(79,702,l),
(265,420,l),
(89,420,l),
(89,358,l),
(296,358,l),
(296,326,l),
(296,246,l),
(89,246,l),
(89,184,l),
(296,184,l),
(296,56,l),
(202,42,l)
);
}
);
width = 687;
},
{
layerId = "B26750D4-52C5-4F85-819B-BFB2F142DAD5";
name = Bold;
shapes = (
{
closed = 1;
nodes = (
(159,0,l),
(576,0,l),
(576,68,l),
(450,91,l),
(450,171,l),
(633,171,l),
(633,252,l),
(450,252,l),
(450,342,l),
(453,347,l),
(633,347,l),
(633,429,l),
(497,429,l),
(621,659,l),
(689,678,l),
(689,758,l),
(415,758,l),
(415,678,l),
(491,667,l),
(475,628,o),
(427,519,o),
(417,499,cs),
(386,429,l),
(379,429,l),
(351,495,l),
(270,670,l),
(321,680,l),
(321,758,l),
(14,758,l),
(14,678,l),
(70,668,l),
(211,429,l),
(100,429,l),
(100,347,l),
(259,347,l),
(276,319,l),
(276,252,l),
(100,252,l),
(100,171,l),
(276,171,l),
(276,90,l),
(159,68,l)
);
}
);
width = 745;
}
);
unicode = 165;
}
{
glyphname = brokenbar;
layers = (
{
layerId = "E777F328-EA17-4AE7-9EBA-8002E537BA4F";
name = Light;
shapes = (
{
closed = 1;
nodes = (
(175,433,l),
(239,433,l),
(239,869,l),
(175,869,l)
);
},
{
closed = 1;
nodes = (
(175,-91,l),
(239,-91,l),
(239,346,l),
(175,346,l)
);
}
);
width = 426;
},
{
layerId = "39185045-6A8C-415A-8312-7B8F11386A4C";
name = Regular;
shapes = (
{
closed = 1;
nodes = (
(175,433,l),
(259,433,l),
(259,869,l),
(175,869,l)
);
},
{
closed = 1;
nodes = (
(175,-91,l),
(259,-91,l),
(259,346,l),
(175,346,l)
);
}
);
width = 426;
},
{
layerId = "B26750D4-52C5-4F85-819B-BFB2F142DAD5";
name = Bold;
shapes = (
{
closed = 1;
nodes = (
(179,443,l),
(352,443,l),
(352,869,l),
(179,869,l)
);
},
{
closed = 1;
nodes = (
(179,-90,l),
(352,-90,l),
(352,336,l),
(179,336,l)
);
}
);
width = 531;
}
);
unicode = 166;
}
